G04 #@! TF.GenerationSoftware,KiCad,Pcbnew,5.1.5+dfsg1-2build2*
G04 #@! TF.CreationDate,2020-07-19T12:41:51+10:00*
G04 #@! TF.ProjectId,grinder_timer,6772696e-6465-4725-9f74-696d65722e6b,rev?*
G04 #@! TF.SameCoordinates,Original*
G04 #@! TF.FileFunction,Soldermask,Top*
G04 #@! TF.FilePolarity,Negative*
%FSLAX46Y46*%
G04 Gerber Fmt 4.6, Leading zero omitted, Abs format (unit mm)*
G04 Created by KiCad (PCBNEW 5.1.5+dfsg1-2build2) date 2020-07-19 12:41:51*
%MOMM*%
%LPD*%
G04 APERTURE LIST*
%ADD10C,0.100000*%
G04 APERTURE END LIST*
D10*
G36*
X65072585Y7871198D02*
G01*
X65222410Y7841396D01*
X65504674Y7724479D01*
X65758705Y7554741D01*
X65974741Y7338705D01*
X66144479Y7084674D01*
X66261396Y6802410D01*
X66321000Y6502760D01*
X66321000Y6197240D01*
X66261396Y5897590D01*
X66144479Y5615326D01*
X65974741Y5361295D01*
X65758705Y5145259D01*
X65504674Y4975521D01*
X65222410Y4858604D01*
X65072585Y4828802D01*
X64922761Y4799000D01*
X64617239Y4799000D01*
X64467415Y4828802D01*
X64317590Y4858604D01*
X64035326Y4975521D01*
X63781295Y5145259D01*
X63565259Y5361295D01*
X63395521Y5615326D01*
X63278604Y5897590D01*
X63219000Y6197240D01*
X63219000Y6502760D01*
X63278604Y6802410D01*
X63395521Y7084674D01*
X63565259Y7338705D01*
X63781295Y7554741D01*
X64035326Y7724479D01*
X64317590Y7841396D01*
X64467415Y7871198D01*
X64617239Y7901000D01*
X64922761Y7901000D01*
X65072585Y7871198D01*
G37*
G36*
X59992585Y7871198D02*
G01*
X60142410Y7841396D01*
X60424674Y7724479D01*
X60678705Y7554741D01*
X60894741Y7338705D01*
X61064479Y7084674D01*
X61181396Y6802410D01*
X61241000Y6502760D01*
X61241000Y6197240D01*
X61181396Y5897590D01*
X61064479Y5615326D01*
X60894741Y5361295D01*
X60678705Y5145259D01*
X60424674Y4975521D01*
X60142410Y4858604D01*
X59992585Y4828802D01*
X59842761Y4799000D01*
X59537239Y4799000D01*
X59387415Y4828802D01*
X59237590Y4858604D01*
X58955326Y4975521D01*
X58701295Y5145259D01*
X58485259Y5361295D01*
X58315521Y5615326D01*
X58198604Y5897590D01*
X58139000Y6197240D01*
X58139000Y6502760D01*
X58198604Y6802410D01*
X58315521Y7084674D01*
X58485259Y7338705D01*
X58701295Y7554741D01*
X58955326Y7724479D01*
X59237590Y7841396D01*
X59387415Y7871198D01*
X59537239Y7901000D01*
X59842761Y7901000D01*
X59992585Y7871198D01*
G37*
G36*
X51102585Y7871198D02*
G01*
X51252410Y7841396D01*
X51534674Y7724479D01*
X51788705Y7554741D01*
X52004741Y7338705D01*
X52174479Y7084674D01*
X52291396Y6802410D01*
X52351000Y6502760D01*
X52351000Y6197240D01*
X52291396Y5897590D01*
X52174479Y5615326D01*
X52004741Y5361295D01*
X51788705Y5145259D01*
X51534674Y4975521D01*
X51252410Y4858604D01*
X51102585Y4828802D01*
X50952761Y4799000D01*
X50647239Y4799000D01*
X50497415Y4828802D01*
X50347590Y4858604D01*
X50065326Y4975521D01*
X49811295Y5145259D01*
X49595259Y5361295D01*
X49425521Y5615326D01*
X49308604Y5897590D01*
X49249000Y6197240D01*
X49249000Y6502760D01*
X49308604Y6802410D01*
X49425521Y7084674D01*
X49595259Y7338705D01*
X49811295Y7554741D01*
X50065326Y7724479D01*
X50347590Y7841396D01*
X50497415Y7871198D01*
X50647239Y7901000D01*
X50952761Y7901000D01*
X51102585Y7871198D01*
G37*
G36*
X46022585Y7871198D02*
G01*
X46172410Y7841396D01*
X46454674Y7724479D01*
X46708705Y7554741D01*
X46924741Y7338705D01*
X47094479Y7084674D01*
X47211396Y6802410D01*
X47271000Y6502760D01*
X47271000Y6197240D01*
X47211396Y5897590D01*
X47094479Y5615326D01*
X46924741Y5361295D01*
X46708705Y5145259D01*
X46454674Y4975521D01*
X46172410Y4858604D01*
X46022585Y4828802D01*
X45872761Y4799000D01*
X45567239Y4799000D01*
X45417415Y4828802D01*
X45267590Y4858604D01*
X44985326Y4975521D01*
X44731295Y5145259D01*
X44515259Y5361295D01*
X44345521Y5615326D01*
X44228604Y5897590D01*
X44169000Y6197240D01*
X44169000Y6502760D01*
X44228604Y6802410D01*
X44345521Y7084674D01*
X44515259Y7338705D01*
X44731295Y7554741D01*
X44985326Y7724479D01*
X45267590Y7841396D01*
X45417415Y7871198D01*
X45567239Y7901000D01*
X45872761Y7901000D01*
X46022585Y7871198D01*
G37*
G36*
X37132585Y7871198D02*
G01*
X37282410Y7841396D01*
X37564674Y7724479D01*
X37818705Y7554741D01*
X38034741Y7338705D01*
X38204479Y7084674D01*
X38321396Y6802410D01*
X38381000Y6502760D01*
X38381000Y6197240D01*
X38321396Y5897590D01*
X38204479Y5615326D01*
X38034741Y5361295D01*
X37818705Y5145259D01*
X37564674Y4975521D01*
X37282410Y4858604D01*
X37132585Y4828802D01*
X36982761Y4799000D01*
X36677239Y4799000D01*
X36527415Y4828802D01*
X36377590Y4858604D01*
X36095326Y4975521D01*
X35841295Y5145259D01*
X35625259Y5361295D01*
X35455521Y5615326D01*
X35338604Y5897590D01*
X35279000Y6197240D01*
X35279000Y6502760D01*
X35338604Y6802410D01*
X35455521Y7084674D01*
X35625259Y7338705D01*
X35841295Y7554741D01*
X36095326Y7724479D01*
X36377590Y7841396D01*
X36527415Y7871198D01*
X36677239Y7901000D01*
X36982761Y7901000D01*
X37132585Y7871198D01*
G37*
G36*
X32052585Y7871198D02*
G01*
X32202410Y7841396D01*
X32484674Y7724479D01*
X32738705Y7554741D01*
X32954741Y7338705D01*
X33124479Y7084674D01*
X33241396Y6802410D01*
X33301000Y6502760D01*
X33301000Y6197240D01*
X33241396Y5897590D01*
X33124479Y5615326D01*
X32954741Y5361295D01*
X32738705Y5145259D01*
X32484674Y4975521D01*
X32202410Y4858604D01*
X32052585Y4828802D01*
X31902761Y4799000D01*
X31597239Y4799000D01*
X31447415Y4828802D01*
X31297590Y4858604D01*
X31015326Y4975521D01*
X30761295Y5145259D01*
X30545259Y5361295D01*
X30375521Y5615326D01*
X30258604Y5897590D01*
X30199000Y6197240D01*
X30199000Y6502760D01*
X30258604Y6802410D01*
X30375521Y7084674D01*
X30545259Y7338705D01*
X30761295Y7554741D01*
X31015326Y7724479D01*
X31297590Y7841396D01*
X31447415Y7871198D01*
X31597239Y7901000D01*
X31902761Y7901000D01*
X32052585Y7871198D01*
G37*
G36*
X24082585Y8911198D02*
G01*
X24232410Y8881396D01*
X24514674Y8764479D01*
X24768705Y8594741D01*
X24984741Y8378705D01*
X25154479Y8124674D01*
X25271396Y7842410D01*
X25331000Y7542760D01*
X25331000Y7237240D01*
X25271396Y6937590D01*
X25154479Y6655326D01*
X24984741Y6401295D01*
X24768705Y6185259D01*
X24514674Y6015521D01*
X24232410Y5898604D01*
X24082585Y5868802D01*
X23932761Y5839000D01*
X23627239Y5839000D01*
X23477415Y5868802D01*
X23327590Y5898604D01*
X23045326Y6015521D01*
X22791295Y6185259D01*
X22575259Y6401295D01*
X22405521Y6655326D01*
X22288604Y6937590D01*
X22229000Y7237240D01*
X22229000Y7542760D01*
X22288604Y7842410D01*
X22405521Y8124674D01*
X22575259Y8378705D01*
X22791295Y8594741D01*
X23045326Y8764479D01*
X23327590Y8881396D01*
X23477415Y8911198D01*
X23627239Y8941000D01*
X23932761Y8941000D01*
X24082585Y8911198D01*
G37*
G36*
X12082585Y8911198D02*
G01*
X12232410Y8881396D01*
X12514674Y8764479D01*
X12768705Y8594741D01*
X12984741Y8378705D01*
X13154479Y8124674D01*
X13271396Y7842410D01*
X13331000Y7542760D01*
X13331000Y7237240D01*
X13271396Y6937590D01*
X13154479Y6655326D01*
X12984741Y6401295D01*
X12768705Y6185259D01*
X12514674Y6015521D01*
X12232410Y5898604D01*
X12082585Y5868802D01*
X11932761Y5839000D01*
X11627239Y5839000D01*
X11477415Y5868802D01*
X11327590Y5898604D01*
X11045326Y6015521D01*
X10791295Y6185259D01*
X10575259Y6401295D01*
X10405521Y6655326D01*
X10288604Y6937590D01*
X10229000Y7237240D01*
X10229000Y7542760D01*
X10288604Y7842410D01*
X10405521Y8124674D01*
X10575259Y8378705D01*
X10791295Y8594741D01*
X11045326Y8764479D01*
X11327590Y8881396D01*
X11477415Y8911198D01*
X11627239Y8941000D01*
X11932761Y8941000D01*
X12082585Y8911198D01*
G37*
G36*
X21981000Y9599000D02*
G01*
X19879000Y9599000D01*
X19879000Y11201000D01*
X21981000Y11201000D01*
X21981000Y9599000D01*
G37*
G36*
X15681000Y10749000D02*
G01*
X13579000Y10749000D01*
X13579000Y14651000D01*
X15681000Y14651000D01*
X15681000Y10749000D01*
G37*
G36*
X25578062Y13621819D02*
G01*
X25612981Y13611226D01*
X25645163Y13594024D01*
X25673373Y13570873D01*
X25696524Y13542663D01*
X25713726Y13510481D01*
X25724319Y13475562D01*
X25728500Y13433105D01*
X25728500Y11966895D01*
X25724319Y11924438D01*
X25713726Y11889519D01*
X25696524Y11857337D01*
X25673373Y11829127D01*
X25645163Y11805976D01*
X25612981Y11788774D01*
X25578062Y11778181D01*
X25535605Y11774000D01*
X24394395Y11774000D01*
X24351938Y11778181D01*
X24317019Y11788774D01*
X24284837Y11805976D01*
X24256627Y11829127D01*
X24233476Y11857337D01*
X24216274Y11889519D01*
X24205681Y11924438D01*
X24201500Y11966895D01*
X24201500Y13433105D01*
X24205681Y13475562D01*
X24216274Y13510481D01*
X24233476Y13542663D01*
X24256627Y13570873D01*
X24284837Y13594024D01*
X24317019Y13611226D01*
X24351938Y13621819D01*
X24394395Y13626000D01*
X25535605Y13626000D01*
X25578062Y13621819D01*
G37*
G36*
X28553062Y13621819D02*
G01*
X28587981Y13611226D01*
X28620163Y13594024D01*
X28648373Y13570873D01*
X28671524Y13542663D01*
X28688726Y13510481D01*
X28699319Y13475562D01*
X28703500Y13433105D01*
X28703500Y11966895D01*
X28699319Y11924438D01*
X28688726Y11889519D01*
X28671524Y11857337D01*
X28648373Y11829127D01*
X28620163Y11805976D01*
X28587981Y11788774D01*
X28553062Y11778181D01*
X28510605Y11774000D01*
X27369395Y11774000D01*
X27326938Y11778181D01*
X27292019Y11788774D01*
X27259837Y11805976D01*
X27231627Y11829127D01*
X27208476Y11857337D01*
X27191274Y11889519D01*
X27180681Y11924438D01*
X27176500Y11966895D01*
X27176500Y13433105D01*
X27180681Y13475562D01*
X27191274Y13510481D01*
X27208476Y13542663D01*
X27231627Y13570873D01*
X27259837Y13594024D01*
X27292019Y13611226D01*
X27326938Y13621819D01*
X27369395Y13626000D01*
X28510605Y13626000D01*
X28553062Y13621819D01*
G37*
G36*
X21981000Y11899000D02*
G01*
X19879000Y11899000D01*
X19879000Y13501000D01*
X21981000Y13501000D01*
X21981000Y11899000D01*
G37*
G36*
X21981000Y14199000D02*
G01*
X19879000Y14199000D01*
X19879000Y15801000D01*
X21981000Y15801000D01*
X21981000Y14199000D01*
G37*
G36*
X43646564Y17680611D02*
G01*
X43837833Y17601385D01*
X43837835Y17601384D01*
X44009973Y17486365D01*
X44156365Y17339973D01*
X44271385Y17167833D01*
X44350611Y16976564D01*
X44391000Y16773516D01*
X44391000Y16566484D01*
X44350611Y16363436D01*
X44271385Y16172167D01*
X44271384Y16172165D01*
X44156365Y16000027D01*
X44009973Y15853635D01*
X43837835Y15738616D01*
X43837834Y15738615D01*
X43837833Y15738615D01*
X43646564Y15659389D01*
X43443516Y15619000D01*
X43236484Y15619000D01*
X43033436Y15659389D01*
X42842167Y15738615D01*
X42842166Y15738615D01*
X42842165Y15738616D01*
X42670027Y15853635D01*
X42523635Y16000027D01*
X42408616Y16172165D01*
X42408615Y16172167D01*
X42329389Y16363436D01*
X42289000Y16566484D01*
X42289000Y16773516D01*
X42329389Y16976564D01*
X42408615Y17167833D01*
X42523635Y17339973D01*
X42670027Y17486365D01*
X42842165Y17601384D01*
X42842167Y17601385D01*
X43033436Y17680611D01*
X43236484Y17721000D01*
X43443516Y17721000D01*
X43646564Y17680611D01*
G37*
G36*
X63646564Y17680611D02*
G01*
X63837833Y17601385D01*
X63837835Y17601384D01*
X64009973Y17486365D01*
X64156365Y17339973D01*
X64271385Y17167833D01*
X64350611Y16976564D01*
X64391000Y16773516D01*
X64391000Y16566484D01*
X64350611Y16363436D01*
X64271385Y16172167D01*
X64271384Y16172165D01*
X64156365Y16000027D01*
X64009973Y15853635D01*
X63837835Y15738616D01*
X63837834Y15738615D01*
X63837833Y15738615D01*
X63646564Y15659389D01*
X63443516Y15619000D01*
X63236484Y15619000D01*
X63033436Y15659389D01*
X62842167Y15738615D01*
X62842166Y15738615D01*
X62842165Y15738616D01*
X62670027Y15853635D01*
X62523635Y16000027D01*
X62408616Y16172165D01*
X62408615Y16172167D01*
X62329389Y16363436D01*
X62289000Y16566484D01*
X62289000Y16773516D01*
X62329389Y16976564D01*
X62408615Y17167833D01*
X62523635Y17339973D01*
X62670027Y17486365D01*
X62842165Y17601384D01*
X62842167Y17601385D01*
X63033436Y17680611D01*
X63236484Y17721000D01*
X63443516Y17721000D01*
X63646564Y17680611D01*
G37*
G36*
X19931000Y17129000D02*
G01*
X18929000Y17129000D01*
X18929000Y18431000D01*
X19931000Y18431000D01*
X19931000Y17129000D01*
G37*
G36*
X16631000Y17129000D02*
G01*
X15629000Y17129000D01*
X15629000Y18431000D01*
X16631000Y18431000D01*
X16631000Y17129000D01*
G37*
G36*
X12082585Y21111198D02*
G01*
X12232410Y21081396D01*
X12514674Y20964479D01*
X12768705Y20794741D01*
X12984741Y20578705D01*
X13154479Y20324674D01*
X13271396Y20042410D01*
X13331000Y19742760D01*
X13331000Y19437240D01*
X13271396Y19137590D01*
X13154479Y18855326D01*
X12984741Y18601295D01*
X12768705Y18385259D01*
X12514674Y18215521D01*
X12232410Y18098604D01*
X12082585Y18068802D01*
X11932761Y18039000D01*
X11627239Y18039000D01*
X11477415Y18068802D01*
X11327590Y18098604D01*
X11045326Y18215521D01*
X10791295Y18385259D01*
X10575259Y18601295D01*
X10405521Y18855326D01*
X10288604Y19137590D01*
X10229000Y19437240D01*
X10229000Y19742760D01*
X10288604Y20042410D01*
X10405521Y20324674D01*
X10575259Y20578705D01*
X10791295Y20794741D01*
X11045326Y20964479D01*
X11327590Y21081396D01*
X11477415Y21111198D01*
X11627239Y21141000D01*
X11932761Y21141000D01*
X12082585Y21111198D01*
G37*
G36*
X24082585Y21111198D02*
G01*
X24232410Y21081396D01*
X24514674Y20964479D01*
X24768705Y20794741D01*
X24984741Y20578705D01*
X25154479Y20324674D01*
X25271396Y20042410D01*
X25331000Y19742760D01*
X25331000Y19437240D01*
X25271396Y19137590D01*
X25154479Y18855326D01*
X24984741Y18601295D01*
X24768705Y18385259D01*
X24514674Y18215521D01*
X24232410Y18098604D01*
X24082585Y18068802D01*
X23932761Y18039000D01*
X23627239Y18039000D01*
X23477415Y18068802D01*
X23327590Y18098604D01*
X23045326Y18215521D01*
X22791295Y18385259D01*
X22575259Y18601295D01*
X22405521Y18855326D01*
X22288604Y19137590D01*
X22229000Y19437240D01*
X22229000Y19742760D01*
X22288604Y20042410D01*
X22405521Y20324674D01*
X22575259Y20578705D01*
X22791295Y20794741D01*
X23045326Y20964479D01*
X23327590Y21081396D01*
X23477415Y21111198D01*
X23627239Y21141000D01*
X23932761Y21141000D01*
X24082585Y21111198D01*
G37*
G36*
X32551000Y19539000D02*
G01*
X29949000Y19539000D01*
X29949000Y20841000D01*
X32551000Y20841000D01*
X32551000Y19539000D01*
G37*
G36*
X45051000Y19539000D02*
G01*
X42449000Y19539000D01*
X42449000Y20841000D01*
X45051000Y20841000D01*
X45051000Y19539000D01*
G37*
G36*
X18082585Y23111198D02*
G01*
X18232410Y23081396D01*
X18514674Y22964479D01*
X18768705Y22794741D01*
X18984741Y22578705D01*
X19154479Y22324674D01*
X19271396Y22042410D01*
X19331000Y21742760D01*
X19331000Y21437240D01*
X19271396Y21137590D01*
X19154479Y20855326D01*
X18984741Y20601295D01*
X18768705Y20385259D01*
X18514674Y20215521D01*
X18232410Y20098604D01*
X18082585Y20068802D01*
X17932761Y20039000D01*
X17627239Y20039000D01*
X17477415Y20068802D01*
X17327590Y20098604D01*
X17045326Y20215521D01*
X16791295Y20385259D01*
X16575259Y20601295D01*
X16405521Y20855326D01*
X16288604Y21137590D01*
X16229000Y21437240D01*
X16229000Y21742760D01*
X16288604Y22042410D01*
X16405521Y22324674D01*
X16575259Y22578705D01*
X16791295Y22794741D01*
X17045326Y22964479D01*
X17327590Y23081396D01*
X17477415Y23111198D01*
X17627239Y23141000D01*
X17932761Y23141000D01*
X18082585Y23111198D01*
G37*
G36*
X28715562Y23401819D02*
G01*
X28750481Y23391226D01*
X28782663Y23374024D01*
X28810873Y23350873D01*
X28834024Y23322663D01*
X28851226Y23290481D01*
X28861819Y23255562D01*
X28866000Y23213105D01*
X28866000Y22071895D01*
X28861819Y22029438D01*
X28851226Y21994519D01*
X28834024Y21962337D01*
X28810873Y21934127D01*
X28782663Y21910976D01*
X28750481Y21893774D01*
X28715562Y21883181D01*
X28673105Y21879000D01*
X27206895Y21879000D01*
X27164438Y21883181D01*
X27129519Y21893774D01*
X27097337Y21910976D01*
X27069127Y21934127D01*
X27045976Y21962337D01*
X27028774Y21994519D01*
X27018181Y22029438D01*
X27014000Y22071895D01*
X27014000Y23213105D01*
X27018181Y23255562D01*
X27028774Y23290481D01*
X27045976Y23322663D01*
X27069127Y23350873D01*
X27097337Y23374024D01*
X27129519Y23391226D01*
X27164438Y23401819D01*
X27206895Y23406000D01*
X28673105Y23406000D01*
X28715562Y23401819D01*
G37*
G36*
X56691000Y22519000D02*
G01*
X55089000Y22519000D01*
X55089000Y24621000D01*
X56691000Y24621000D01*
X56691000Y22519000D01*
G37*
G36*
X51591000Y22519000D02*
G01*
X49989000Y22519000D01*
X49989000Y24621000D01*
X51591000Y24621000D01*
X51591000Y22519000D01*
G37*
G36*
X28715562Y26376819D02*
G01*
X28750481Y26366226D01*
X28782663Y26349024D01*
X28810873Y26325873D01*
X28834024Y26297663D01*
X28851226Y26265481D01*
X28861819Y26230562D01*
X28866000Y26188105D01*
X28866000Y25046895D01*
X28861819Y25004438D01*
X28851226Y24969519D01*
X28834024Y24937337D01*
X28810873Y24909127D01*
X28782663Y24885976D01*
X28750481Y24868774D01*
X28715562Y24858181D01*
X28673105Y24854000D01*
X27206895Y24854000D01*
X27164438Y24858181D01*
X27129519Y24868774D01*
X27097337Y24885976D01*
X27069127Y24909127D01*
X27045976Y24937337D01*
X27028774Y24969519D01*
X27018181Y25004438D01*
X27014000Y25046895D01*
X27014000Y26188105D01*
X27018181Y26230562D01*
X27028774Y26265481D01*
X27045976Y26297663D01*
X27069127Y26325873D01*
X27097337Y26349024D01*
X27129519Y26366226D01*
X27164438Y26376819D01*
X27206895Y26381000D01*
X28673105Y26381000D01*
X28715562Y26376819D01*
G37*
G36*
X18821000Y25009000D02*
G01*
X17219000Y25009000D01*
X17219000Y27111000D01*
X18821000Y27111000D01*
X18821000Y25009000D01*
G37*
G36*
X21121000Y25009000D02*
G01*
X19519000Y25009000D01*
X19519000Y27111000D01*
X21121000Y27111000D01*
X21121000Y25009000D01*
G37*
G36*
X23421000Y25009000D02*
G01*
X21819000Y25009000D01*
X21819000Y27111000D01*
X23421000Y27111000D01*
X23421000Y25009000D01*
G37*
G36*
X45051000Y27159000D02*
G01*
X42449000Y27159000D01*
X42449000Y28461000D01*
X45051000Y28461000D01*
X45051000Y27159000D01*
G37*
G36*
X32551000Y27159000D02*
G01*
X29949000Y27159000D01*
X29949000Y28461000D01*
X32551000Y28461000D01*
X32551000Y27159000D01*
G37*
G36*
X16015562Y28699319D02*
G01*
X16050481Y28688726D01*
X16082663Y28671524D01*
X16110873Y28648373D01*
X16134024Y28620163D01*
X16151226Y28587981D01*
X16161819Y28553062D01*
X16166000Y28510605D01*
X16166000Y27369395D01*
X16161819Y27326938D01*
X16151226Y27292019D01*
X16134024Y27259837D01*
X16110873Y27231627D01*
X16082663Y27208476D01*
X16050481Y27191274D01*
X16015562Y27180681D01*
X15973105Y27176500D01*
X14506895Y27176500D01*
X14464438Y27180681D01*
X14429519Y27191274D01*
X14397337Y27208476D01*
X14369127Y27231627D01*
X14345976Y27259837D01*
X14328774Y27292019D01*
X14318181Y27326938D01*
X14314000Y27369395D01*
X14314000Y28510605D01*
X14318181Y28553062D01*
X14328774Y28587981D01*
X14345976Y28620163D01*
X14369127Y28648373D01*
X14397337Y28671524D01*
X14429519Y28688726D01*
X14464438Y28699319D01*
X14506895Y28703500D01*
X15973105Y28703500D01*
X16015562Y28699319D01*
G37*
G36*
X16015562Y31674319D02*
G01*
X16050481Y31663726D01*
X16082663Y31646524D01*
X16110873Y31623373D01*
X16134024Y31595163D01*
X16151226Y31562981D01*
X16161819Y31528062D01*
X16166000Y31485605D01*
X16166000Y30344395D01*
X16161819Y30301938D01*
X16151226Y30267019D01*
X16134024Y30234837D01*
X16110873Y30206627D01*
X16082663Y30183476D01*
X16050481Y30166274D01*
X16015562Y30155681D01*
X15973105Y30151500D01*
X14506895Y30151500D01*
X14464438Y30155681D01*
X14429519Y30166274D01*
X14397337Y30183476D01*
X14369127Y30206627D01*
X14345976Y30234837D01*
X14328774Y30267019D01*
X14318181Y30301938D01*
X14314000Y30344395D01*
X14314000Y31485605D01*
X14318181Y31528062D01*
X14328774Y31562981D01*
X14345976Y31595163D01*
X14369127Y31623373D01*
X14397337Y31646524D01*
X14429519Y31663726D01*
X14464438Y31674319D01*
X14506895Y31678500D01*
X15973105Y31678500D01*
X16015562Y31674319D01*
G37*
G36*
X28553062Y32671819D02*
G01*
X28587981Y32661226D01*
X28620163Y32644024D01*
X28648373Y32620873D01*
X28671524Y32592663D01*
X28688726Y32560481D01*
X28699319Y32525562D01*
X28703500Y32483105D01*
X28703500Y31016895D01*
X28699319Y30974438D01*
X28688726Y30939519D01*
X28671524Y30907337D01*
X28648373Y30879127D01*
X28620163Y30855976D01*
X28587981Y30838774D01*
X28553062Y30828181D01*
X28510605Y30824000D01*
X27369395Y30824000D01*
X27326938Y30828181D01*
X27292019Y30838774D01*
X27259837Y30855976D01*
X27231627Y30879127D01*
X27208476Y30907337D01*
X27191274Y30939519D01*
X27180681Y30974438D01*
X27176500Y31016895D01*
X27176500Y32483105D01*
X27180681Y32525562D01*
X27191274Y32560481D01*
X27208476Y32592663D01*
X27231627Y32620873D01*
X27259837Y32644024D01*
X27292019Y32661226D01*
X27326938Y32671819D01*
X27369395Y32676000D01*
X28510605Y32676000D01*
X28553062Y32671819D01*
G37*
G36*
X31528062Y32671819D02*
G01*
X31562981Y32661226D01*
X31595163Y32644024D01*
X31623373Y32620873D01*
X31646524Y32592663D01*
X31663726Y32560481D01*
X31674319Y32525562D01*
X31678500Y32483105D01*
X31678500Y31016895D01*
X31674319Y30974438D01*
X31663726Y30939519D01*
X31646524Y30907337D01*
X31623373Y30879127D01*
X31595163Y30855976D01*
X31562981Y30838774D01*
X31528062Y30828181D01*
X31485605Y30824000D01*
X30344395Y30824000D01*
X30301938Y30828181D01*
X30267019Y30838774D01*
X30234837Y30855976D01*
X30206627Y30879127D01*
X30183476Y30907337D01*
X30166274Y30939519D01*
X30155681Y30974438D01*
X30151500Y31016895D01*
X30151500Y32483105D01*
X30155681Y32525562D01*
X30166274Y32560481D01*
X30183476Y32592663D01*
X30206627Y32620873D01*
X30234837Y32644024D01*
X30267019Y32661226D01*
X30301938Y32671819D01*
X30344395Y32676000D01*
X31485605Y32676000D01*
X31528062Y32671819D01*
G37*
G36*
X51591000Y31259000D02*
G01*
X49989000Y31259000D01*
X49989000Y33361000D01*
X51591000Y33361000D01*
X51591000Y31259000D01*
G37*
G36*
X56691000Y31259000D02*
G01*
X55089000Y31259000D01*
X55089000Y33361000D01*
X56691000Y33361000D01*
X56691000Y31259000D01*
G37*
G36*
X22271000Y31309000D02*
G01*
X18369000Y31309000D01*
X18369000Y33411000D01*
X22271000Y33411000D01*
X22271000Y31309000D01*
G37*
G36*
X48646564Y37680611D02*
G01*
X48837833Y37601385D01*
X48837835Y37601384D01*
X49009973Y37486365D01*
X49156365Y37339973D01*
X49271385Y37167833D01*
X49350611Y36976564D01*
X49391000Y36773516D01*
X49391000Y36566484D01*
X49350611Y36363436D01*
X49271385Y36172167D01*
X49271384Y36172165D01*
X49156365Y36000027D01*
X49009973Y35853635D01*
X48837835Y35738616D01*
X48837834Y35738615D01*
X48837833Y35738615D01*
X48646564Y35659389D01*
X48443516Y35619000D01*
X48236484Y35619000D01*
X48033436Y35659389D01*
X47842167Y35738615D01*
X47842166Y35738615D01*
X47842165Y35738616D01*
X47670027Y35853635D01*
X47523635Y36000027D01*
X47408616Y36172165D01*
X47408615Y36172167D01*
X47329389Y36363436D01*
X47289000Y36566484D01*
X47289000Y36773516D01*
X47329389Y36976564D01*
X47408615Y37167833D01*
X47523635Y37339973D01*
X47670027Y37486365D01*
X47842165Y37601384D01*
X47842167Y37601385D01*
X48033436Y37680611D01*
X48236484Y37721000D01*
X48443516Y37721000D01*
X48646564Y37680611D01*
G37*
G36*
X58646564Y37680611D02*
G01*
X58837833Y37601385D01*
X58837835Y37601384D01*
X59009973Y37486365D01*
X59156365Y37339973D01*
X59271385Y37167833D01*
X59350611Y36976564D01*
X59391000Y36773516D01*
X59391000Y36566484D01*
X59350611Y36363436D01*
X59271385Y36172167D01*
X59271384Y36172165D01*
X59156365Y36000027D01*
X59009973Y35853635D01*
X58837835Y35738616D01*
X58837834Y35738615D01*
X58837833Y35738615D01*
X58646564Y35659389D01*
X58443516Y35619000D01*
X58236484Y35619000D01*
X58033436Y35659389D01*
X57842167Y35738615D01*
X57842166Y35738615D01*
X57842165Y35738616D01*
X57670027Y35853635D01*
X57523635Y36000027D01*
X57408616Y36172165D01*
X57408615Y36172167D01*
X57329389Y36363436D01*
X57289000Y36566484D01*
X57289000Y36773516D01*
X57329389Y36976564D01*
X57408615Y37167833D01*
X57523635Y37339973D01*
X57670027Y37486365D01*
X57842165Y37601384D01*
X57842167Y37601385D01*
X58033436Y37680611D01*
X58236484Y37721000D01*
X58443516Y37721000D01*
X58646564Y37680611D01*
G37*
G36*
X45051000Y43539000D02*
G01*
X42449000Y43539000D01*
X42449000Y44841000D01*
X45051000Y44841000D01*
X45051000Y43539000D01*
G37*
G36*
X32551000Y43539000D02*
G01*
X29949000Y43539000D01*
X29949000Y44841000D01*
X32551000Y44841000D01*
X32551000Y43539000D01*
G37*
G36*
X45051000Y51159000D02*
G01*
X42449000Y51159000D01*
X42449000Y52461000D01*
X45051000Y52461000D01*
X45051000Y51159000D01*
G37*
G36*
X32551000Y51159000D02*
G01*
X29949000Y51159000D01*
X29949000Y52461000D01*
X32551000Y52461000D01*
X32551000Y51159000D01*
G37*
G36*
X65671000Y52439000D02*
G01*
X63869000Y52439000D01*
X63869000Y54241000D01*
X65671000Y54241000D01*
X65671000Y52439000D01*
G37*
G36*
X64883512Y56776073D02*
G01*
X65032812Y56746376D01*
X65196784Y56678456D01*
X65344354Y56579853D01*
X65469853Y56454354D01*
X65568456Y56306784D01*
X65636376Y56142812D01*
X65671000Y55968741D01*
X65671000Y55791259D01*
X65636376Y55617188D01*
X65568456Y55453216D01*
X65469853Y55305646D01*
X65344354Y55180147D01*
X65196784Y55081544D01*
X65032812Y55013624D01*
X64883512Y54983927D01*
X64858742Y54979000D01*
X64681258Y54979000D01*
X64656488Y54983927D01*
X64507188Y55013624D01*
X64343216Y55081544D01*
X64195646Y55180147D01*
X64070147Y55305646D01*
X63971544Y55453216D01*
X63903624Y55617188D01*
X63869000Y55791259D01*
X63869000Y55968741D01*
X63903624Y56142812D01*
X63971544Y56306784D01*
X64070147Y56454354D01*
X64195646Y56579853D01*
X64343216Y56678456D01*
X64507188Y56746376D01*
X64656488Y56776073D01*
X64681258Y56781000D01*
X64858742Y56781000D01*
X64883512Y56776073D01*
G37*
G36*
X57051000Y55539000D02*
G01*
X54449000Y55539000D01*
X54449000Y56841000D01*
X57051000Y56841000D01*
X57051000Y55539000D01*
G37*
G36*
X33051000Y55539000D02*
G01*
X30449000Y55539000D01*
X30449000Y56841000D01*
X33051000Y56841000D01*
X33051000Y55539000D01*
G37*
G36*
X20551000Y55539000D02*
G01*
X17949000Y55539000D01*
X17949000Y56841000D01*
X20551000Y56841000D01*
X20551000Y55539000D01*
G37*
G36*
X44551000Y55539000D02*
G01*
X41949000Y55539000D01*
X41949000Y56841000D01*
X44551000Y56841000D01*
X44551000Y55539000D01*
G37*
G36*
X9156778Y58029453D02*
G01*
X9323224Y57960509D01*
X9473022Y57860417D01*
X9600417Y57733022D01*
X9700509Y57583224D01*
X9769453Y57416778D01*
X9804600Y57240082D01*
X9804600Y57059918D01*
X9769453Y56883222D01*
X9700509Y56716776D01*
X9600417Y56566978D01*
X9473022Y56439583D01*
X9323224Y56339491D01*
X9156778Y56270547D01*
X8980082Y56235400D01*
X8799918Y56235400D01*
X8623222Y56270547D01*
X8456776Y56339491D01*
X8306978Y56439583D01*
X8179583Y56566978D01*
X8079491Y56716776D01*
X8010547Y56883222D01*
X7975400Y57059918D01*
X7975400Y57240082D01*
X8010547Y57416778D01*
X8079491Y57583224D01*
X8179583Y57733022D01*
X8306978Y57860417D01*
X8456776Y57960509D01*
X8623222Y58029453D01*
X8799918Y58064600D01*
X8980082Y58064600D01*
X9156778Y58029453D01*
G37*
G36*
X11696778Y58029453D02*
G01*
X11863224Y57960509D01*
X12013022Y57860417D01*
X12140417Y57733022D01*
X12240509Y57583224D01*
X12309453Y57416778D01*
X12344600Y57240082D01*
X12344600Y57059918D01*
X12309453Y56883222D01*
X12240509Y56716776D01*
X12140417Y56566978D01*
X12013022Y56439583D01*
X11863224Y56339491D01*
X11696778Y56270547D01*
X11520082Y56235400D01*
X11339918Y56235400D01*
X11163222Y56270547D01*
X10996776Y56339491D01*
X10846978Y56439583D01*
X10719583Y56566978D01*
X10619491Y56716776D01*
X10550547Y56883222D01*
X10515400Y57059918D01*
X10515400Y57240082D01*
X10550547Y57416778D01*
X10619491Y57583224D01*
X10719583Y57733022D01*
X10846978Y57860417D01*
X10996776Y57960509D01*
X11163222Y58029453D01*
X11339918Y58064600D01*
X11520082Y58064600D01*
X11696778Y58029453D01*
G37*
G36*
X64883512Y59316073D02*
G01*
X65032812Y59286376D01*
X65196784Y59218456D01*
X65344354Y59119853D01*
X65469853Y58994354D01*
X65568456Y58846784D01*
X65636376Y58682812D01*
X65671000Y58508741D01*
X65671000Y58331259D01*
X65636376Y58157188D01*
X65568456Y57993216D01*
X65469853Y57845646D01*
X65344354Y57720147D01*
X65196784Y57621544D01*
X65032812Y57553624D01*
X64883512Y57523927D01*
X64858742Y57519000D01*
X64681258Y57519000D01*
X64656488Y57523927D01*
X64507188Y57553624D01*
X64343216Y57621544D01*
X64195646Y57720147D01*
X64070147Y57845646D01*
X63971544Y57993216D01*
X63903624Y58157188D01*
X63869000Y58331259D01*
X63869000Y58508741D01*
X63903624Y58682812D01*
X63971544Y58846784D01*
X64070147Y58994354D01*
X64195646Y59119853D01*
X64343216Y59218456D01*
X64507188Y59286376D01*
X64656488Y59316073D01*
X64681258Y59321000D01*
X64858742Y59321000D01*
X64883512Y59316073D01*
G37*
G36*
X11696778Y60569453D02*
G01*
X11863224Y60500509D01*
X12013022Y60400417D01*
X12140417Y60273022D01*
X12240509Y60123224D01*
X12309453Y59956778D01*
X12344600Y59780082D01*
X12344600Y59599918D01*
X12309453Y59423222D01*
X12240509Y59256776D01*
X12140417Y59106978D01*
X12013022Y58979583D01*
X11863224Y58879491D01*
X11696778Y58810547D01*
X11520082Y58775400D01*
X11339918Y58775400D01*
X11163222Y58810547D01*
X10996776Y58879491D01*
X10846978Y58979583D01*
X10719583Y59106978D01*
X10619491Y59256776D01*
X10550547Y59423222D01*
X10515400Y59599918D01*
X10515400Y59780082D01*
X10550547Y59956778D01*
X10619491Y60123224D01*
X10719583Y60273022D01*
X10846978Y60400417D01*
X10996776Y60500509D01*
X11163222Y60569453D01*
X11339918Y60604600D01*
X11520082Y60604600D01*
X11696778Y60569453D01*
G37*
G36*
X9156778Y60569453D02*
G01*
X9323224Y60500509D01*
X9473022Y60400417D01*
X9600417Y60273022D01*
X9700509Y60123224D01*
X9769453Y59956778D01*
X9804600Y59780082D01*
X9804600Y59599918D01*
X9769453Y59423222D01*
X9700509Y59256776D01*
X9600417Y59106978D01*
X9473022Y58979583D01*
X9323224Y58879491D01*
X9156778Y58810547D01*
X8980082Y58775400D01*
X8799918Y58775400D01*
X8623222Y58810547D01*
X8456776Y58879491D01*
X8306978Y58979583D01*
X8179583Y59106978D01*
X8079491Y59256776D01*
X8010547Y59423222D01*
X7975400Y59599918D01*
X7975400Y59780082D01*
X8010547Y59956778D01*
X8079491Y60123224D01*
X8179583Y60273022D01*
X8306978Y60400417D01*
X8456776Y60500509D01*
X8623222Y60569453D01*
X8799918Y60604600D01*
X8980082Y60604600D01*
X9156778Y60569453D01*
G37*
G36*
X64883512Y61856073D02*
G01*
X65032812Y61826376D01*
X65196784Y61758456D01*
X65344354Y61659853D01*
X65469853Y61534354D01*
X65568456Y61386784D01*
X65636376Y61222812D01*
X65671000Y61048741D01*
X65671000Y60871259D01*
X65636376Y60697188D01*
X65568456Y60533216D01*
X65469853Y60385646D01*
X65344354Y60260147D01*
X65196784Y60161544D01*
X65032812Y60093624D01*
X64883512Y60063927D01*
X64858742Y60059000D01*
X64681258Y60059000D01*
X64656488Y60063927D01*
X64507188Y60093624D01*
X64343216Y60161544D01*
X64195646Y60260147D01*
X64070147Y60385646D01*
X63971544Y60533216D01*
X63903624Y60697188D01*
X63869000Y60871259D01*
X63869000Y61048741D01*
X63903624Y61222812D01*
X63971544Y61386784D01*
X64070147Y61534354D01*
X64195646Y61659853D01*
X64343216Y61758456D01*
X64507188Y61826376D01*
X64656488Y61856073D01*
X64681258Y61861000D01*
X64858742Y61861000D01*
X64883512Y61856073D01*
G37*
G36*
X9156778Y63109453D02*
G01*
X9323224Y63040509D01*
X9473022Y62940417D01*
X9600417Y62813022D01*
X9700509Y62663224D01*
X9769453Y62496778D01*
X9804600Y62320082D01*
X9804600Y62139918D01*
X9769453Y61963222D01*
X9700509Y61796776D01*
X9600417Y61646978D01*
X9473022Y61519583D01*
X9323224Y61419491D01*
X9156778Y61350547D01*
X8980082Y61315400D01*
X8799918Y61315400D01*
X8623222Y61350547D01*
X8456776Y61419491D01*
X8306978Y61519583D01*
X8179583Y61646978D01*
X8079491Y61796776D01*
X8010547Y61963222D01*
X7975400Y62139918D01*
X7975400Y62320082D01*
X8010547Y62496778D01*
X8079491Y62663224D01*
X8179583Y62813022D01*
X8306978Y62940417D01*
X8456776Y63040509D01*
X8623222Y63109453D01*
X8799918Y63144600D01*
X8980082Y63144600D01*
X9156778Y63109453D01*
G37*
G36*
X12344600Y61315400D02*
G01*
X10515400Y61315400D01*
X10515400Y63144600D01*
X12344600Y63144600D01*
X12344600Y61315400D01*
G37*
G36*
X64883512Y64396073D02*
G01*
X65032812Y64366376D01*
X65196784Y64298456D01*
X65344354Y64199853D01*
X65469853Y64074354D01*
X65568456Y63926784D01*
X65636376Y63762812D01*
X65671000Y63588741D01*
X65671000Y63411259D01*
X65636376Y63237188D01*
X65568456Y63073216D01*
X65469853Y62925646D01*
X65344354Y62800147D01*
X65196784Y62701544D01*
X65032812Y62633624D01*
X64883512Y62603927D01*
X64858742Y62599000D01*
X64681258Y62599000D01*
X64656488Y62603927D01*
X64507188Y62633624D01*
X64343216Y62701544D01*
X64195646Y62800147D01*
X64070147Y62925646D01*
X63971544Y63073216D01*
X63903624Y63237188D01*
X63869000Y63411259D01*
X63869000Y63588741D01*
X63903624Y63762812D01*
X63971544Y63926784D01*
X64070147Y64074354D01*
X64195646Y64199853D01*
X64343216Y64298456D01*
X64507188Y64366376D01*
X64656488Y64396073D01*
X64681258Y64401000D01*
X64858742Y64401000D01*
X64883512Y64396073D01*
G37*
G36*
X44551000Y63159000D02*
G01*
X41949000Y63159000D01*
X41949000Y64461000D01*
X44551000Y64461000D01*
X44551000Y63159000D01*
G37*
G36*
X20551000Y63159000D02*
G01*
X17949000Y63159000D01*
X17949000Y64461000D01*
X20551000Y64461000D01*
X20551000Y63159000D01*
G37*
G36*
X57051000Y63159000D02*
G01*
X54449000Y63159000D01*
X54449000Y64461000D01*
X57051000Y64461000D01*
X57051000Y63159000D01*
G37*
G36*
X33051000Y63159000D02*
G01*
X30449000Y63159000D01*
X30449000Y64461000D01*
X33051000Y64461000D01*
X33051000Y63159000D01*
G37*
G36*
X64883512Y66936073D02*
G01*
X65032812Y66906376D01*
X65196784Y66838456D01*
X65344354Y66739853D01*
X65469853Y66614354D01*
X65568456Y66466784D01*
X65636376Y66302812D01*
X65671000Y66128741D01*
X65671000Y65951259D01*
X65636376Y65777188D01*
X65568456Y65613216D01*
X65469853Y65465646D01*
X65344354Y65340147D01*
X65196784Y65241544D01*
X65032812Y65173624D01*
X64883512Y65143927D01*
X64858742Y65139000D01*
X64681258Y65139000D01*
X64656488Y65143927D01*
X64507188Y65173624D01*
X64343216Y65241544D01*
X64195646Y65340147D01*
X64070147Y65465646D01*
X63971544Y65613216D01*
X63903624Y65777188D01*
X63869000Y65951259D01*
X63869000Y66128741D01*
X63903624Y66302812D01*
X63971544Y66466784D01*
X64070147Y66614354D01*
X64195646Y66739853D01*
X64343216Y66838456D01*
X64507188Y66906376D01*
X64656488Y66936073D01*
X64681258Y66941000D01*
X64858742Y66941000D01*
X64883512Y66936073D01*
G37*
G36*
X45051000Y67539000D02*
G01*
X42449000Y67539000D01*
X42449000Y68841000D01*
X45051000Y68841000D01*
X45051000Y67539000D01*
G37*
G36*
X32551000Y67539000D02*
G01*
X29949000Y67539000D01*
X29949000Y68841000D01*
X32551000Y68841000D01*
X32551000Y67539000D01*
G37*
G36*
X45051000Y75159000D02*
G01*
X42449000Y75159000D01*
X42449000Y76461000D01*
X45051000Y76461000D01*
X45051000Y75159000D01*
G37*
G36*
X32551000Y75159000D02*
G01*
X29949000Y75159000D01*
X29949000Y76461000D01*
X32551000Y76461000D01*
X32551000Y75159000D01*
G37*
G36*
X14556000Y78719000D02*
G01*
X8304000Y78719000D01*
X8304000Y80421000D01*
X14556000Y80421000D01*
X14556000Y78719000D01*
G37*
G36*
X23897985Y83816140D02*
G01*
X24010748Y83793710D01*
X24125930Y83746000D01*
X24329408Y83661717D01*
X24616196Y83470091D01*
X24860091Y83226196D01*
X25051717Y82939408D01*
X25183710Y82620747D01*
X25251000Y82282460D01*
X25251000Y81937540D01*
X25183710Y81599253D01*
X25051717Y81280592D01*
X24860091Y80993804D01*
X24616196Y80749909D01*
X24329408Y80558283D01*
X24142741Y80480963D01*
X24010748Y80426290D01*
X23984153Y80421000D01*
X23672460Y80359000D01*
X23327540Y80359000D01*
X23015847Y80421000D01*
X22989252Y80426290D01*
X22857259Y80480963D01*
X22670592Y80558283D01*
X22383804Y80749909D01*
X22139909Y80993804D01*
X21948283Y81280592D01*
X21816290Y81599253D01*
X21749000Y81937540D01*
X21749000Y82282460D01*
X21816290Y82620747D01*
X21948283Y82939408D01*
X22139909Y83226196D01*
X22383804Y83470091D01*
X22670592Y83661717D01*
X22874070Y83746000D01*
X22989252Y83793710D01*
X23102015Y83816140D01*
X23327540Y83861000D01*
X23672460Y83861000D01*
X23897985Y83816140D01*
G37*
G36*
X51897985Y83816140D02*
G01*
X52010748Y83793710D01*
X52125930Y83746000D01*
X52329408Y83661717D01*
X52616196Y83470091D01*
X52860091Y83226196D01*
X53051717Y82939408D01*
X53183710Y82620747D01*
X53251000Y82282460D01*
X53251000Y81937540D01*
X53183710Y81599253D01*
X53051717Y81280592D01*
X52860091Y80993804D01*
X52616196Y80749909D01*
X52329408Y80558283D01*
X52142741Y80480963D01*
X52010748Y80426290D01*
X51984153Y80421000D01*
X51672460Y80359000D01*
X51327540Y80359000D01*
X51015847Y80421000D01*
X50989252Y80426290D01*
X50857259Y80480963D01*
X50670592Y80558283D01*
X50383804Y80749909D01*
X50139909Y80993804D01*
X49948283Y81280592D01*
X49816290Y81599253D01*
X49749000Y81937540D01*
X49749000Y82282460D01*
X49816290Y82620747D01*
X49948283Y82939408D01*
X50139909Y83226196D01*
X50383804Y83470091D01*
X50670592Y83661717D01*
X50874070Y83746000D01*
X50989252Y83793710D01*
X51102015Y83816140D01*
X51327540Y83861000D01*
X51672460Y83861000D01*
X51897985Y83816140D01*
G37*
G36*
X16531000Y80694000D02*
G01*
X14829000Y80694000D01*
X14829000Y86946000D01*
X16531000Y86946000D01*
X16531000Y80694000D01*
G37*
G36*
X8031000Y80694000D02*
G01*
X6329000Y80694000D01*
X6329000Y86946000D01*
X8031000Y86946000D01*
X8031000Y80694000D01*
G37*
G36*
X60351000Y82139000D02*
G01*
X58699000Y82139000D01*
X58699000Y83541000D01*
X60351000Y83541000D01*
X60351000Y82139000D01*
G37*
G36*
X68301000Y82139000D02*
G01*
X66649000Y82139000D01*
X66649000Y83541000D01*
X68301000Y83541000D01*
X68301000Y82139000D01*
G37*
G36*
X68301000Y86639000D02*
G01*
X66649000Y86639000D01*
X66649000Y88041000D01*
X68301000Y88041000D01*
X68301000Y86639000D01*
G37*
G36*
X60351000Y86639000D02*
G01*
X58699000Y86639000D01*
X58699000Y88041000D01*
X60351000Y88041000D01*
X60351000Y86639000D01*
G37*
G36*
X14556000Y87219000D02*
G01*
X8304000Y87219000D01*
X8304000Y88921000D01*
X14556000Y88921000D01*
X14556000Y87219000D01*
G37*
G36*
X8395562Y93034319D02*
G01*
X8430481Y93023726D01*
X8462663Y93006524D01*
X8490873Y92983373D01*
X8514024Y92955163D01*
X8531226Y92922981D01*
X8541819Y92888062D01*
X8546000Y92845605D01*
X8546000Y91704395D01*
X8541819Y91661938D01*
X8531226Y91627019D01*
X8514024Y91594837D01*
X8490873Y91566627D01*
X8462663Y91543476D01*
X8430481Y91526274D01*
X8395562Y91515681D01*
X8353105Y91511500D01*
X6886895Y91511500D01*
X6844438Y91515681D01*
X6809519Y91526274D01*
X6777337Y91543476D01*
X6749127Y91566627D01*
X6725976Y91594837D01*
X6708774Y91627019D01*
X6698181Y91661938D01*
X6694000Y91704395D01*
X6694000Y92845605D01*
X6698181Y92888062D01*
X6708774Y92922981D01*
X6725976Y92955163D01*
X6749127Y92983373D01*
X6777337Y93006524D01*
X6809519Y93023726D01*
X6844438Y93034319D01*
X6886895Y93038500D01*
X8353105Y93038500D01*
X8395562Y93034319D01*
G37*
G36*
X18555562Y93034319D02*
G01*
X18590481Y93023726D01*
X18622663Y93006524D01*
X18650873Y92983373D01*
X18674024Y92955163D01*
X18691226Y92922981D01*
X18701819Y92888062D01*
X18706000Y92845605D01*
X18706000Y91704395D01*
X18701819Y91661938D01*
X18691226Y91627019D01*
X18674024Y91594837D01*
X18650873Y91566627D01*
X18622663Y91543476D01*
X18590481Y91526274D01*
X18555562Y91515681D01*
X18513105Y91511500D01*
X17046895Y91511500D01*
X17004438Y91515681D01*
X16969519Y91526274D01*
X16937337Y91543476D01*
X16909127Y91566627D01*
X16885976Y91594837D01*
X16868774Y91627019D01*
X16858181Y91661938D01*
X16854000Y91704395D01*
X16854000Y92845605D01*
X16858181Y92888062D01*
X16868774Y92922981D01*
X16885976Y92955163D01*
X16909127Y92983373D01*
X16937337Y93006524D01*
X16969519Y93023726D01*
X17004438Y93034319D01*
X17046895Y93038500D01*
X18513105Y93038500D01*
X18555562Y93034319D01*
G37*
G36*
X62408062Y93631819D02*
G01*
X62442981Y93621226D01*
X62475163Y93604024D01*
X62503373Y93580873D01*
X62526524Y93552663D01*
X62543726Y93520481D01*
X62554319Y93485562D01*
X62558500Y93443105D01*
X62558500Y91976895D01*
X62554319Y91934438D01*
X62543726Y91899519D01*
X62526524Y91867337D01*
X62503373Y91839127D01*
X62475163Y91815976D01*
X62442981Y91798774D01*
X62408062Y91788181D01*
X62365605Y91784000D01*
X61224395Y91784000D01*
X61181938Y91788181D01*
X61147019Y91798774D01*
X61114837Y91815976D01*
X61086627Y91839127D01*
X61063476Y91867337D01*
X61046274Y91899519D01*
X61035681Y91934438D01*
X61031500Y91976895D01*
X61031500Y93443105D01*
X61035681Y93485562D01*
X61046274Y93520481D01*
X61063476Y93552663D01*
X61086627Y93580873D01*
X61114837Y93604024D01*
X61147019Y93621226D01*
X61181938Y93631819D01*
X61224395Y93636000D01*
X62365605Y93636000D01*
X62408062Y93631819D01*
G37*
G36*
X65383062Y93631819D02*
G01*
X65417981Y93621226D01*
X65450163Y93604024D01*
X65478373Y93580873D01*
X65501524Y93552663D01*
X65518726Y93520481D01*
X65529319Y93485562D01*
X65533500Y93443105D01*
X65533500Y91976895D01*
X65529319Y91934438D01*
X65518726Y91899519D01*
X65501524Y91867337D01*
X65478373Y91839127D01*
X65450163Y91815976D01*
X65417981Y91798774D01*
X65383062Y91788181D01*
X65340605Y91784000D01*
X64199395Y91784000D01*
X64156938Y91788181D01*
X64122019Y91798774D01*
X64089837Y91815976D01*
X64061627Y91839127D01*
X64038476Y91867337D01*
X64021274Y91899519D01*
X64010681Y91934438D01*
X64006500Y91976895D01*
X64006500Y93443105D01*
X64010681Y93485562D01*
X64021274Y93520481D01*
X64038476Y93552663D01*
X64061627Y93580873D01*
X64089837Y93604024D01*
X64122019Y93621226D01*
X64156938Y93631819D01*
X64199395Y93636000D01*
X65340605Y93636000D01*
X65383062Y93631819D01*
G37*
G36*
X12101000Y91799000D02*
G01*
X10099000Y91799000D01*
X10099000Y93201000D01*
X12101000Y93201000D01*
X12101000Y91799000D01*
G37*
G36*
X15301000Y91799000D02*
G01*
X13299000Y91799000D01*
X13299000Y93201000D01*
X15301000Y93201000D01*
X15301000Y91799000D01*
G37*
G36*
X18555562Y96009319D02*
G01*
X18590481Y95998726D01*
X18622663Y95981524D01*
X18650873Y95958373D01*
X18674024Y95930163D01*
X18691226Y95897981D01*
X18701819Y95863062D01*
X18706000Y95820605D01*
X18706000Y94679395D01*
X18701819Y94636938D01*
X18691226Y94602019D01*
X18674024Y94569837D01*
X18650873Y94541627D01*
X18622663Y94518476D01*
X18590481Y94501274D01*
X18555562Y94490681D01*
X18513105Y94486500D01*
X17046895Y94486500D01*
X17004438Y94490681D01*
X16969519Y94501274D01*
X16937337Y94518476D01*
X16909127Y94541627D01*
X16885976Y94569837D01*
X16868774Y94602019D01*
X16858181Y94636938D01*
X16854000Y94679395D01*
X16854000Y95820605D01*
X16858181Y95863062D01*
X16868774Y95897981D01*
X16885976Y95930163D01*
X16909127Y95958373D01*
X16937337Y95981524D01*
X16969519Y95998726D01*
X17004438Y96009319D01*
X17046895Y96013500D01*
X18513105Y96013500D01*
X18555562Y96009319D01*
G37*
G36*
X8395562Y96009319D02*
G01*
X8430481Y95998726D01*
X8462663Y95981524D01*
X8490873Y95958373D01*
X8514024Y95930163D01*
X8531226Y95897981D01*
X8541819Y95863062D01*
X8546000Y95820605D01*
X8546000Y94679395D01*
X8541819Y94636938D01*
X8531226Y94602019D01*
X8514024Y94569837D01*
X8490873Y94541627D01*
X8462663Y94518476D01*
X8430481Y94501274D01*
X8395562Y94490681D01*
X8353105Y94486500D01*
X6886895Y94486500D01*
X6844438Y94490681D01*
X6809519Y94501274D01*
X6777337Y94518476D01*
X6749127Y94541627D01*
X6725976Y94569837D01*
X6708774Y94602019D01*
X6698181Y94636938D01*
X6694000Y94679395D01*
X6694000Y95820605D01*
X6698181Y95863062D01*
X6708774Y95897981D01*
X6725976Y95930163D01*
X6749127Y95958373D01*
X6777337Y95981524D01*
X6809519Y95998726D01*
X6844438Y96009319D01*
X6886895Y96013500D01*
X8353105Y96013500D01*
X8395562Y96009319D01*
G37*
G36*
X12101000Y97299000D02*
G01*
X10099000Y97299000D01*
X10099000Y98701000D01*
X12101000Y98701000D01*
X12101000Y97299000D01*
G37*
G36*
X15301000Y97299000D02*
G01*
X13299000Y97299000D01*
X13299000Y98701000D01*
X15301000Y98701000D01*
X15301000Y97299000D01*
G37*
G36*
X51895848Y110816565D02*
G01*
X52010748Y110793710D01*
X52142741Y110739037D01*
X52329408Y110661717D01*
X52616196Y110470091D01*
X52860091Y110226196D01*
X53051717Y109939408D01*
X53101166Y109820027D01*
X53183710Y109620748D01*
X53192091Y109578615D01*
X53251000Y109282460D01*
X53251000Y108937540D01*
X53183710Y108599253D01*
X53051717Y108280592D01*
X52860091Y107993804D01*
X52616196Y107749909D01*
X52329408Y107558283D01*
X52142741Y107480963D01*
X52010748Y107426290D01*
X51897985Y107403860D01*
X51672460Y107359000D01*
X51327540Y107359000D01*
X51102015Y107403860D01*
X50989252Y107426290D01*
X50857259Y107480963D01*
X50670592Y107558283D01*
X50383804Y107749909D01*
X50139909Y107993804D01*
X49948283Y108280592D01*
X49816290Y108599253D01*
X49749000Y108937540D01*
X49749000Y109282460D01*
X49807909Y109578615D01*
X49816290Y109620748D01*
X49898834Y109820027D01*
X49948283Y109939408D01*
X50139909Y110226196D01*
X50383804Y110470091D01*
X50670592Y110661717D01*
X50857259Y110739037D01*
X50989252Y110793710D01*
X51104152Y110816565D01*
X51327540Y110861000D01*
X51672460Y110861000D01*
X51895848Y110816565D01*
G37*
G36*
X23895848Y110816565D02*
G01*
X24010748Y110793710D01*
X24142741Y110739037D01*
X24329408Y110661717D01*
X24616196Y110470091D01*
X24860091Y110226196D01*
X25051717Y109939408D01*
X25101166Y109820027D01*
X25183710Y109620748D01*
X25192091Y109578615D01*
X25251000Y109282460D01*
X25251000Y108937540D01*
X25183710Y108599253D01*
X25051717Y108280592D01*
X24860091Y107993804D01*
X24616196Y107749909D01*
X24329408Y107558283D01*
X24142741Y107480963D01*
X24010748Y107426290D01*
X23897985Y107403860D01*
X23672460Y107359000D01*
X23327540Y107359000D01*
X23102015Y107403860D01*
X22989252Y107426290D01*
X22857259Y107480963D01*
X22670592Y107558283D01*
X22383804Y107749909D01*
X22139909Y107993804D01*
X21948283Y108280592D01*
X21816290Y108599253D01*
X21749000Y108937540D01*
X21749000Y109282460D01*
X21807909Y109578615D01*
X21816290Y109620748D01*
X21898834Y109820027D01*
X21948283Y109939408D01*
X22139909Y110226196D01*
X22383804Y110470091D01*
X22670592Y110661717D01*
X22857259Y110739037D01*
X22989252Y110793710D01*
X23104152Y110816565D01*
X23327540Y110861000D01*
X23672460Y110861000D01*
X23895848Y110816565D01*
G37*
G36*
X41616564Y111500611D02*
G01*
X41807833Y111421385D01*
X41807835Y111421384D01*
X41979973Y111306365D01*
X42126365Y111159973D01*
X42228022Y111007833D01*
X42241385Y110987833D01*
X42320611Y110796564D01*
X42361000Y110593516D01*
X42361000Y110386484D01*
X42320611Y110183436D01*
X42249669Y110012167D01*
X42241384Y109992165D01*
X42126365Y109820027D01*
X41979973Y109673635D01*
X41807835Y109558616D01*
X41807834Y109558615D01*
X41807833Y109558615D01*
X41616564Y109479389D01*
X41413516Y109439000D01*
X41206484Y109439000D01*
X41003436Y109479389D01*
X40812167Y109558615D01*
X40812166Y109558615D01*
X40812165Y109558616D01*
X40640027Y109673635D01*
X40493635Y109820027D01*
X40378616Y109992165D01*
X40370331Y110012167D01*
X40299389Y110183436D01*
X40259000Y110386484D01*
X40259000Y110593516D01*
X40299389Y110796564D01*
X40378615Y110987833D01*
X40391979Y111007833D01*
X40493635Y111159973D01*
X40640027Y111306365D01*
X40812165Y111421384D01*
X40812167Y111421385D01*
X41003436Y111500611D01*
X41206484Y111541000D01*
X41413516Y111541000D01*
X41616564Y111500611D01*
G37*
G36*
X39076564Y111500611D02*
G01*
X39267833Y111421385D01*
X39267835Y111421384D01*
X39439973Y111306365D01*
X39586365Y111159973D01*
X39688022Y111007833D01*
X39701385Y110987833D01*
X39780611Y110796564D01*
X39821000Y110593516D01*
X39821000Y110386484D01*
X39780611Y110183436D01*
X39709669Y110012167D01*
X39701384Y109992165D01*
X39586365Y109820027D01*
X39439973Y109673635D01*
X39267835Y109558616D01*
X39267834Y109558615D01*
X39267833Y109558615D01*
X39076564Y109479389D01*
X38873516Y109439000D01*
X38666484Y109439000D01*
X38463436Y109479389D01*
X38272167Y109558615D01*
X38272166Y109558615D01*
X38272165Y109558616D01*
X38100027Y109673635D01*
X37953635Y109820027D01*
X37838616Y109992165D01*
X37830331Y110012167D01*
X37759389Y110183436D01*
X37719000Y110386484D01*
X37719000Y110593516D01*
X37759389Y110796564D01*
X37838615Y110987833D01*
X37851979Y111007833D01*
X37953635Y111159973D01*
X38100027Y111306365D01*
X38272165Y111421384D01*
X38272167Y111421385D01*
X38463436Y111500611D01*
X38666484Y111541000D01*
X38873516Y111541000D01*
X39076564Y111500611D01*
G37*
G36*
X36536564Y111500611D02*
G01*
X36727833Y111421385D01*
X36727835Y111421384D01*
X36899973Y111306365D01*
X37046365Y111159973D01*
X37148022Y111007833D01*
X37161385Y110987833D01*
X37240611Y110796564D01*
X37281000Y110593516D01*
X37281000Y110386484D01*
X37240611Y110183436D01*
X37169669Y110012167D01*
X37161384Y109992165D01*
X37046365Y109820027D01*
X36899973Y109673635D01*
X36727835Y109558616D01*
X36727834Y109558615D01*
X36727833Y109558615D01*
X36536564Y109479389D01*
X36333516Y109439000D01*
X36126484Y109439000D01*
X35923436Y109479389D01*
X35732167Y109558615D01*
X35732166Y109558615D01*
X35732165Y109558616D01*
X35560027Y109673635D01*
X35413635Y109820027D01*
X35298616Y109992165D01*
X35290331Y110012167D01*
X35219389Y110183436D01*
X35179000Y110386484D01*
X35179000Y110593516D01*
X35219389Y110796564D01*
X35298615Y110987833D01*
X35311979Y111007833D01*
X35413635Y111159973D01*
X35560027Y111306365D01*
X35732165Y111421384D01*
X35732167Y111421385D01*
X35923436Y111500611D01*
X36126484Y111541000D01*
X36333516Y111541000D01*
X36536564Y111500611D01*
G37*
G36*
X33996564Y111520611D02*
G01*
X34187833Y111441385D01*
X34187835Y111441384D01*
X34217767Y111421384D01*
X34359973Y111326365D01*
X34506365Y111179973D01*
X34621385Y111007833D01*
X34700611Y110816564D01*
X34741000Y110613516D01*
X34741000Y110406484D01*
X34700611Y110203436D01*
X34692326Y110183435D01*
X34621384Y110012165D01*
X34506365Y109840027D01*
X34359973Y109693635D01*
X34187835Y109578616D01*
X34187834Y109578615D01*
X34187833Y109578615D01*
X33996564Y109499389D01*
X33793516Y109459000D01*
X33586484Y109459000D01*
X33383436Y109499389D01*
X33192167Y109578615D01*
X33192166Y109578615D01*
X33192165Y109578616D01*
X33020027Y109693635D01*
X32873635Y109840027D01*
X32758616Y110012165D01*
X32687674Y110183435D01*
X32679389Y110203436D01*
X32639000Y110406484D01*
X32639000Y110613516D01*
X32679389Y110816564D01*
X32758615Y111007833D01*
X32873635Y111179973D01*
X33020027Y111326365D01*
X33162233Y111421384D01*
X33192165Y111441384D01*
X33192167Y111441385D01*
X33383436Y111520611D01*
X33586484Y111561000D01*
X33793516Y111561000D01*
X33996564Y111520611D01*
G37*
M02*
