M48
; DRILL file {KiCad 5.1.5+dfsg1-2build2} date Sun 19 Jul 2020 12:45:13
; FORMAT={-:-/ absolute / inch / decimal}
; #@! TF.CreationDate,2020-07-19T12:45:13+10:00
; #@! TF.GenerationSoftware,Kicad,Pcbnew,5.1.5+dfsg1-2build2
FMAT,2
INCH
T1C0.0157
T2C0.0394
T3C0.0400
T4C0.0512
T5C0.0669
T6C0.1220
%
G90
G05
T1
X0.1Y2.9
X0.15Y2.85
X0.2Y2.8
X0.4Y3.35
X0.4268Y2.6268
X0.45Y2.9
X0.45Y2.85
X0.45Y2.8
X0.5Y3.2
X0.5Y3.05
X0.55Y3.2
X0.55Y2.7
X0.55Y1.3
X0.6Y3.0
X0.7Y3.4073
X0.7Y2.35
X0.75Y3.3
X0.75Y3.25
X1.0Y3.4073
X1.0Y3.3
X1.1Y0.65
X1.5Y1.3
X1.5Y0.8
X1.95Y3.7
X2.4Y3.0
T2
X1.3264Y4.3508
X1.4264Y4.35
X1.5264Y4.35
X1.6264Y4.35
X1.7063Y0.6563
X1.9031Y1.4437
X2.2969Y1.4437
X2.4937Y0.6563
X2.55Y2.6
X2.55Y2.5
X2.55Y2.4
X2.55Y2.3
X2.55Y2.2
X2.55Y2.1
T3
X0.35Y2.45
X0.35Y2.35
X0.35Y2.25
X0.45Y2.45
X0.45Y2.35
X0.45Y2.25
T4
X0.4638Y0.7713
X0.4638Y0.2909
X0.7Y0.85
X0.9362Y0.7713
X0.9362Y0.2909
T5
X1.25Y0.25
X1.45Y0.25
X1.8Y0.25
X2.0Y0.25
X2.35Y0.25
X2.55Y0.25
T6
X0.9252Y4.2957
X0.9252Y3.2327
X2.0276Y4.2957
X2.0276Y3.2327
T0
M30
