G04 #@! TF.GenerationSoftware,KiCad,Pcbnew,5.1.5+dfsg1-2build2*
G04 #@! TF.CreationDate,2020-07-19T12:41:51+10:00*
G04 #@! TF.ProjectId,grinder_timer,6772696e-6465-4725-9f74-696d65722e6b,rev?*
G04 #@! TF.SameCoordinates,Original*
G04 #@! TF.FileFunction,Legend,Top*
G04 #@! TF.FilePolarity,Positive*
%FSLAX46Y46*%
G04 Gerber Fmt 4.6, Leading zero omitted, Abs format (unit mm)*
G04 Created by KiCad (PCBNEW 5.1.5+dfsg1-2build2) date 2020-07-19 12:41:51*
%MOMM*%
%LPD*%
G04 APERTURE LIST*
%ADD10C,0.010000*%
%ADD11C,0.150000*%
%ADD12C,0.120000*%
G04 APERTURE END LIST*
D10*
G36*
X59871633Y101392360D02*
G01*
X59982007Y101370885D01*
X60021500Y101355679D01*
X60077482Y101325775D01*
X60118873Y101291664D01*
X60148083Y101245527D01*
X60167521Y101179545D01*
X60179595Y101085898D01*
X60186716Y100956767D01*
X60190829Y100806092D01*
X60199400Y100410395D01*
X60096698Y100410395D01*
X60028014Y100415482D01*
X59997978Y100433669D01*
X59993996Y100451974D01*
X59989828Y100478243D01*
X59969390Y100470247D01*
X59944003Y100448311D01*
X59876493Y100413577D01*
X59781317Y100395351D01*
X59678802Y100395260D01*
X59589276Y100414933D01*
X59579456Y100419117D01*
X59481753Y100487085D01*
X59418054Y100579199D01*
X59392518Y100684109D01*
X59395431Y100702573D01*
X59580867Y100702573D01*
X59594569Y100659405D01*
X59606337Y100641624D01*
X59637256Y100609403D01*
X59682159Y100592568D01*
X59756288Y100586611D01*
X59793548Y100586261D01*
X59881989Y100589407D01*
X59933853Y100601338D01*
X59962558Y100625790D01*
X59967989Y100634856D01*
X59988510Y100698605D01*
X59993996Y100749013D01*
X59992059Y100782912D01*
X59979018Y100801955D01*
X59944024Y100809664D01*
X59876231Y100809560D01*
X59814805Y100807193D01*
X59715758Y100800629D01*
X59654261Y100788664D01*
X59617654Y100767806D01*
X59601586Y100748399D01*
X59580867Y100702573D01*
X59395431Y100702573D01*
X59409302Y100790466D01*
X59428682Y100830677D01*
X59475979Y100895301D01*
X59534540Y100938436D01*
X59615820Y100964968D01*
X59731276Y100979783D01*
X59786726Y100983369D01*
X59993996Y100994540D01*
X59993996Y101064966D01*
X59980326Y101131819D01*
X59954516Y101174872D01*
X59899576Y101201648D01*
X59815891Y101213343D01*
X59722841Y101209337D01*
X59639803Y101189009D01*
X59630988Y101185242D01*
X59575864Y101169603D01*
X59531297Y101189271D01*
X59516749Y101201697D01*
X59474393Y101252497D01*
X59476771Y101295000D01*
X59525630Y101338505D01*
X59544682Y101350255D01*
X59633039Y101381819D01*
X59748667Y101395929D01*
X59871633Y101392360D01*
G37*
X59871633Y101392360D02*
X59982007Y101370885D01*
X60021500Y101355679D01*
X60077482Y101325775D01*
X60118873Y101291664D01*
X60148083Y101245527D01*
X60167521Y101179545D01*
X60179595Y101085898D01*
X60186716Y100956767D01*
X60190829Y100806092D01*
X60199400Y100410395D01*
X60096698Y100410395D01*
X60028014Y100415482D01*
X59997978Y100433669D01*
X59993996Y100451974D01*
X59989828Y100478243D01*
X59969390Y100470247D01*
X59944003Y100448311D01*
X59876493Y100413577D01*
X59781317Y100395351D01*
X59678802Y100395260D01*
X59589276Y100414933D01*
X59579456Y100419117D01*
X59481753Y100487085D01*
X59418054Y100579199D01*
X59392518Y100684109D01*
X59395431Y100702573D01*
X59580867Y100702573D01*
X59594569Y100659405D01*
X59606337Y100641624D01*
X59637256Y100609403D01*
X59682159Y100592568D01*
X59756288Y100586611D01*
X59793548Y100586261D01*
X59881989Y100589407D01*
X59933853Y100601338D01*
X59962558Y100625790D01*
X59967989Y100634856D01*
X59988510Y100698605D01*
X59993996Y100749013D01*
X59992059Y100782912D01*
X59979018Y100801955D01*
X59944024Y100809664D01*
X59876231Y100809560D01*
X59814805Y100807193D01*
X59715758Y100800629D01*
X59654261Y100788664D01*
X59617654Y100767806D01*
X59601586Y100748399D01*
X59580867Y100702573D01*
X59395431Y100702573D01*
X59409302Y100790466D01*
X59428682Y100830677D01*
X59475979Y100895301D01*
X59534540Y100938436D01*
X59615820Y100964968D01*
X59731276Y100979783D01*
X59786726Y100983369D01*
X59993996Y100994540D01*
X59993996Y101064966D01*
X59980326Y101131819D01*
X59954516Y101174872D01*
X59899576Y101201648D01*
X59815891Y101213343D01*
X59722841Y101209337D01*
X59639803Y101189009D01*
X59630988Y101185242D01*
X59575864Y101169603D01*
X59531297Y101189271D01*
X59516749Y101201697D01*
X59474393Y101252497D01*
X59476771Y101295000D01*
X59525630Y101338505D01*
X59544682Y101350255D01*
X59633039Y101381819D01*
X59748667Y101395929D01*
X59871633Y101392360D01*
G36*
X61878269Y100410395D02*
G01*
X61777775Y100410395D01*
X61705553Y100417595D01*
X61677837Y100440067D01*
X61677280Y100445372D01*
X61668017Y100463239D01*
X61633755Y100456168D01*
X61584035Y100432810D01*
X61470524Y100392353D01*
X61362657Y100395419D01*
X61282077Y100422519D01*
X61208711Y100465267D01*
X61156858Y100524819D01*
X61123437Y100609194D01*
X61105364Y100726410D01*
X61099557Y100884486D01*
X61099548Y100888886D01*
X61300425Y100888886D01*
X61302499Y100781940D01*
X61310430Y100712253D01*
X61326782Y100666943D01*
X61350673Y100636508D01*
X61426575Y100592395D01*
X61513673Y100587863D01*
X61593817Y100621855D01*
X61625209Y100652458D01*
X61654328Y100700555D01*
X61670453Y100761743D01*
X61676778Y100851265D01*
X61677280Y100900911D01*
X61669905Y101028834D01*
X61644846Y101116253D01*
X61597704Y101171121D01*
X61524080Y101201393D01*
X61509361Y101204522D01*
X61443738Y101207253D01*
X61389913Y101178662D01*
X61364900Y101155492D01*
X61332350Y101118231D01*
X61313033Y101077716D01*
X61303567Y101019961D01*
X61300571Y100930982D01*
X61300425Y100888886D01*
X61099548Y100888886D01*
X61099530Y100897341D01*
X61100922Y101025642D01*
X61106318Y101115551D01*
X61117392Y101178868D01*
X61135819Y101227395D01*
X61149906Y101252397D01*
X61226076Y101332416D01*
X61328182Y101382129D01*
X61440855Y101397945D01*
X61548727Y101376275D01*
X61589106Y101355000D01*
X61637366Y101326090D01*
X61663834Y101314846D01*
X61669612Y101338149D01*
X61674146Y101400784D01*
X61676822Y101491839D01*
X61677280Y101553521D01*
X61677280Y101792195D01*
X61878269Y101792195D01*
X61878269Y100410395D01*
G37*
X61878269Y100410395D02*
X61777775Y100410395D01*
X61705553Y100417595D01*
X61677837Y100440067D01*
X61677280Y100445372D01*
X61668017Y100463239D01*
X61633755Y100456168D01*
X61584035Y100432810D01*
X61470524Y100392353D01*
X61362657Y100395419D01*
X61282077Y100422519D01*
X61208711Y100465267D01*
X61156858Y100524819D01*
X61123437Y100609194D01*
X61105364Y100726410D01*
X61099557Y100884486D01*
X61099548Y100888886D01*
X61300425Y100888886D01*
X61302499Y100781940D01*
X61310430Y100712253D01*
X61326782Y100666943D01*
X61350673Y100636508D01*
X61426575Y100592395D01*
X61513673Y100587863D01*
X61593817Y100621855D01*
X61625209Y100652458D01*
X61654328Y100700555D01*
X61670453Y100761743D01*
X61676778Y100851265D01*
X61677280Y100900911D01*
X61669905Y101028834D01*
X61644846Y101116253D01*
X61597704Y101171121D01*
X61524080Y101201393D01*
X61509361Y101204522D01*
X61443738Y101207253D01*
X61389913Y101178662D01*
X61364900Y101155492D01*
X61332350Y101118231D01*
X61313033Y101077716D01*
X61303567Y101019961D01*
X61300571Y100930982D01*
X61300425Y100888886D01*
X61099548Y100888886D01*
X61099530Y100897341D01*
X61100922Y101025642D01*
X61106318Y101115551D01*
X61117392Y101178868D01*
X61135819Y101227395D01*
X61149906Y101252397D01*
X61226076Y101332416D01*
X61328182Y101382129D01*
X61440855Y101397945D01*
X61548727Y101376275D01*
X61589106Y101355000D01*
X61637366Y101326090D01*
X61663834Y101314846D01*
X61669612Y101338149D01*
X61674146Y101400784D01*
X61676822Y101491839D01*
X61677280Y101553521D01*
X61677280Y101792195D01*
X61878269Y101792195D01*
X61878269Y100410395D01*
G36*
X63998547Y101375196D02*
G01*
X64063748Y101352675D01*
X64117125Y101321755D01*
X64156245Y101287041D01*
X64183301Y101240606D01*
X64200487Y101174520D01*
X64209995Y101080857D01*
X64214020Y100951686D01*
X64214768Y100806783D01*
X64214768Y100410395D01*
X64114273Y100410395D01*
X64051339Y100415638D01*
X64016338Y100428734D01*
X64013779Y100434029D01*
X63994901Y100440374D01*
X63949024Y100423837D01*
X63944689Y100421622D01*
X63848598Y100394009D01*
X63724103Y100391869D01*
X63643418Y100402974D01*
X63590134Y100427311D01*
X63527466Y100474357D01*
X63511519Y100489418D01*
X63462378Y100548445D01*
X63440422Y100610285D01*
X63435935Y100685300D01*
X63441658Y100726463D01*
X63614776Y100726463D01*
X63619117Y100662629D01*
X63652974Y100615118D01*
X63655767Y100613397D01*
X63712050Y100596126D01*
X63792386Y100588327D01*
X63877656Y100589825D01*
X63948741Y100600443D01*
X63983630Y100616409D01*
X64004699Y100661223D01*
X64013771Y100727606D01*
X64013779Y100729465D01*
X64013779Y100812373D01*
X63842938Y100812373D01*
X63745354Y100807966D01*
X63672965Y100796112D01*
X63641949Y100782225D01*
X63614776Y100726463D01*
X63441658Y100726463D01*
X63452022Y100800990D01*
X63502196Y100887106D01*
X63589323Y100945650D01*
X63716268Y100978624D01*
X63869318Y100988099D01*
X64013779Y100988239D01*
X64013779Y101075288D01*
X64000583Y101151073D01*
X63965183Y101188344D01*
X63887950Y101209832D01*
X63790545Y101211833D01*
X63699041Y101194506D01*
X63678900Y101186612D01*
X63622811Y101172599D01*
X63567383Y101192500D01*
X63552100Y101202063D01*
X63500659Y101243238D01*
X63493015Y101277821D01*
X63530309Y101315818D01*
X63567834Y101340245D01*
X63652691Y101371986D01*
X63765919Y101388721D01*
X63887783Y101389956D01*
X63998547Y101375196D01*
G37*
X63998547Y101375196D02*
X64063748Y101352675D01*
X64117125Y101321755D01*
X64156245Y101287041D01*
X64183301Y101240606D01*
X64200487Y101174520D01*
X64209995Y101080857D01*
X64214020Y100951686D01*
X64214768Y100806783D01*
X64214768Y100410395D01*
X64114273Y100410395D01*
X64051339Y100415638D01*
X64016338Y100428734D01*
X64013779Y100434029D01*
X63994901Y100440374D01*
X63949024Y100423837D01*
X63944689Y100421622D01*
X63848598Y100394009D01*
X63724103Y100391869D01*
X63643418Y100402974D01*
X63590134Y100427311D01*
X63527466Y100474357D01*
X63511519Y100489418D01*
X63462378Y100548445D01*
X63440422Y100610285D01*
X63435935Y100685300D01*
X63441658Y100726463D01*
X63614776Y100726463D01*
X63619117Y100662629D01*
X63652974Y100615118D01*
X63655767Y100613397D01*
X63712050Y100596126D01*
X63792386Y100588327D01*
X63877656Y100589825D01*
X63948741Y100600443D01*
X63983630Y100616409D01*
X64004699Y100661223D01*
X64013771Y100727606D01*
X64013779Y100729465D01*
X64013779Y100812373D01*
X63842938Y100812373D01*
X63745354Y100807966D01*
X63672965Y100796112D01*
X63641949Y100782225D01*
X63614776Y100726463D01*
X63441658Y100726463D01*
X63452022Y100800990D01*
X63502196Y100887106D01*
X63589323Y100945650D01*
X63716268Y100978624D01*
X63869318Y100988099D01*
X64013779Y100988239D01*
X64013779Y101075288D01*
X64000583Y101151073D01*
X63965183Y101188344D01*
X63887950Y101209832D01*
X63790545Y101211833D01*
X63699041Y101194506D01*
X63678900Y101186612D01*
X63622811Y101172599D01*
X63567383Y101192500D01*
X63552100Y101202063D01*
X63500659Y101243238D01*
X63493015Y101277821D01*
X63530309Y101315818D01*
X63567834Y101340245D01*
X63652691Y101371986D01*
X63765919Y101388721D01*
X63887783Y101389956D01*
X63998547Y101375196D01*
G36*
X65634253Y101384144D02*
G01*
X65756965Y101333496D01*
X65852234Y101243859D01*
X65916557Y101120417D01*
X65946436Y100968355D01*
X65948159Y100919149D01*
X65948299Y100812373D01*
X65634253Y100812373D01*
X65488832Y100810304D01*
X65386838Y100804237D01*
X65330796Y100794385D01*
X65320208Y100786002D01*
X65334996Y100732092D01*
X65370185Y100668454D01*
X65412013Y100617284D01*
X65434390Y100601867D01*
X65515163Y100586954D01*
X65609463Y100591063D01*
X65691776Y100612058D01*
X65716798Y100625513D01*
X65757889Y100648731D01*
X65793641Y100645337D01*
X65845709Y100612871D01*
X65849048Y100610499D01*
X65897096Y100571199D01*
X65907576Y100542354D01*
X65892812Y100517018D01*
X65811084Y100452933D01*
X65698337Y100410234D01*
X65570505Y100392421D01*
X65443523Y100402992D01*
X65411138Y100411260D01*
X65293634Y100470731D01*
X65207660Y100568490D01*
X65154114Y100702992D01*
X65133895Y100872695D01*
X65133744Y100887744D01*
X65146337Y101019020D01*
X65326805Y101019020D01*
X65352516Y100998938D01*
X65414332Y100990241D01*
X65518934Y100988250D01*
X65533759Y100988239D01*
X65644312Y100991210D01*
X65717360Y100999633D01*
X65746960Y101012775D01*
X65747310Y101014610D01*
X65732521Y101068520D01*
X65697332Y101132158D01*
X65655504Y101183329D01*
X65633128Y101198745D01*
X65528502Y101217635D01*
X65436657Y101193882D01*
X65367871Y101130712D01*
X65356964Y101112060D01*
X65330515Y101055167D01*
X65326805Y101019020D01*
X65146337Y101019020D01*
X65150399Y101061355D01*
X65199512Y101201858D01*
X65278266Y101306456D01*
X65383842Y101372355D01*
X65513422Y101396759D01*
X65634253Y101384144D01*
G37*
X65634253Y101384144D02*
X65756965Y101333496D01*
X65852234Y101243859D01*
X65916557Y101120417D01*
X65946436Y100968355D01*
X65948159Y100919149D01*
X65948299Y100812373D01*
X65634253Y100812373D01*
X65488832Y100810304D01*
X65386838Y100804237D01*
X65330796Y100794385D01*
X65320208Y100786002D01*
X65334996Y100732092D01*
X65370185Y100668454D01*
X65412013Y100617284D01*
X65434390Y100601867D01*
X65515163Y100586954D01*
X65609463Y100591063D01*
X65691776Y100612058D01*
X65716798Y100625513D01*
X65757889Y100648731D01*
X65793641Y100645337D01*
X65845709Y100612871D01*
X65849048Y100610499D01*
X65897096Y100571199D01*
X65907576Y100542354D01*
X65892812Y100517018D01*
X65811084Y100452933D01*
X65698337Y100410234D01*
X65570505Y100392421D01*
X65443523Y100402992D01*
X65411138Y100411260D01*
X65293634Y100470731D01*
X65207660Y100568490D01*
X65154114Y100702992D01*
X65133895Y100872695D01*
X65133744Y100887744D01*
X65146337Y101019020D01*
X65326805Y101019020D01*
X65352516Y100998938D01*
X65414332Y100990241D01*
X65518934Y100988250D01*
X65533759Y100988239D01*
X65644312Y100991210D01*
X65717360Y100999633D01*
X65746960Y101012775D01*
X65747310Y101014610D01*
X65732521Y101068520D01*
X65697332Y101132158D01*
X65655504Y101183329D01*
X65633128Y101198745D01*
X65528502Y101217635D01*
X65436657Y101193882D01*
X65367871Y101130712D01*
X65356964Y101112060D01*
X65330515Y101055167D01*
X65326805Y101019020D01*
X65146337Y101019020D01*
X65150399Y101061355D01*
X65199512Y101201858D01*
X65278266Y101306456D01*
X65383842Y101372355D01*
X65513422Y101396759D01*
X65634253Y101384144D01*
G36*
X58617567Y102965653D02*
G01*
X58649251Y102938789D01*
X58655426Y102921755D01*
X58668843Y102886849D01*
X58691111Y102891870D01*
X58714864Y102912164D01*
X58788067Y102950446D01*
X58886315Y102967140D01*
X58988599Y102960745D01*
X59061369Y102936899D01*
X59135542Y102888044D01*
X59187014Y102825124D01*
X59219281Y102739125D01*
X59235836Y102621033D01*
X59240193Y102475567D01*
X59236135Y102322751D01*
X59221631Y102210106D01*
X59193381Y102128065D01*
X59148082Y102067061D01*
X59082434Y102017529D01*
X59082044Y102017291D01*
X58966600Y101974652D01*
X58844714Y101977826D01*
X58744095Y102018033D01*
X58662443Y102067817D01*
X58662443Y101313556D01*
X58736566Y101351886D01*
X58809318Y101376096D01*
X58899603Y101389360D01*
X58925363Y101390217D01*
X59006151Y101383481D01*
X59069334Y101356439D01*
X59133880Y101304277D01*
X59227725Y101218337D01*
X59243745Y100410395D01*
X59039298Y100410395D01*
X59039298Y100746781D01*
X59038448Y100886981D01*
X59035158Y100986260D01*
X59028319Y101053927D01*
X59016822Y101099291D01*
X58999557Y101131661D01*
X58992287Y101141222D01*
X58926615Y101186379D01*
X58841367Y101199714D01*
X58756511Y101180406D01*
X58713940Y101152673D01*
X58693282Y101130114D01*
X58679003Y101100369D01*
X58669941Y101054547D01*
X58664936Y100983754D01*
X58662827Y100879097D01*
X58662443Y100758232D01*
X58662443Y100410395D01*
X58461454Y100410395D01*
X58461454Y102470534D01*
X58662443Y102470534D01*
X58668950Y102339193D01*
X58691222Y102250131D01*
X58733386Y102196745D01*
X58799569Y102172432D01*
X58850871Y102169050D01*
X58940342Y102187149D01*
X58989051Y102219297D01*
X59015195Y102253851D01*
X59030557Y102301335D01*
X59037721Y102374681D01*
X59039298Y102470534D01*
X59032791Y102601874D01*
X59010519Y102690936D01*
X58968355Y102744322D01*
X58902172Y102768635D01*
X58850871Y102772017D01*
X58768783Y102761606D01*
X58713119Y102725971D01*
X58679753Y102658508D01*
X58664557Y102552617D01*
X58662443Y102470534D01*
X58461454Y102470534D01*
X58461454Y102973006D01*
X58551739Y102973006D01*
X58617567Y102965653D01*
G37*
X58617567Y102965653D02*
X58649251Y102938789D01*
X58655426Y102921755D01*
X58668843Y102886849D01*
X58691111Y102891870D01*
X58714864Y102912164D01*
X58788067Y102950446D01*
X58886315Y102967140D01*
X58988599Y102960745D01*
X59061369Y102936899D01*
X59135542Y102888044D01*
X59187014Y102825124D01*
X59219281Y102739125D01*
X59235836Y102621033D01*
X59240193Y102475567D01*
X59236135Y102322751D01*
X59221631Y102210106D01*
X59193381Y102128065D01*
X59148082Y102067061D01*
X59082434Y102017529D01*
X59082044Y102017291D01*
X58966600Y101974652D01*
X58844714Y101977826D01*
X58744095Y102018033D01*
X58662443Y102067817D01*
X58662443Y101313556D01*
X58736566Y101351886D01*
X58809318Y101376096D01*
X58899603Y101389360D01*
X58925363Y101390217D01*
X59006151Y101383481D01*
X59069334Y101356439D01*
X59133880Y101304277D01*
X59227725Y101218337D01*
X59243745Y100410395D01*
X59039298Y100410395D01*
X59039298Y100746781D01*
X59038448Y100886981D01*
X59035158Y100986260D01*
X59028319Y101053927D01*
X59016822Y101099291D01*
X58999557Y101131661D01*
X58992287Y101141222D01*
X58926615Y101186379D01*
X58841367Y101199714D01*
X58756511Y101180406D01*
X58713940Y101152673D01*
X58693282Y101130114D01*
X58679003Y101100369D01*
X58669941Y101054547D01*
X58664936Y100983754D01*
X58662827Y100879097D01*
X58662443Y100758232D01*
X58662443Y100410395D01*
X58461454Y100410395D01*
X58461454Y102470534D01*
X58662443Y102470534D01*
X58668950Y102339193D01*
X58691222Y102250131D01*
X58733386Y102196745D01*
X58799569Y102172432D01*
X58850871Y102169050D01*
X58940342Y102187149D01*
X58989051Y102219297D01*
X59015195Y102253851D01*
X59030557Y102301335D01*
X59037721Y102374681D01*
X59039298Y102470534D01*
X59032791Y102601874D01*
X59010519Y102690936D01*
X58968355Y102744322D01*
X58902172Y102768635D01*
X58850871Y102772017D01*
X58768783Y102761606D01*
X58713119Y102725971D01*
X58679753Y102658508D01*
X58664557Y102552617D01*
X58662443Y102470534D01*
X58461454Y102470534D01*
X58461454Y102973006D01*
X58551739Y102973006D01*
X58617567Y102965653D01*
G36*
X60591046Y101384176D02*
G01*
X60619962Y101363894D01*
X60622087Y101351886D01*
X60627127Y101328413D01*
X60651062Y101330303D01*
X60696210Y101351886D01*
X60778744Y101378812D01*
X60876365Y101388936D01*
X60968398Y101381923D01*
X61034166Y101357438D01*
X61034269Y101357363D01*
X61060241Y101333487D01*
X61059423Y101307767D01*
X61028854Y101264869D01*
X61012651Y101245421D01*
X60965181Y101195695D01*
X60927270Y101180167D01*
X60881271Y101190982D01*
X60785379Y101202297D01*
X60692503Y101165261D01*
X60666054Y101144677D01*
X60648182Y101122815D01*
X60635830Y101088357D01*
X60628029Y101032800D01*
X60623812Y100947641D01*
X60622212Y100824374D01*
X60622087Y100758232D01*
X60622087Y100410395D01*
X60421098Y100410395D01*
X60421098Y101390217D01*
X60521593Y101390217D01*
X60591046Y101384176D01*
G37*
X60591046Y101384176D02*
X60619962Y101363894D01*
X60622087Y101351886D01*
X60627127Y101328413D01*
X60651062Y101330303D01*
X60696210Y101351886D01*
X60778744Y101378812D01*
X60876365Y101388936D01*
X60968398Y101381923D01*
X61034166Y101357438D01*
X61034269Y101357363D01*
X61060241Y101333487D01*
X61059423Y101307767D01*
X61028854Y101264869D01*
X61012651Y101245421D01*
X60965181Y101195695D01*
X60927270Y101180167D01*
X60881271Y101190982D01*
X60785379Y101202297D01*
X60692503Y101165261D01*
X60666054Y101144677D01*
X60648182Y101122815D01*
X60635830Y101088357D01*
X60628029Y101032800D01*
X60623812Y100947641D01*
X60622212Y100824374D01*
X60622087Y100758232D01*
X60622087Y100410395D01*
X60421098Y100410395D01*
X60421098Y101390217D01*
X60521593Y101390217D01*
X60591046Y101384176D01*
G36*
X62168457Y101386172D02*
G01*
X62191723Y101371500D01*
X62212519Y101339850D01*
X62234044Y101284810D01*
X62259499Y101199972D01*
X62292082Y101078925D01*
X62330756Y100931409D01*
X62356993Y100835982D01*
X62379204Y100763587D01*
X62394125Y100724472D01*
X62397871Y100720633D01*
X62408827Y100746611D01*
X62432337Y100811302D01*
X62465226Y100905697D01*
X62504315Y101020788D01*
X62515380Y101053824D01*
X62559268Y101183757D01*
X62591842Y101273561D01*
X62617313Y101330894D01*
X62639891Y101363416D01*
X62663788Y101378784D01*
X62693213Y101384659D01*
X62697503Y101385109D01*
X62726915Y101386805D01*
X62749931Y101380292D01*
X62770528Y101358428D01*
X62792683Y101314069D01*
X62820371Y101240073D01*
X62857570Y101129297D01*
X62882847Y101052171D01*
X62923965Y100932016D01*
X62960529Y100835496D01*
X62989537Y100769809D01*
X63007988Y100742151D01*
X63011678Y100743234D01*
X63024514Y100778518D01*
X63046885Y100852003D01*
X63075738Y100953246D01*
X63108019Y101071804D01*
X63110852Y101082453D01*
X63192566Y101390217D01*
X63404653Y101390217D01*
X63249468Y100906587D01*
X63094282Y100422957D01*
X62911376Y100407543D01*
X62835953Y100653925D01*
X62802114Y100765851D01*
X62772400Y100866654D01*
X62750945Y100942181D01*
X62743718Y100969634D01*
X62725322Y101024112D01*
X62707837Y101050746D01*
X62694149Y101032517D01*
X62669851Y100974343D01*
X62638060Y100884617D01*
X62601890Y100771732D01*
X62591283Y100736719D01*
X62493798Y100410907D01*
X62402098Y100410651D01*
X62310399Y100410395D01*
X62172186Y100843778D01*
X62126644Y100986798D01*
X62085505Y101116399D01*
X62051583Y101223686D01*
X62027690Y101299765D01*
X62017237Y101333689D01*
X62011217Y101369740D01*
X62029647Y101385967D01*
X62084142Y101390144D01*
X62101716Y101390217D01*
X62139522Y101390274D01*
X62168457Y101386172D01*
G37*
X62168457Y101386172D02*
X62191723Y101371500D01*
X62212519Y101339850D01*
X62234044Y101284810D01*
X62259499Y101199972D01*
X62292082Y101078925D01*
X62330756Y100931409D01*
X62356993Y100835982D01*
X62379204Y100763587D01*
X62394125Y100724472D01*
X62397871Y100720633D01*
X62408827Y100746611D01*
X62432337Y100811302D01*
X62465226Y100905697D01*
X62504315Y101020788D01*
X62515380Y101053824D01*
X62559268Y101183757D01*
X62591842Y101273561D01*
X62617313Y101330894D01*
X62639891Y101363416D01*
X62663788Y101378784D01*
X62693213Y101384659D01*
X62697503Y101385109D01*
X62726915Y101386805D01*
X62749931Y101380292D01*
X62770528Y101358428D01*
X62792683Y101314069D01*
X62820371Y101240073D01*
X62857570Y101129297D01*
X62882847Y101052171D01*
X62923965Y100932016D01*
X62960529Y100835496D01*
X62989537Y100769809D01*
X63007988Y100742151D01*
X63011678Y100743234D01*
X63024514Y100778518D01*
X63046885Y100852003D01*
X63075738Y100953246D01*
X63108019Y101071804D01*
X63110852Y101082453D01*
X63192566Y101390217D01*
X63404653Y101390217D01*
X63249468Y100906587D01*
X63094282Y100422957D01*
X62911376Y100407543D01*
X62835953Y100653925D01*
X62802114Y100765851D01*
X62772400Y100866654D01*
X62750945Y100942181D01*
X62743718Y100969634D01*
X62725322Y101024112D01*
X62707837Y101050746D01*
X62694149Y101032517D01*
X62669851Y100974343D01*
X62638060Y100884617D01*
X62601890Y100771732D01*
X62591283Y100736719D01*
X62493798Y100410907D01*
X62402098Y100410651D01*
X62310399Y100410395D01*
X62172186Y100843778D01*
X62126644Y100986798D01*
X62085505Y101116399D01*
X62051583Y101223686D01*
X62027690Y101299765D01*
X62017237Y101333689D01*
X62011217Y101369740D01*
X62029647Y101385967D01*
X62084142Y101390144D01*
X62101716Y101390217D01*
X62139522Y101390274D01*
X62168457Y101386172D01*
G36*
X64606889Y101386155D02*
G01*
X64635897Y101369339D01*
X64641870Y101338146D01*
X64641870Y101286076D01*
X64708067Y101338146D01*
X64777804Y101371112D01*
X64871207Y101388716D01*
X64968139Y101389826D01*
X65048465Y101373307D01*
X65075172Y101358813D01*
X65097450Y101335109D01*
X65093280Y101307056D01*
X65059002Y101260325D01*
X65046061Y101244944D01*
X64998295Y101194054D01*
X64961501Y101176515D01*
X64917098Y101185037D01*
X64904821Y101189550D01*
X64814076Y101200731D01*
X64731547Y101170295D01*
X64673130Y101104418D01*
X64670252Y101098415D01*
X64658601Y101047465D01*
X64649437Y100957368D01*
X64643596Y100839200D01*
X64641870Y100723259D01*
X64641870Y100410395D01*
X64440880Y100410395D01*
X64440880Y101390217D01*
X64541375Y101390217D01*
X64606889Y101386155D01*
G37*
X64606889Y101386155D02*
X64635897Y101369339D01*
X64641870Y101338146D01*
X64641870Y101286076D01*
X64708067Y101338146D01*
X64777804Y101371112D01*
X64871207Y101388716D01*
X64968139Y101389826D01*
X65048465Y101373307D01*
X65075172Y101358813D01*
X65097450Y101335109D01*
X65093280Y101307056D01*
X65059002Y101260325D01*
X65046061Y101244944D01*
X64998295Y101194054D01*
X64961501Y101176515D01*
X64917098Y101185037D01*
X64904821Y101189550D01*
X64814076Y101200731D01*
X64731547Y101170295D01*
X64673130Y101104418D01*
X64670252Y101098415D01*
X64658601Y101047465D01*
X64649437Y100957368D01*
X64643596Y100839200D01*
X64641870Y100723259D01*
X64641870Y100410395D01*
X64440880Y100410395D01*
X64440880Y101390217D01*
X64541375Y101390217D01*
X64606889Y101386155D01*
G36*
X57993666Y102958219D02*
G01*
X58107407Y102900672D01*
X58201176Y102803552D01*
X58219328Y102775003D01*
X58250930Y102687693D01*
X58268529Y102569630D01*
X58272125Y102438321D01*
X58261717Y102311269D01*
X58237306Y102205979D01*
X58219328Y102166064D01*
X58134347Y102064760D01*
X58023978Y101996957D01*
X57899961Y101965610D01*
X57774038Y101973676D01*
X57657951Y102024108D01*
X57657242Y102024589D01*
X57576250Y102086146D01*
X57522058Y102148096D01*
X57489546Y102222572D01*
X57473597Y102321705D01*
X57469090Y102457628D01*
X57469070Y102470534D01*
X57670059Y102470534D01*
X57671451Y102366611D01*
X57677622Y102300115D01*
X57691564Y102258257D01*
X57716271Y102228250D01*
X57729371Y102217077D01*
X57813257Y102177667D01*
X57910991Y102171892D01*
X57983114Y102193643D01*
X58033985Y102246789D01*
X58066731Y102332627D01*
X58081354Y102436985D01*
X58077853Y102545692D01*
X58056228Y102644576D01*
X58016479Y102719463D01*
X57983114Y102747424D01*
X57892908Y102770756D01*
X57795823Y102758539D01*
X57729371Y102723990D01*
X57699692Y102695136D01*
X57681936Y102659386D01*
X57673110Y102603949D01*
X57670222Y102516039D01*
X57670059Y102470534D01*
X57469070Y102470534D01*
X57470556Y102590200D01*
X57476362Y102671947D01*
X57488515Y102728047D01*
X57509040Y102770774D01*
X57521628Y102789018D01*
X57623933Y102891594D01*
X57742796Y102953864D01*
X57869085Y102976011D01*
X57993666Y102958219D01*
G37*
X57993666Y102958219D02*
X58107407Y102900672D01*
X58201176Y102803552D01*
X58219328Y102775003D01*
X58250930Y102687693D01*
X58268529Y102569630D01*
X58272125Y102438321D01*
X58261717Y102311269D01*
X58237306Y102205979D01*
X58219328Y102166064D01*
X58134347Y102064760D01*
X58023978Y101996957D01*
X57899961Y101965610D01*
X57774038Y101973676D01*
X57657951Y102024108D01*
X57657242Y102024589D01*
X57576250Y102086146D01*
X57522058Y102148096D01*
X57489546Y102222572D01*
X57473597Y102321705D01*
X57469090Y102457628D01*
X57469070Y102470534D01*
X57670059Y102470534D01*
X57671451Y102366611D01*
X57677622Y102300115D01*
X57691564Y102258257D01*
X57716271Y102228250D01*
X57729371Y102217077D01*
X57813257Y102177667D01*
X57910991Y102171892D01*
X57983114Y102193643D01*
X58033985Y102246789D01*
X58066731Y102332627D01*
X58081354Y102436985D01*
X58077853Y102545692D01*
X58056228Y102644576D01*
X58016479Y102719463D01*
X57983114Y102747424D01*
X57892908Y102770756D01*
X57795823Y102758539D01*
X57729371Y102723990D01*
X57699692Y102695136D01*
X57681936Y102659386D01*
X57673110Y102603949D01*
X57670222Y102516039D01*
X57670059Y102470534D01*
X57469070Y102470534D01*
X57470556Y102590200D01*
X57476362Y102671947D01*
X57488515Y102728047D01*
X57509040Y102770774D01*
X57521628Y102789018D01*
X57623933Y102891594D01*
X57742796Y102953864D01*
X57869085Y102976011D01*
X57993666Y102958219D01*
G36*
X59888416Y102963887D02*
G01*
X60003943Y102916065D01*
X60105318Y102833310D01*
X60168116Y102721803D01*
X60194053Y102578162D01*
X60194985Y102540016D01*
X60194985Y102395163D01*
X59893502Y102395163D01*
X59766482Y102394848D01*
X59681336Y102392823D01*
X59629690Y102387464D01*
X59603171Y102377148D01*
X59593405Y102360253D01*
X59592018Y102336733D01*
X59609745Y102278051D01*
X59649754Y102224063D01*
X59743678Y102165973D01*
X59848399Y102156600D01*
X59951127Y102190769D01*
X60046438Y102240123D01*
X60112176Y102183578D01*
X60153665Y102137953D01*
X60156179Y102099170D01*
X60116600Y102059702D01*
X60043540Y102017949D01*
X59926542Y101980151D01*
X59793416Y101970326D01*
X59668104Y101989323D01*
X59629703Y102003297D01*
X59521789Y102077353D01*
X59445439Y102189196D01*
X59401743Y102336664D01*
X59391029Y102476965D01*
X59408064Y102623134D01*
X59592685Y102623134D01*
X59602222Y102581601D01*
X59647546Y102557628D01*
X59734058Y102547253D01*
X59804780Y102545905D01*
X59900979Y102546838D01*
X59957463Y102551758D01*
X59984757Y102563850D01*
X59993389Y102586296D01*
X59993996Y102603123D01*
X59973051Y102685824D01*
X59918749Y102746026D01*
X59843895Y102780934D01*
X59761290Y102787754D01*
X59683738Y102763689D01*
X59624040Y102705944D01*
X59613530Y102686191D01*
X59592685Y102623134D01*
X59408064Y102623134D01*
X59409656Y102636794D01*
X59461690Y102770667D01*
X59541356Y102874450D01*
X59642881Y102944004D01*
X59760493Y102975195D01*
X59888416Y102963887D01*
G37*
X59888416Y102963887D02*
X60003943Y102916065D01*
X60105318Y102833310D01*
X60168116Y102721803D01*
X60194053Y102578162D01*
X60194985Y102540016D01*
X60194985Y102395163D01*
X59893502Y102395163D01*
X59766482Y102394848D01*
X59681336Y102392823D01*
X59629690Y102387464D01*
X59603171Y102377148D01*
X59593405Y102360253D01*
X59592018Y102336733D01*
X59609745Y102278051D01*
X59649754Y102224063D01*
X59743678Y102165973D01*
X59848399Y102156600D01*
X59951127Y102190769D01*
X60046438Y102240123D01*
X60112176Y102183578D01*
X60153665Y102137953D01*
X60156179Y102099170D01*
X60116600Y102059702D01*
X60043540Y102017949D01*
X59926542Y101980151D01*
X59793416Y101970326D01*
X59668104Y101989323D01*
X59629703Y102003297D01*
X59521789Y102077353D01*
X59445439Y102189196D01*
X59401743Y102336664D01*
X59391029Y102476965D01*
X59408064Y102623134D01*
X59592685Y102623134D01*
X59602222Y102581601D01*
X59647546Y102557628D01*
X59734058Y102547253D01*
X59804780Y102545905D01*
X59900979Y102546838D01*
X59957463Y102551758D01*
X59984757Y102563850D01*
X59993389Y102586296D01*
X59993996Y102603123D01*
X59973051Y102685824D01*
X59918749Y102746026D01*
X59843895Y102780934D01*
X59761290Y102787754D01*
X59683738Y102763689D01*
X59624040Y102705944D01*
X59613530Y102686191D01*
X59592685Y102623134D01*
X59408064Y102623134D01*
X59409656Y102636794D01*
X59461690Y102770667D01*
X59541356Y102874450D01*
X59642881Y102944004D01*
X59760493Y102975195D01*
X59888416Y102963887D01*
G36*
X60537145Y102968760D02*
G01*
X60566213Y102951680D01*
X60571840Y102923128D01*
X60574015Y102891994D01*
X60588993Y102887106D01*
X60629456Y102908451D01*
X60653492Y102923035D01*
X60764842Y102965448D01*
X60882108Y102968028D01*
X60992687Y102934366D01*
X61083974Y102868052D01*
X61138634Y102784836D01*
X61155273Y102724412D01*
X61166517Y102632357D01*
X61172862Y102502468D01*
X61174807Y102333161D01*
X61174807Y101968061D01*
X60973818Y101968061D01*
X60973818Y102303842D01*
X60973100Y102442479D01*
X60970114Y102540522D01*
X60963610Y102607617D01*
X60952339Y102653405D01*
X60935052Y102687532D01*
X60921747Y102705820D01*
X60852777Y102757626D01*
X60766732Y102774608D01*
X60682247Y102755903D01*
X60632262Y102719213D01*
X60612628Y102691497D01*
X60598613Y102652850D01*
X60588976Y102594367D01*
X60582476Y102507145D01*
X60577871Y102382278D01*
X60576222Y102317235D01*
X60568042Y101968061D01*
X60370851Y101968061D01*
X60370851Y102973006D01*
X60471345Y102973006D01*
X60537145Y102968760D01*
G37*
X60537145Y102968760D02*
X60566213Y102951680D01*
X60571840Y102923128D01*
X60574015Y102891994D01*
X60588993Y102887106D01*
X60629456Y102908451D01*
X60653492Y102923035D01*
X60764842Y102965448D01*
X60882108Y102968028D01*
X60992687Y102934366D01*
X61083974Y102868052D01*
X61138634Y102784836D01*
X61155273Y102724412D01*
X61166517Y102632357D01*
X61172862Y102502468D01*
X61174807Y102333161D01*
X61174807Y101968061D01*
X60973818Y101968061D01*
X60973818Y102303842D01*
X60973100Y102442479D01*
X60970114Y102540522D01*
X60963610Y102607617D01*
X60952339Y102653405D01*
X60935052Y102687532D01*
X60921747Y102705820D01*
X60852777Y102757626D01*
X60766732Y102774608D01*
X60682247Y102755903D01*
X60632262Y102719213D01*
X60612628Y102691497D01*
X60598613Y102652850D01*
X60588976Y102594367D01*
X60582476Y102507145D01*
X60577871Y102382278D01*
X60576222Y102317235D01*
X60568042Y101968061D01*
X60370851Y101968061D01*
X60370851Y102973006D01*
X60471345Y102973006D01*
X60537145Y102968760D01*
G36*
X62310499Y102951232D02*
G01*
X62433045Y102911320D01*
X62491430Y102881885D01*
X62520968Y102860765D01*
X62523086Y102837000D01*
X62496741Y102793885D01*
X62484899Y102777160D01*
X62446627Y102728300D01*
X62415509Y102714884D01*
X62370486Y102730777D01*
X62353858Y102738976D01*
X62235191Y102782004D01*
X62128198Y102790096D01*
X62043599Y102762748D01*
X62031712Y102754133D01*
X61989528Y102704635D01*
X61989550Y102651993D01*
X62000585Y102626330D01*
X62020631Y102607746D01*
X62058821Y102593373D01*
X62124284Y102580342D01*
X62226152Y102565785D01*
X62290613Y102557420D01*
X62415035Y102522823D01*
X62501546Y102456857D01*
X62548337Y102361356D01*
X62556607Y102287427D01*
X62535075Y102166798D01*
X62472475Y102072664D01*
X62371799Y102007366D01*
X62236041Y101973248D01*
X62149155Y101968613D01*
X62040152Y101979608D01*
X61937471Y102007091D01*
X61915955Y102016118D01*
X61840599Y102054892D01*
X61777336Y102093321D01*
X61765213Y102102105D01*
X61733749Y102130031D01*
X61732892Y102154001D01*
X61764826Y102191598D01*
X61777996Y102204992D01*
X61841027Y102268846D01*
X61964400Y102206386D01*
X62089670Y102156815D01*
X62197063Y102147048D01*
X62292876Y102173652D01*
X62339762Y102206297D01*
X62352067Y102256672D01*
X62350586Y102280427D01*
X62344616Y102319496D01*
X62328935Y102344471D01*
X62292805Y102361063D01*
X62225492Y102374981D01*
X62150794Y102386689D01*
X62022052Y102409574D01*
X61933177Y102435613D01*
X61873840Y102470216D01*
X61833714Y102518795D01*
X61811299Y102564550D01*
X61785321Y102681656D01*
X61807528Y102788186D01*
X61876311Y102880306D01*
X61970831Y102944743D01*
X62062882Y102969937D01*
X62181608Y102971435D01*
X62310499Y102951232D01*
G37*
X62310499Y102951232D02*
X62433045Y102911320D01*
X62491430Y102881885D01*
X62520968Y102860765D01*
X62523086Y102837000D01*
X62496741Y102793885D01*
X62484899Y102777160D01*
X62446627Y102728300D01*
X62415509Y102714884D01*
X62370486Y102730777D01*
X62353858Y102738976D01*
X62235191Y102782004D01*
X62128198Y102790096D01*
X62043599Y102762748D01*
X62031712Y102754133D01*
X61989528Y102704635D01*
X61989550Y102651993D01*
X62000585Y102626330D01*
X62020631Y102607746D01*
X62058821Y102593373D01*
X62124284Y102580342D01*
X62226152Y102565785D01*
X62290613Y102557420D01*
X62415035Y102522823D01*
X62501546Y102456857D01*
X62548337Y102361356D01*
X62556607Y102287427D01*
X62535075Y102166798D01*
X62472475Y102072664D01*
X62371799Y102007366D01*
X62236041Y101973248D01*
X62149155Y101968613D01*
X62040152Y101979608D01*
X61937471Y102007091D01*
X61915955Y102016118D01*
X61840599Y102054892D01*
X61777336Y102093321D01*
X61765213Y102102105D01*
X61733749Y102130031D01*
X61732892Y102154001D01*
X61764826Y102191598D01*
X61777996Y102204992D01*
X61841027Y102268846D01*
X61964400Y102206386D01*
X62089670Y102156815D01*
X62197063Y102147048D01*
X62292876Y102173652D01*
X62339762Y102206297D01*
X62352067Y102256672D01*
X62350586Y102280427D01*
X62344616Y102319496D01*
X62328935Y102344471D01*
X62292805Y102361063D01*
X62225492Y102374981D01*
X62150794Y102386689D01*
X62022052Y102409574D01*
X61933177Y102435613D01*
X61873840Y102470216D01*
X61833714Y102518795D01*
X61811299Y102564550D01*
X61785321Y102681656D01*
X61807528Y102788186D01*
X61876311Y102880306D01*
X61970831Y102944743D01*
X62062882Y102969937D01*
X62181608Y102971435D01*
X62310499Y102951232D01*
G36*
X63224947Y102955089D02*
G01*
X63339055Y102894694D01*
X63432628Y102795009D01*
X63447138Y102771932D01*
X63474315Y102714569D01*
X63490060Y102647348D01*
X63496859Y102555357D01*
X63497633Y102469144D01*
X63489113Y102317599D01*
X63462470Y102203202D01*
X63413376Y102114789D01*
X63337506Y102041193D01*
X63329497Y102035124D01*
X63258278Y102001885D01*
X63160942Y101980378D01*
X63057113Y101972487D01*
X62966416Y101980098D01*
X62920900Y101995860D01*
X62803030Y102088972D01*
X62727752Y102207745D01*
X62705822Y102275912D01*
X62689269Y102390296D01*
X62688484Y102470534D01*
X62895777Y102470534D01*
X62897168Y102366611D01*
X62903339Y102300115D01*
X62917281Y102258257D01*
X62941988Y102228250D01*
X62955088Y102217077D01*
X63038974Y102177667D01*
X63136708Y102171892D01*
X63208831Y102193643D01*
X63248967Y102233740D01*
X63282001Y102296331D01*
X63282550Y102297887D01*
X63305811Y102405994D01*
X63306855Y102519415D01*
X63287976Y102624157D01*
X63251470Y102706227D01*
X63208831Y102747424D01*
X63118625Y102770756D01*
X63021540Y102758539D01*
X62955088Y102723990D01*
X62925409Y102695136D01*
X62907653Y102659386D01*
X62898827Y102603949D01*
X62895939Y102516039D01*
X62895777Y102470534D01*
X62688484Y102470534D01*
X62688031Y102516740D01*
X62700634Y102639069D01*
X62725607Y102741110D01*
X62753247Y102796922D01*
X62854452Y102897110D01*
X62973141Y102956639D01*
X63099807Y102975851D01*
X63224947Y102955089D01*
G37*
X63224947Y102955089D02*
X63339055Y102894694D01*
X63432628Y102795009D01*
X63447138Y102771932D01*
X63474315Y102714569D01*
X63490060Y102647348D01*
X63496859Y102555357D01*
X63497633Y102469144D01*
X63489113Y102317599D01*
X63462470Y102203202D01*
X63413376Y102114789D01*
X63337506Y102041193D01*
X63329497Y102035124D01*
X63258278Y102001885D01*
X63160942Y101980378D01*
X63057113Y101972487D01*
X62966416Y101980098D01*
X62920900Y101995860D01*
X62803030Y102088972D01*
X62727752Y102207745D01*
X62705822Y102275912D01*
X62689269Y102390296D01*
X62688484Y102470534D01*
X62895777Y102470534D01*
X62897168Y102366611D01*
X62903339Y102300115D01*
X62917281Y102258257D01*
X62941988Y102228250D01*
X62955088Y102217077D01*
X63038974Y102177667D01*
X63136708Y102171892D01*
X63208831Y102193643D01*
X63248967Y102233740D01*
X63282001Y102296331D01*
X63282550Y102297887D01*
X63305811Y102405994D01*
X63306855Y102519415D01*
X63287976Y102624157D01*
X63251470Y102706227D01*
X63208831Y102747424D01*
X63118625Y102770756D01*
X63021540Y102758539D01*
X62955088Y102723990D01*
X62925409Y102695136D01*
X62907653Y102659386D01*
X62898827Y102603949D01*
X62895939Y102516039D01*
X62895777Y102470534D01*
X62688484Y102470534D01*
X62688031Y102516740D01*
X62700634Y102639069D01*
X62725607Y102741110D01*
X62753247Y102796922D01*
X62854452Y102897110D01*
X62973141Y102956639D01*
X63099807Y102975851D01*
X63224947Y102955089D01*
G36*
X64466004Y101968061D02*
G01*
X64375719Y101968061D01*
X64309892Y101975415D01*
X64278207Y102002278D01*
X64272032Y102019312D01*
X64258798Y102054179D01*
X64236936Y102049638D01*
X64211829Y102028211D01*
X64139377Y101990717D01*
X64041797Y101974720D01*
X63939769Y101981065D01*
X63853973Y102010600D01*
X63849400Y102013374D01*
X63791836Y102053168D01*
X63749699Y102094951D01*
X63720612Y102147066D01*
X63702197Y102217857D01*
X63692076Y102315670D01*
X63687872Y102448846D01*
X63687171Y102582706D01*
X63687171Y102973006D01*
X63858357Y102973006D01*
X63876654Y102617880D01*
X63886775Y102456503D01*
X63899969Y102338703D01*
X63919134Y102257812D01*
X63947170Y102207160D01*
X63986977Y102180077D01*
X64041454Y102169895D01*
X64071786Y102169050D01*
X64136690Y102172225D01*
X64184084Y102186375D01*
X64217075Y102218438D01*
X64238772Y102275350D01*
X64252282Y102364050D01*
X64260715Y102491474D01*
X64265015Y102600333D01*
X64277577Y102960445D01*
X64371790Y102968242D01*
X64466004Y102976040D01*
X64466004Y101968061D01*
G37*
X64466004Y101968061D02*
X64375719Y101968061D01*
X64309892Y101975415D01*
X64278207Y102002278D01*
X64272032Y102019312D01*
X64258798Y102054179D01*
X64236936Y102049638D01*
X64211829Y102028211D01*
X64139377Y101990717D01*
X64041797Y101974720D01*
X63939769Y101981065D01*
X63853973Y102010600D01*
X63849400Y102013374D01*
X63791836Y102053168D01*
X63749699Y102094951D01*
X63720612Y102147066D01*
X63702197Y102217857D01*
X63692076Y102315670D01*
X63687872Y102448846D01*
X63687171Y102582706D01*
X63687171Y102973006D01*
X63858357Y102973006D01*
X63876654Y102617880D01*
X63886775Y102456503D01*
X63899969Y102338703D01*
X63919134Y102257812D01*
X63947170Y102207160D01*
X63986977Y102180077D01*
X64041454Y102169895D01*
X64071786Y102169050D01*
X64136690Y102172225D01*
X64184084Y102186375D01*
X64217075Y102218438D01*
X64238772Y102275350D01*
X64252282Y102364050D01*
X64260715Y102491474D01*
X64265015Y102600333D01*
X64277577Y102960445D01*
X64371790Y102968242D01*
X64466004Y102976040D01*
X64466004Y101968061D01*
G36*
X64858411Y102968760D02*
G01*
X64887479Y102951680D01*
X64893106Y102923128D01*
X64895281Y102891994D01*
X64910260Y102887106D01*
X64950723Y102908451D01*
X64974758Y102923035D01*
X65064924Y102958977D01*
X65166747Y102971646D01*
X65259904Y102960174D01*
X65309125Y102937281D01*
X65339907Y102911101D01*
X65341886Y102886017D01*
X65314267Y102843500D01*
X65304545Y102830506D01*
X65266704Y102787812D01*
X65225352Y102768501D01*
X65161143Y102765779D01*
X65125800Y102767742D01*
X65046828Y102769488D01*
X64998053Y102757091D01*
X64960006Y102724036D01*
X64946755Y102707826D01*
X64924802Y102675668D01*
X64909775Y102638438D01*
X64900386Y102586430D01*
X64895345Y102509938D01*
X64893364Y102399254D01*
X64893106Y102303842D01*
X64893106Y101968061D01*
X64692117Y101968061D01*
X64692117Y102973006D01*
X64792611Y102973006D01*
X64858411Y102968760D01*
G37*
X64858411Y102968760D02*
X64887479Y102951680D01*
X64893106Y102923128D01*
X64895281Y102891994D01*
X64910260Y102887106D01*
X64950723Y102908451D01*
X64974758Y102923035D01*
X65064924Y102958977D01*
X65166747Y102971646D01*
X65259904Y102960174D01*
X65309125Y102937281D01*
X65339907Y102911101D01*
X65341886Y102886017D01*
X65314267Y102843500D01*
X65304545Y102830506D01*
X65266704Y102787812D01*
X65225352Y102768501D01*
X65161143Y102765779D01*
X65125800Y102767742D01*
X65046828Y102769488D01*
X64998053Y102757091D01*
X64960006Y102724036D01*
X64946755Y102707826D01*
X64924802Y102675668D01*
X64909775Y102638438D01*
X64900386Y102586430D01*
X64895345Y102509938D01*
X64893364Y102399254D01*
X64893106Y102303842D01*
X64893106Y101968061D01*
X64692117Y101968061D01*
X64692117Y102973006D01*
X64792611Y102973006D01*
X64858411Y102968760D01*
G36*
X65972410Y102937680D02*
G01*
X66062810Y102885667D01*
X66154316Y102815873D01*
X66089177Y102750734D01*
X66043705Y102709160D01*
X66010176Y102700169D01*
X65965699Y102720131D01*
X65950888Y102728806D01*
X65842997Y102767696D01*
X65733772Y102763894D01*
X65637654Y102718183D01*
X65629373Y102711384D01*
X65592324Y102675285D01*
X65571155Y102636914D01*
X65561483Y102581297D01*
X65558926Y102493458D01*
X65558882Y102470534D01*
X65560537Y102374391D01*
X65568423Y102313488D01*
X65586924Y102272847D01*
X65620421Y102237495D01*
X65629373Y102229684D01*
X65723401Y102179852D01*
X65831970Y102171852D01*
X65940639Y102206466D01*
X65950888Y102212261D01*
X66001383Y102238618D01*
X66035449Y102236890D01*
X66075977Y102203450D01*
X66089177Y102190333D01*
X66154316Y102125195D01*
X66061413Y102054334D01*
X65956771Y102000947D01*
X65829599Y101974097D01*
X65701059Y101976224D01*
X65607884Y102002019D01*
X65498834Y102077266D01*
X65417850Y102185027D01*
X65366584Y102315071D01*
X65346688Y102457169D01*
X65359813Y102601089D01*
X65407610Y102736603D01*
X65473576Y102833979D01*
X65578055Y102917273D01*
X65704486Y102963063D01*
X65840171Y102970237D01*
X65972410Y102937680D01*
G37*
X65972410Y102937680D02*
X66062810Y102885667D01*
X66154316Y102815873D01*
X66089177Y102750734D01*
X66043705Y102709160D01*
X66010176Y102700169D01*
X65965699Y102720131D01*
X65950888Y102728806D01*
X65842997Y102767696D01*
X65733772Y102763894D01*
X65637654Y102718183D01*
X65629373Y102711384D01*
X65592324Y102675285D01*
X65571155Y102636914D01*
X65561483Y102581297D01*
X65558926Y102493458D01*
X65558882Y102470534D01*
X65560537Y102374391D01*
X65568423Y102313488D01*
X65586924Y102272847D01*
X65620421Y102237495D01*
X65629373Y102229684D01*
X65723401Y102179852D01*
X65831970Y102171852D01*
X65940639Y102206466D01*
X65950888Y102212261D01*
X66001383Y102238618D01*
X66035449Y102236890D01*
X66075977Y102203450D01*
X66089177Y102190333D01*
X66154316Y102125195D01*
X66061413Y102054334D01*
X65956771Y102000947D01*
X65829599Y101974097D01*
X65701059Y101976224D01*
X65607884Y102002019D01*
X65498834Y102077266D01*
X65417850Y102185027D01*
X65366584Y102315071D01*
X65346688Y102457169D01*
X65359813Y102601089D01*
X65407610Y102736603D01*
X65473576Y102833979D01*
X65578055Y102917273D01*
X65704486Y102963063D01*
X65840171Y102970237D01*
X65972410Y102937680D01*
G36*
X66725172Y102960159D02*
G01*
X66844169Y102905065D01*
X66948044Y102809221D01*
X66959866Y102793880D01*
X66997419Y102710521D01*
X67020072Y102584402D01*
X67022144Y102561486D01*
X67035495Y102395163D01*
X66395077Y102395163D01*
X66412320Y102326073D01*
X66458067Y102230043D01*
X66533485Y102170346D01*
X66630566Y102150068D01*
X66741305Y102172299D01*
X66773862Y102186656D01*
X66871340Y102234885D01*
X66942332Y102173820D01*
X66987195Y102132567D01*
X66996947Y102107749D01*
X66975113Y102083679D01*
X66964441Y102075412D01*
X66836106Y102005367D01*
X66691527Y101972236D01*
X66545813Y101977560D01*
X66419644Y102019877D01*
X66323027Y102094791D01*
X66258039Y102202546D01*
X66223149Y102346544D01*
X66215807Y102472991D01*
X66218514Y102581805D01*
X66223752Y102617458D01*
X66407495Y102617458D01*
X66414389Y102568920D01*
X66444547Y102558120D01*
X66511844Y102550037D01*
X66603191Y102546083D01*
X66628120Y102545905D01*
X66727677Y102546898D01*
X66787188Y102551654D01*
X66816841Y102562838D01*
X66826825Y102583114D01*
X66827626Y102598084D01*
X66807261Y102656462D01*
X66756875Y102719349D01*
X66692527Y102771229D01*
X66630281Y102796583D01*
X66621598Y102797141D01*
X66552359Y102779946D01*
X66486375Y102736314D01*
X66434476Y102678175D01*
X66407495Y102617458D01*
X66223752Y102617458D01*
X66229984Y102659866D01*
X66254407Y102726462D01*
X66281983Y102777486D01*
X66369460Y102883167D01*
X66478617Y102948988D01*
X66600255Y102974726D01*
X66725172Y102960159D01*
G37*
X66725172Y102960159D02*
X66844169Y102905065D01*
X66948044Y102809221D01*
X66959866Y102793880D01*
X66997419Y102710521D01*
X67020072Y102584402D01*
X67022144Y102561486D01*
X67035495Y102395163D01*
X66395077Y102395163D01*
X66412320Y102326073D01*
X66458067Y102230043D01*
X66533485Y102170346D01*
X66630566Y102150068D01*
X66741305Y102172299D01*
X66773862Y102186656D01*
X66871340Y102234885D01*
X66942332Y102173820D01*
X66987195Y102132567D01*
X66996947Y102107749D01*
X66975113Y102083679D01*
X66964441Y102075412D01*
X66836106Y102005367D01*
X66691527Y101972236D01*
X66545813Y101977560D01*
X66419644Y102019877D01*
X66323027Y102094791D01*
X66258039Y102202546D01*
X66223149Y102346544D01*
X66215807Y102472991D01*
X66218514Y102581805D01*
X66223752Y102617458D01*
X66407495Y102617458D01*
X66414389Y102568920D01*
X66444547Y102558120D01*
X66511844Y102550037D01*
X66603191Y102546083D01*
X66628120Y102545905D01*
X66727677Y102546898D01*
X66787188Y102551654D01*
X66816841Y102562838D01*
X66826825Y102583114D01*
X66827626Y102598084D01*
X66807261Y102656462D01*
X66756875Y102719349D01*
X66692527Y102771229D01*
X66630281Y102796583D01*
X66621598Y102797141D01*
X66552359Y102779946D01*
X66486375Y102736314D01*
X66434476Y102678175D01*
X66407495Y102617458D01*
X66223752Y102617458D01*
X66229984Y102659866D01*
X66254407Y102726462D01*
X66281983Y102777486D01*
X66369460Y102883167D01*
X66478617Y102948988D01*
X66600255Y102974726D01*
X66725172Y102960159D01*
G36*
X62241626Y110429209D02*
G01*
X62256938Y110429005D01*
X62745035Y110422166D01*
X62774184Y110296547D01*
X62789360Y110226171D01*
X62811014Y110119182D01*
X62836614Y109988400D01*
X62863624Y109846646D01*
X62872585Y109798730D01*
X62941836Y109426531D01*
X63031863Y109382178D01*
X63092181Y109354549D01*
X63185327Y109314305D01*
X63297425Y109267362D01*
X63389306Y109229814D01*
X63656723Y109121802D01*
X64068477Y109401410D01*
X64195924Y109487146D01*
X64309840Y109562248D01*
X64403510Y109622411D01*
X64470216Y109663333D01*
X64503241Y109680709D01*
X64504858Y109681018D01*
X64529417Y109664002D01*
X64583385Y109616575D01*
X64660954Y109544172D01*
X64756319Y109452225D01*
X64863674Y109346169D01*
X64878307Y109331529D01*
X65227127Y108982040D01*
X65017515Y108672034D01*
X64936956Y108553313D01*
X64860236Y108441006D01*
X64794646Y108345737D01*
X64747478Y108278127D01*
X64737449Y108264044D01*
X64695906Y108201522D01*
X64670599Y108154278D01*
X64666993Y108141533D01*
X64676626Y108109567D01*
X64702588Y108042064D01*
X64740474Y107949261D01*
X64785880Y107841391D01*
X64834402Y107728689D01*
X64881635Y107621389D01*
X64923175Y107529727D01*
X64954616Y107463936D01*
X64971231Y107434594D01*
X65001340Y107422867D01*
X65072848Y107403947D01*
X65177727Y107379688D01*
X65307948Y107351941D01*
X65455485Y107322560D01*
X65462739Y107321165D01*
X65626474Y107289397D01*
X65747561Y107264638D01*
X65832764Y107244768D01*
X65888846Y107227671D01*
X65922572Y107211229D01*
X65940705Y107193323D01*
X65950009Y107171837D01*
X65951031Y107168282D01*
X65957819Y107117574D01*
X65962880Y107027959D01*
X65966214Y106910748D01*
X65967824Y106777250D01*
X65967709Y106638776D01*
X65965871Y106506636D01*
X65962310Y106392140D01*
X65957027Y106306600D01*
X65950960Y106264278D01*
X65942273Y106241598D01*
X65925780Y106223125D01*
X65894544Y106206690D01*
X65841627Y106190124D01*
X65760093Y106171256D01*
X65643005Y106147919D01*
X65483427Y106117942D01*
X65482396Y106117750D01*
X65336580Y106089406D01*
X65207095Y106061859D01*
X65102396Y106037099D01*
X65030935Y106017115D01*
X65001776Y106004619D01*
X64982576Y105971952D01*
X64949176Y105901319D01*
X64905526Y105801609D01*
X64855576Y105681713D01*
X64828682Y105614992D01*
X64685098Y105254702D01*
X65228680Y104452374D01*
X64879083Y104102107D01*
X64770646Y103994525D01*
X64673663Y103900321D01*
X64593884Y103824916D01*
X64537056Y103773730D01*
X64508928Y103752182D01*
X64507616Y103751839D01*
X64480673Y103765258D01*
X64419313Y103802512D01*
X64330612Y103859095D01*
X64221645Y103930502D01*
X64113050Y104003076D01*
X63991399Y104084024D01*
X63883048Y104154128D01*
X63795238Y104208864D01*
X63735211Y104243704D01*
X63711070Y104254312D01*
X63676256Y104242904D01*
X63610706Y104212713D01*
X63527367Y104169785D01*
X63510284Y104160521D01*
X63428237Y104117780D01*
X63364589Y104088614D01*
X63330635Y104078091D01*
X63328188Y104078869D01*
X63315203Y104105605D01*
X63286085Y104172241D01*
X63243525Y104272246D01*
X63190212Y104399088D01*
X63128836Y104546233D01*
X63062088Y104707151D01*
X62992657Y104875308D01*
X62923234Y105044172D01*
X62856509Y105207212D01*
X62795172Y105357894D01*
X62741913Y105489688D01*
X62699422Y105596060D01*
X62670389Y105670478D01*
X62657505Y105706410D01*
X62657102Y105708428D01*
X62676205Y105733263D01*
X62726850Y105777763D01*
X62799046Y105833322D01*
X62817869Y105846917D01*
X62993264Y105999866D01*
X63127651Y106175477D01*
X63220373Y106367800D01*
X63270774Y106570886D01*
X63278200Y106778786D01*
X63241994Y106985552D01*
X63161502Y107185234D01*
X63036066Y107371883D01*
X62991491Y107422402D01*
X62819758Y107570929D01*
X62625182Y107675102D01*
X62410979Y107733530D01*
X62242562Y107746498D01*
X62023780Y107723336D01*
X61822939Y107657479D01*
X61643801Y107554371D01*
X61490128Y107419456D01*
X61365684Y107258180D01*
X61274229Y107075986D01*
X61219528Y106878318D01*
X61205342Y106670621D01*
X61235433Y106458339D01*
X61272024Y106342118D01*
X61371124Y106151067D01*
X61515797Y105976963D01*
X61663163Y105851752D01*
X61739637Y105792962D01*
X61797262Y105743626D01*
X61826324Y105712233D01*
X61828022Y105707689D01*
X61818786Y105680728D01*
X61792869Y105613933D01*
X61752959Y105513831D01*
X61701744Y105386952D01*
X61641912Y105239824D01*
X61576150Y105078977D01*
X61507147Y104910940D01*
X61437589Y104742242D01*
X61370165Y104579412D01*
X61307562Y104428979D01*
X61252469Y104297472D01*
X61207572Y104191419D01*
X61175561Y104117351D01*
X61159121Y104081795D01*
X61157893Y104079826D01*
X61132948Y104085579D01*
X61075459Y104110866D01*
X60996693Y104150620D01*
X60976380Y104161478D01*
X60890708Y104205752D01*
X60820187Y104238551D01*
X60777897Y104253872D01*
X60774126Y104254312D01*
X60744381Y104240793D01*
X60680566Y104203272D01*
X60589950Y104146309D01*
X60479805Y104074460D01*
X60373289Y104003076D01*
X60252560Y103922059D01*
X60145606Y103851909D01*
X60059546Y103797164D01*
X60001497Y103762363D01*
X59979234Y103751839D01*
X59955006Y103768851D01*
X59901330Y103816269D01*
X59823988Y103888670D01*
X59728759Y103980628D01*
X59621422Y104086719D01*
X59606040Y104102107D01*
X59256443Y104452374D01*
X59528235Y104853538D01*
X59800026Y105254702D01*
X59656442Y105614992D01*
X59604779Y105741869D01*
X59557386Y105853193D01*
X59518211Y105940058D01*
X59491208Y105993557D01*
X59483348Y106005173D01*
X59450116Y106019151D01*
X59375830Y106039721D01*
X59268942Y106064884D01*
X59137907Y106092641D01*
X59002591Y106118881D01*
X58842675Y106148924D01*
X58725298Y106172328D01*
X58643528Y106191250D01*
X58590435Y106207852D01*
X58559087Y106224291D01*
X58542551Y106242728D01*
X58534027Y106264855D01*
X58527280Y106315367D01*
X58522244Y106404791D01*
X58518918Y106521823D01*
X58517303Y106655158D01*
X58517399Y106793494D01*
X58519207Y106925525D01*
X58522726Y107039947D01*
X58527957Y107125456D01*
X58534013Y107167940D01*
X58543100Y107191021D01*
X58560635Y107209825D01*
X58593755Y107226662D01*
X58649595Y107243843D01*
X58735292Y107263678D01*
X58857980Y107288478D01*
X58977453Y107311513D01*
X59121274Y107339182D01*
X59250953Y107364447D01*
X59357116Y107385457D01*
X59430391Y107400362D01*
X59458286Y107406460D01*
X59483352Y107417692D01*
X59508960Y107442560D01*
X59538215Y107486900D01*
X59574225Y107556550D01*
X59620093Y107657345D01*
X59678925Y107795124D01*
X59728512Y107914347D01*
X59823848Y108145004D01*
X59590410Y108492190D01*
X59508299Y108613950D01*
X59432308Y108725968D01*
X59368452Y108819429D01*
X59322743Y108885520D01*
X59305948Y108909168D01*
X59254923Y108978960D01*
X59605617Y109330946D01*
X59738678Y109461953D01*
X59847104Y109563353D01*
X59928422Y109632981D01*
X59980158Y109668670D01*
X59996009Y109672882D01*
X60028466Y109656048D01*
X60095046Y109615212D01*
X60188577Y109554996D01*
X60301885Y109480020D01*
X60427795Y109394906D01*
X60432645Y109391593D01*
X60829582Y109120355D01*
X61159217Y109253430D01*
X61280453Y109303457D01*
X61386017Y109349046D01*
X61466536Y109386000D01*
X61512640Y109410119D01*
X61518577Y109414424D01*
X61532295Y109446913D01*
X61552780Y109520732D01*
X61578107Y109627720D01*
X61606351Y109759717D01*
X61635588Y109908563D01*
X61637333Y109917856D01*
X61666091Y110066853D01*
X61693224Y110198973D01*
X61716955Y110306210D01*
X61735506Y110380556D01*
X61747101Y110414006D01*
X61747603Y110414606D01*
X61778249Y110420842D01*
X61851050Y110425649D01*
X61957931Y110428798D01*
X62090816Y110430060D01*
X62241626Y110429209D01*
G37*
X62241626Y110429209D02*
X62256938Y110429005D01*
X62745035Y110422166D01*
X62774184Y110296547D01*
X62789360Y110226171D01*
X62811014Y110119182D01*
X62836614Y109988400D01*
X62863624Y109846646D01*
X62872585Y109798730D01*
X62941836Y109426531D01*
X63031863Y109382178D01*
X63092181Y109354549D01*
X63185327Y109314305D01*
X63297425Y109267362D01*
X63389306Y109229814D01*
X63656723Y109121802D01*
X64068477Y109401410D01*
X64195924Y109487146D01*
X64309840Y109562248D01*
X64403510Y109622411D01*
X64470216Y109663333D01*
X64503241Y109680709D01*
X64504858Y109681018D01*
X64529417Y109664002D01*
X64583385Y109616575D01*
X64660954Y109544172D01*
X64756319Y109452225D01*
X64863674Y109346169D01*
X64878307Y109331529D01*
X65227127Y108982040D01*
X65017515Y108672034D01*
X64936956Y108553313D01*
X64860236Y108441006D01*
X64794646Y108345737D01*
X64747478Y108278127D01*
X64737449Y108264044D01*
X64695906Y108201522D01*
X64670599Y108154278D01*
X64666993Y108141533D01*
X64676626Y108109567D01*
X64702588Y108042064D01*
X64740474Y107949261D01*
X64785880Y107841391D01*
X64834402Y107728689D01*
X64881635Y107621389D01*
X64923175Y107529727D01*
X64954616Y107463936D01*
X64971231Y107434594D01*
X65001340Y107422867D01*
X65072848Y107403947D01*
X65177727Y107379688D01*
X65307948Y107351941D01*
X65455485Y107322560D01*
X65462739Y107321165D01*
X65626474Y107289397D01*
X65747561Y107264638D01*
X65832764Y107244768D01*
X65888846Y107227671D01*
X65922572Y107211229D01*
X65940705Y107193323D01*
X65950009Y107171837D01*
X65951031Y107168282D01*
X65957819Y107117574D01*
X65962880Y107027959D01*
X65966214Y106910748D01*
X65967824Y106777250D01*
X65967709Y106638776D01*
X65965871Y106506636D01*
X65962310Y106392140D01*
X65957027Y106306600D01*
X65950960Y106264278D01*
X65942273Y106241598D01*
X65925780Y106223125D01*
X65894544Y106206690D01*
X65841627Y106190124D01*
X65760093Y106171256D01*
X65643005Y106147919D01*
X65483427Y106117942D01*
X65482396Y106117750D01*
X65336580Y106089406D01*
X65207095Y106061859D01*
X65102396Y106037099D01*
X65030935Y106017115D01*
X65001776Y106004619D01*
X64982576Y105971952D01*
X64949176Y105901319D01*
X64905526Y105801609D01*
X64855576Y105681713D01*
X64828682Y105614992D01*
X64685098Y105254702D01*
X65228680Y104452374D01*
X64879083Y104102107D01*
X64770646Y103994525D01*
X64673663Y103900321D01*
X64593884Y103824916D01*
X64537056Y103773730D01*
X64508928Y103752182D01*
X64507616Y103751839D01*
X64480673Y103765258D01*
X64419313Y103802512D01*
X64330612Y103859095D01*
X64221645Y103930502D01*
X64113050Y104003076D01*
X63991399Y104084024D01*
X63883048Y104154128D01*
X63795238Y104208864D01*
X63735211Y104243704D01*
X63711070Y104254312D01*
X63676256Y104242904D01*
X63610706Y104212713D01*
X63527367Y104169785D01*
X63510284Y104160521D01*
X63428237Y104117780D01*
X63364589Y104088614D01*
X63330635Y104078091D01*
X63328188Y104078869D01*
X63315203Y104105605D01*
X63286085Y104172241D01*
X63243525Y104272246D01*
X63190212Y104399088D01*
X63128836Y104546233D01*
X63062088Y104707151D01*
X62992657Y104875308D01*
X62923234Y105044172D01*
X62856509Y105207212D01*
X62795172Y105357894D01*
X62741913Y105489688D01*
X62699422Y105596060D01*
X62670389Y105670478D01*
X62657505Y105706410D01*
X62657102Y105708428D01*
X62676205Y105733263D01*
X62726850Y105777763D01*
X62799046Y105833322D01*
X62817869Y105846917D01*
X62993264Y105999866D01*
X63127651Y106175477D01*
X63220373Y106367800D01*
X63270774Y106570886D01*
X63278200Y106778786D01*
X63241994Y106985552D01*
X63161502Y107185234D01*
X63036066Y107371883D01*
X62991491Y107422402D01*
X62819758Y107570929D01*
X62625182Y107675102D01*
X62410979Y107733530D01*
X62242562Y107746498D01*
X62023780Y107723336D01*
X61822939Y107657479D01*
X61643801Y107554371D01*
X61490128Y107419456D01*
X61365684Y107258180D01*
X61274229Y107075986D01*
X61219528Y106878318D01*
X61205342Y106670621D01*
X61235433Y106458339D01*
X61272024Y106342118D01*
X61371124Y106151067D01*
X61515797Y105976963D01*
X61663163Y105851752D01*
X61739637Y105792962D01*
X61797262Y105743626D01*
X61826324Y105712233D01*
X61828022Y105707689D01*
X61818786Y105680728D01*
X61792869Y105613933D01*
X61752959Y105513831D01*
X61701744Y105386952D01*
X61641912Y105239824D01*
X61576150Y105078977D01*
X61507147Y104910940D01*
X61437589Y104742242D01*
X61370165Y104579412D01*
X61307562Y104428979D01*
X61252469Y104297472D01*
X61207572Y104191419D01*
X61175561Y104117351D01*
X61159121Y104081795D01*
X61157893Y104079826D01*
X61132948Y104085579D01*
X61075459Y104110866D01*
X60996693Y104150620D01*
X60976380Y104161478D01*
X60890708Y104205752D01*
X60820187Y104238551D01*
X60777897Y104253872D01*
X60774126Y104254312D01*
X60744381Y104240793D01*
X60680566Y104203272D01*
X60589950Y104146309D01*
X60479805Y104074460D01*
X60373289Y104003076D01*
X60252560Y103922059D01*
X60145606Y103851909D01*
X60059546Y103797164D01*
X60001497Y103762363D01*
X59979234Y103751839D01*
X59955006Y103768851D01*
X59901330Y103816269D01*
X59823988Y103888670D01*
X59728759Y103980628D01*
X59621422Y104086719D01*
X59606040Y104102107D01*
X59256443Y104452374D01*
X59528235Y104853538D01*
X59800026Y105254702D01*
X59656442Y105614992D01*
X59604779Y105741869D01*
X59557386Y105853193D01*
X59518211Y105940058D01*
X59491208Y105993557D01*
X59483348Y106005173D01*
X59450116Y106019151D01*
X59375830Y106039721D01*
X59268942Y106064884D01*
X59137907Y106092641D01*
X59002591Y106118881D01*
X58842675Y106148924D01*
X58725298Y106172328D01*
X58643528Y106191250D01*
X58590435Y106207852D01*
X58559087Y106224291D01*
X58542551Y106242728D01*
X58534027Y106264855D01*
X58527280Y106315367D01*
X58522244Y106404791D01*
X58518918Y106521823D01*
X58517303Y106655158D01*
X58517399Y106793494D01*
X58519207Y106925525D01*
X58522726Y107039947D01*
X58527957Y107125456D01*
X58534013Y107167940D01*
X58543100Y107191021D01*
X58560635Y107209825D01*
X58593755Y107226662D01*
X58649595Y107243843D01*
X58735292Y107263678D01*
X58857980Y107288478D01*
X58977453Y107311513D01*
X59121274Y107339182D01*
X59250953Y107364447D01*
X59357116Y107385457D01*
X59430391Y107400362D01*
X59458286Y107406460D01*
X59483352Y107417692D01*
X59508960Y107442560D01*
X59538215Y107486900D01*
X59574225Y107556550D01*
X59620093Y107657345D01*
X59678925Y107795124D01*
X59728512Y107914347D01*
X59823848Y108145004D01*
X59590410Y108492190D01*
X59508299Y108613950D01*
X59432308Y108725968D01*
X59368452Y108819429D01*
X59322743Y108885520D01*
X59305948Y108909168D01*
X59254923Y108978960D01*
X59605617Y109330946D01*
X59738678Y109461953D01*
X59847104Y109563353D01*
X59928422Y109632981D01*
X59980158Y109668670D01*
X59996009Y109672882D01*
X60028466Y109656048D01*
X60095046Y109615212D01*
X60188577Y109554996D01*
X60301885Y109480020D01*
X60427795Y109394906D01*
X60432645Y109391593D01*
X60829582Y109120355D01*
X61159217Y109253430D01*
X61280453Y109303457D01*
X61386017Y109349046D01*
X61466536Y109386000D01*
X61512640Y109410119D01*
X61518577Y109414424D01*
X61532295Y109446913D01*
X61552780Y109520732D01*
X61578107Y109627720D01*
X61606351Y109759717D01*
X61635588Y109908563D01*
X61637333Y109917856D01*
X61666091Y110066853D01*
X61693224Y110198973D01*
X61716955Y110306210D01*
X61735506Y110380556D01*
X61747101Y110414006D01*
X61747603Y110414606D01*
X61778249Y110420842D01*
X61851050Y110425649D01*
X61957931Y110428798D01*
X62090816Y110430060D01*
X62241626Y110429209D01*
G36*
X15932830Y50688430D02*
G01*
X16418549Y50596137D01*
X16896826Y50455547D01*
X17302373Y50294804D01*
X17734660Y50074729D01*
X18144060Y49811756D01*
X18526932Y49509400D01*
X18879637Y49171176D01*
X19198534Y48800602D01*
X19479984Y48401192D01*
X19720346Y47976463D01*
X19736736Y47943442D01*
X19934677Y47486049D01*
X20084591Y47020245D01*
X20187379Y46549060D01*
X20243941Y46075523D01*
X20255176Y45602666D01*
X20221985Y45133519D01*
X20145269Y44671112D01*
X20025928Y44218476D01*
X19864861Y43778642D01*
X19662970Y43354640D01*
X19421154Y42949499D01*
X19140314Y42566252D01*
X18821349Y42207928D01*
X18465161Y41877558D01*
X18072649Y41578171D01*
X17792284Y41397916D01*
X17375707Y41177113D01*
X16933558Y40996549D01*
X16472148Y40857624D01*
X15997789Y40761742D01*
X15516791Y40710304D01*
X15035467Y40704712D01*
X14755544Y40723325D01*
X14267718Y40795011D01*
X13794329Y40913374D01*
X13338151Y41076216D01*
X12901963Y41281340D01*
X12488539Y41526548D01*
X12100655Y41809640D01*
X11741089Y42128419D01*
X11412615Y42480688D01*
X11118011Y42864247D01*
X11091816Y42906152D01*
X12390832Y42906152D01*
X12490144Y42803272D01*
X12644190Y42661724D01*
X12836120Y42513897D01*
X13055212Y42366249D01*
X13290746Y42225240D01*
X13532000Y42097330D01*
X13768253Y41988978D01*
X13965888Y41914141D01*
X14381638Y41800363D01*
X14808614Y41731203D01*
X15237503Y41707713D01*
X15620474Y41726801D01*
X15955615Y41772642D01*
X16266110Y41841205D01*
X16568043Y41937197D01*
X16877497Y42065324D01*
X17036906Y42141342D01*
X17227573Y42243905D01*
X17424889Y42364516D01*
X17616896Y42494869D01*
X17791638Y42626658D01*
X17937157Y42751578D01*
X17989857Y42803272D01*
X18089169Y42906152D01*
X12390832Y42906152D01*
X11091816Y42906152D01*
X10860052Y43276899D01*
X10641514Y43716446D01*
X10492541Y44098705D01*
X10355400Y44573747D01*
X10354015Y44581274D01*
X11396084Y44581274D01*
X11405250Y44542378D01*
X11429877Y44468526D01*
X11465659Y44370960D01*
X11508289Y44260919D01*
X11553460Y44149645D01*
X11596866Y44048378D01*
X11618307Y44001273D01*
X11719431Y43785479D01*
X14170616Y43785479D01*
X14516874Y43785621D01*
X14848560Y43786034D01*
X15162270Y43786697D01*
X15454598Y43787592D01*
X15722139Y43788698D01*
X15961487Y43789996D01*
X16169237Y43791466D01*
X16341984Y43793089D01*
X16476323Y43794845D01*
X16568849Y43796714D01*
X16616155Y43798677D01*
X16621801Y43799639D01*
X16609642Y43824807D01*
X16575882Y43886009D01*
X16524592Y43976085D01*
X16459844Y44087877D01*
X16393148Y44201617D01*
X16164496Y44589436D01*
X13780290Y44589436D01*
X13438888Y44589352D01*
X13112105Y44589107D01*
X12803394Y44588715D01*
X12516207Y44588186D01*
X12253997Y44587532D01*
X12020217Y44586765D01*
X11818321Y44585897D01*
X11651759Y44584940D01*
X11523986Y44583906D01*
X11438455Y44582806D01*
X11398617Y44581652D01*
X11396084Y44581274D01*
X10354015Y44581274D01*
X10266848Y45054888D01*
X10226132Y45538745D01*
X10227043Y45607952D01*
X11229577Y45607952D01*
X11241131Y45409126D01*
X11257353Y45256058D01*
X11277082Y45106106D01*
X11298895Y44966779D01*
X11321369Y44845581D01*
X11343082Y44750019D01*
X11362612Y44687600D01*
X11378535Y44665828D01*
X11381669Y44667492D01*
X11395227Y44690120D01*
X11432284Y44753516D01*
X11491240Y44854916D01*
X11570497Y44991555D01*
X11668456Y45160671D01*
X11783519Y45359499D01*
X11862924Y45496808D01*
X12869759Y45496808D01*
X12875837Y45485602D01*
X12900109Y45478052D01*
X12948800Y45473642D01*
X13028133Y45471858D01*
X13144331Y45472184D01*
X13303619Y45474107D01*
X13331321Y45474497D01*
X13811739Y45481325D01*
X13814429Y45485983D01*
X14838022Y45485983D01*
X14861743Y45480169D01*
X14927301Y45475193D01*
X15026287Y45471416D01*
X15150293Y45469198D01*
X15240000Y45468763D01*
X15375725Y45469779D01*
X15491875Y45472588D01*
X15580043Y45476828D01*
X15631821Y45482140D01*
X15641979Y45485983D01*
X15630005Y45515595D01*
X15597622Y45577880D01*
X15550135Y45663779D01*
X15492850Y45764236D01*
X15431073Y45870192D01*
X15370110Y45972588D01*
X15315266Y46062369D01*
X15271848Y46130474D01*
X15245160Y46167847D01*
X15240000Y46172225D01*
X15222655Y46151784D01*
X15186170Y46096501D01*
X15135853Y46015433D01*
X15077009Y45917639D01*
X15014944Y45812175D01*
X14954963Y45708101D01*
X14902373Y45614474D01*
X14862479Y45540351D01*
X14840587Y45494792D01*
X14838022Y45485983D01*
X13814429Y45485983D01*
X14733981Y47077928D01*
X15767597Y47077928D01*
X15779825Y47053113D01*
X15815137Y46988391D01*
X15871470Y46887361D01*
X15946763Y46753619D01*
X16038955Y46590762D01*
X16145985Y46402389D01*
X16265790Y46192095D01*
X16396311Y45963478D01*
X16535485Y45720137D01*
X16681251Y45465667D01*
X16831549Y45203666D01*
X16984315Y44937732D01*
X17137490Y44671461D01*
X17289012Y44408451D01*
X17436819Y44152300D01*
X17578851Y43906603D01*
X17713045Y43674960D01*
X17837341Y43460967D01*
X17949677Y43268221D01*
X17999019Y43183837D01*
X18137984Y42946487D01*
X18260879Y43083342D01*
X18332633Y43168788D01*
X18416807Y43277285D01*
X18498653Y43389615D01*
X18523648Y43425734D01*
X18584928Y43521445D01*
X18628371Y43600761D01*
X18649061Y43654190D01*
X18649292Y43668353D01*
X18634184Y43696941D01*
X18596076Y43765140D01*
X18537090Y43869273D01*
X18459351Y44005665D01*
X18364980Y44170638D01*
X18256102Y44360518D01*
X18134838Y44571628D01*
X18003312Y44800293D01*
X17863646Y45042836D01*
X17717965Y45295581D01*
X17568390Y45554853D01*
X17417044Y45816976D01*
X17266052Y46078274D01*
X17117535Y46335070D01*
X16973616Y46583689D01*
X16836420Y46820454D01*
X16708068Y47041691D01*
X16590683Y47243722D01*
X16486389Y47422873D01*
X16397308Y47575466D01*
X16325564Y47697827D01*
X16273279Y47786279D01*
X16242577Y47837146D01*
X16235283Y47848227D01*
X16218412Y47848750D01*
X16190196Y47821391D01*
X16147877Y47762198D01*
X16088694Y47667221D01*
X16009891Y47532510D01*
X15987429Y47493261D01*
X15916129Y47366643D01*
X15854480Y47254057D01*
X15806525Y47163142D01*
X15776310Y47101541D01*
X15767597Y47077928D01*
X14733981Y47077928D01*
X15001733Y47541463D01*
X15172180Y47837042D01*
X15334963Y48120301D01*
X15488375Y48388217D01*
X15630714Y48637770D01*
X15760273Y48865937D01*
X15875348Y49069696D01*
X15974233Y49246027D01*
X16055225Y49391908D01*
X16116617Y49504316D01*
X16156706Y49580230D01*
X16162381Y49592326D01*
X16249404Y49592326D01*
X16266773Y49558610D01*
X16307083Y49485874D01*
X16368394Y49377446D01*
X16448766Y49236653D01*
X16546257Y49066822D01*
X16658928Y48871281D01*
X16784837Y48653357D01*
X16922045Y48416377D01*
X17068611Y48163669D01*
X17222594Y47898559D01*
X17382054Y47624376D01*
X17545050Y47344447D01*
X17709643Y47062099D01*
X17873890Y46780659D01*
X18035853Y46503455D01*
X18193590Y46233813D01*
X18345160Y45975062D01*
X18488625Y45730528D01*
X18622042Y45503539D01*
X18743471Y45297423D01*
X18850972Y45115506D01*
X18942605Y44961116D01*
X19016428Y44837580D01*
X19070502Y44748225D01*
X19102886Y44696380D01*
X19111867Y44684139D01*
X19125326Y44716267D01*
X19144809Y44783519D01*
X19166261Y44871794D01*
X19167723Y44878358D01*
X19232681Y45280884D01*
X19254347Y45698582D01*
X19233077Y46121731D01*
X19169228Y46540611D01*
X19095871Y46838339D01*
X18952471Y47246997D01*
X18765395Y47636789D01*
X18538024Y48003958D01*
X18273736Y48344748D01*
X17975911Y48655402D01*
X17647928Y48932165D01*
X17293166Y49171280D01*
X16915005Y49368991D01*
X16759981Y49434833D01*
X16612398Y49491647D01*
X16481659Y49538389D01*
X16374154Y49573087D01*
X16296274Y49593772D01*
X16254408Y49598470D01*
X16249404Y49592326D01*
X16162381Y49592326D01*
X16173785Y49616628D01*
X16174159Y49619399D01*
X16138239Y49634273D01*
X16063487Y49651890D01*
X15961120Y49670539D01*
X15842357Y49688510D01*
X15718414Y49704090D01*
X15600510Y49715570D01*
X15507964Y49721009D01*
X15311140Y49727220D01*
X14105771Y47641958D01*
X13933378Y47343705D01*
X13767848Y47057291D01*
X13610948Y46785775D01*
X13464443Y46532217D01*
X13330103Y46299675D01*
X13209692Y46091208D01*
X13104979Y45909877D01*
X13017729Y45758739D01*
X12949711Y45640855D01*
X12902691Y45559283D01*
X12878435Y45517083D01*
X12875652Y45512183D01*
X12869759Y45496808D01*
X11862924Y45496808D01*
X11914086Y45585276D01*
X12058560Y45835238D01*
X12215343Y46106622D01*
X12382834Y46396663D01*
X12559436Y46702599D01*
X12743549Y47021665D01*
X12802150Y47123243D01*
X12988018Y47445753D01*
X13166501Y47756055D01*
X13336027Y48051384D01*
X13495025Y48328976D01*
X13641923Y48586066D01*
X13775149Y48819891D01*
X13893132Y49027684D01*
X13994299Y49206683D01*
X14077080Y49354123D01*
X14139903Y49467238D01*
X14181196Y49543266D01*
X14199388Y49579441D01*
X14200082Y49582141D01*
X14168666Y49582425D01*
X14100080Y49565588D01*
X14003128Y49534779D01*
X13886617Y49493144D01*
X13759355Y49443832D01*
X13630146Y49389990D01*
X13507798Y49334766D01*
X13507174Y49334470D01*
X13129454Y49128307D01*
X12776760Y48880880D01*
X12452244Y48596161D01*
X12159056Y48278122D01*
X11900346Y47930735D01*
X11679264Y47557971D01*
X11498961Y47163801D01*
X11362586Y46752198D01*
X11319467Y46576447D01*
X11264778Y46261026D01*
X11234342Y45931151D01*
X11229577Y45607952D01*
X10227043Y45607952D01*
X10232495Y46021933D01*
X10285185Y46501069D01*
X10383445Y46972768D01*
X10526522Y47433647D01*
X10713661Y47880322D01*
X10944107Y48309408D01*
X11217105Y48717521D01*
X11531902Y49101279D01*
X11632099Y49208777D01*
X11894687Y49458883D01*
X12192789Y49701903D01*
X12511796Y49927244D01*
X12837096Y50124315D01*
X13041682Y50230635D01*
X13504762Y50427116D01*
X13979625Y50575588D01*
X14463068Y50676004D01*
X14951885Y50728315D01*
X15442874Y50732473D01*
X15932830Y50688430D01*
G37*
X15932830Y50688430D02*
X16418549Y50596137D01*
X16896826Y50455547D01*
X17302373Y50294804D01*
X17734660Y50074729D01*
X18144060Y49811756D01*
X18526932Y49509400D01*
X18879637Y49171176D01*
X19198534Y48800602D01*
X19479984Y48401192D01*
X19720346Y47976463D01*
X19736736Y47943442D01*
X19934677Y47486049D01*
X20084591Y47020245D01*
X20187379Y46549060D01*
X20243941Y46075523D01*
X20255176Y45602666D01*
X20221985Y45133519D01*
X20145269Y44671112D01*
X20025928Y44218476D01*
X19864861Y43778642D01*
X19662970Y43354640D01*
X19421154Y42949499D01*
X19140314Y42566252D01*
X18821349Y42207928D01*
X18465161Y41877558D01*
X18072649Y41578171D01*
X17792284Y41397916D01*
X17375707Y41177113D01*
X16933558Y40996549D01*
X16472148Y40857624D01*
X15997789Y40761742D01*
X15516791Y40710304D01*
X15035467Y40704712D01*
X14755544Y40723325D01*
X14267718Y40795011D01*
X13794329Y40913374D01*
X13338151Y41076216D01*
X12901963Y41281340D01*
X12488539Y41526548D01*
X12100655Y41809640D01*
X11741089Y42128419D01*
X11412615Y42480688D01*
X11118011Y42864247D01*
X11091816Y42906152D01*
X12390832Y42906152D01*
X12490144Y42803272D01*
X12644190Y42661724D01*
X12836120Y42513897D01*
X13055212Y42366249D01*
X13290746Y42225240D01*
X13532000Y42097330D01*
X13768253Y41988978D01*
X13965888Y41914141D01*
X14381638Y41800363D01*
X14808614Y41731203D01*
X15237503Y41707713D01*
X15620474Y41726801D01*
X15955615Y41772642D01*
X16266110Y41841205D01*
X16568043Y41937197D01*
X16877497Y42065324D01*
X17036906Y42141342D01*
X17227573Y42243905D01*
X17424889Y42364516D01*
X17616896Y42494869D01*
X17791638Y42626658D01*
X17937157Y42751578D01*
X17989857Y42803272D01*
X18089169Y42906152D01*
X12390832Y42906152D01*
X11091816Y42906152D01*
X10860052Y43276899D01*
X10641514Y43716446D01*
X10492541Y44098705D01*
X10355400Y44573747D01*
X10354015Y44581274D01*
X11396084Y44581274D01*
X11405250Y44542378D01*
X11429877Y44468526D01*
X11465659Y44370960D01*
X11508289Y44260919D01*
X11553460Y44149645D01*
X11596866Y44048378D01*
X11618307Y44001273D01*
X11719431Y43785479D01*
X14170616Y43785479D01*
X14516874Y43785621D01*
X14848560Y43786034D01*
X15162270Y43786697D01*
X15454598Y43787592D01*
X15722139Y43788698D01*
X15961487Y43789996D01*
X16169237Y43791466D01*
X16341984Y43793089D01*
X16476323Y43794845D01*
X16568849Y43796714D01*
X16616155Y43798677D01*
X16621801Y43799639D01*
X16609642Y43824807D01*
X16575882Y43886009D01*
X16524592Y43976085D01*
X16459844Y44087877D01*
X16393148Y44201617D01*
X16164496Y44589436D01*
X13780290Y44589436D01*
X13438888Y44589352D01*
X13112105Y44589107D01*
X12803394Y44588715D01*
X12516207Y44588186D01*
X12253997Y44587532D01*
X12020217Y44586765D01*
X11818321Y44585897D01*
X11651759Y44584940D01*
X11523986Y44583906D01*
X11438455Y44582806D01*
X11398617Y44581652D01*
X11396084Y44581274D01*
X10354015Y44581274D01*
X10266848Y45054888D01*
X10226132Y45538745D01*
X10227043Y45607952D01*
X11229577Y45607952D01*
X11241131Y45409126D01*
X11257353Y45256058D01*
X11277082Y45106106D01*
X11298895Y44966779D01*
X11321369Y44845581D01*
X11343082Y44750019D01*
X11362612Y44687600D01*
X11378535Y44665828D01*
X11381669Y44667492D01*
X11395227Y44690120D01*
X11432284Y44753516D01*
X11491240Y44854916D01*
X11570497Y44991555D01*
X11668456Y45160671D01*
X11783519Y45359499D01*
X11862924Y45496808D01*
X12869759Y45496808D01*
X12875837Y45485602D01*
X12900109Y45478052D01*
X12948800Y45473642D01*
X13028133Y45471858D01*
X13144331Y45472184D01*
X13303619Y45474107D01*
X13331321Y45474497D01*
X13811739Y45481325D01*
X13814429Y45485983D01*
X14838022Y45485983D01*
X14861743Y45480169D01*
X14927301Y45475193D01*
X15026287Y45471416D01*
X15150293Y45469198D01*
X15240000Y45468763D01*
X15375725Y45469779D01*
X15491875Y45472588D01*
X15580043Y45476828D01*
X15631821Y45482140D01*
X15641979Y45485983D01*
X15630005Y45515595D01*
X15597622Y45577880D01*
X15550135Y45663779D01*
X15492850Y45764236D01*
X15431073Y45870192D01*
X15370110Y45972588D01*
X15315266Y46062369D01*
X15271848Y46130474D01*
X15245160Y46167847D01*
X15240000Y46172225D01*
X15222655Y46151784D01*
X15186170Y46096501D01*
X15135853Y46015433D01*
X15077009Y45917639D01*
X15014944Y45812175D01*
X14954963Y45708101D01*
X14902373Y45614474D01*
X14862479Y45540351D01*
X14840587Y45494792D01*
X14838022Y45485983D01*
X13814429Y45485983D01*
X14733981Y47077928D01*
X15767597Y47077928D01*
X15779825Y47053113D01*
X15815137Y46988391D01*
X15871470Y46887361D01*
X15946763Y46753619D01*
X16038955Y46590762D01*
X16145985Y46402389D01*
X16265790Y46192095D01*
X16396311Y45963478D01*
X16535485Y45720137D01*
X16681251Y45465667D01*
X16831549Y45203666D01*
X16984315Y44937732D01*
X17137490Y44671461D01*
X17289012Y44408451D01*
X17436819Y44152300D01*
X17578851Y43906603D01*
X17713045Y43674960D01*
X17837341Y43460967D01*
X17949677Y43268221D01*
X17999019Y43183837D01*
X18137984Y42946487D01*
X18260879Y43083342D01*
X18332633Y43168788D01*
X18416807Y43277285D01*
X18498653Y43389615D01*
X18523648Y43425734D01*
X18584928Y43521445D01*
X18628371Y43600761D01*
X18649061Y43654190D01*
X18649292Y43668353D01*
X18634184Y43696941D01*
X18596076Y43765140D01*
X18537090Y43869273D01*
X18459351Y44005665D01*
X18364980Y44170638D01*
X18256102Y44360518D01*
X18134838Y44571628D01*
X18003312Y44800293D01*
X17863646Y45042836D01*
X17717965Y45295581D01*
X17568390Y45554853D01*
X17417044Y45816976D01*
X17266052Y46078274D01*
X17117535Y46335070D01*
X16973616Y46583689D01*
X16836420Y46820454D01*
X16708068Y47041691D01*
X16590683Y47243722D01*
X16486389Y47422873D01*
X16397308Y47575466D01*
X16325564Y47697827D01*
X16273279Y47786279D01*
X16242577Y47837146D01*
X16235283Y47848227D01*
X16218412Y47848750D01*
X16190196Y47821391D01*
X16147877Y47762198D01*
X16088694Y47667221D01*
X16009891Y47532510D01*
X15987429Y47493261D01*
X15916129Y47366643D01*
X15854480Y47254057D01*
X15806525Y47163142D01*
X15776310Y47101541D01*
X15767597Y47077928D01*
X14733981Y47077928D01*
X15001733Y47541463D01*
X15172180Y47837042D01*
X15334963Y48120301D01*
X15488375Y48388217D01*
X15630714Y48637770D01*
X15760273Y48865937D01*
X15875348Y49069696D01*
X15974233Y49246027D01*
X16055225Y49391908D01*
X16116617Y49504316D01*
X16156706Y49580230D01*
X16162381Y49592326D01*
X16249404Y49592326D01*
X16266773Y49558610D01*
X16307083Y49485874D01*
X16368394Y49377446D01*
X16448766Y49236653D01*
X16546257Y49066822D01*
X16658928Y48871281D01*
X16784837Y48653357D01*
X16922045Y48416377D01*
X17068611Y48163669D01*
X17222594Y47898559D01*
X17382054Y47624376D01*
X17545050Y47344447D01*
X17709643Y47062099D01*
X17873890Y46780659D01*
X18035853Y46503455D01*
X18193590Y46233813D01*
X18345160Y45975062D01*
X18488625Y45730528D01*
X18622042Y45503539D01*
X18743471Y45297423D01*
X18850972Y45115506D01*
X18942605Y44961116D01*
X19016428Y44837580D01*
X19070502Y44748225D01*
X19102886Y44696380D01*
X19111867Y44684139D01*
X19125326Y44716267D01*
X19144809Y44783519D01*
X19166261Y44871794D01*
X19167723Y44878358D01*
X19232681Y45280884D01*
X19254347Y45698582D01*
X19233077Y46121731D01*
X19169228Y46540611D01*
X19095871Y46838339D01*
X18952471Y47246997D01*
X18765395Y47636789D01*
X18538024Y48003958D01*
X18273736Y48344748D01*
X17975911Y48655402D01*
X17647928Y48932165D01*
X17293166Y49171280D01*
X16915005Y49368991D01*
X16759981Y49434833D01*
X16612398Y49491647D01*
X16481659Y49538389D01*
X16374154Y49573087D01*
X16296274Y49593772D01*
X16254408Y49598470D01*
X16249404Y49592326D01*
X16162381Y49592326D01*
X16173785Y49616628D01*
X16174159Y49619399D01*
X16138239Y49634273D01*
X16063487Y49651890D01*
X15961120Y49670539D01*
X15842357Y49688510D01*
X15718414Y49704090D01*
X15600510Y49715570D01*
X15507964Y49721009D01*
X15311140Y49727220D01*
X14105771Y47641958D01*
X13933378Y47343705D01*
X13767848Y47057291D01*
X13610948Y46785775D01*
X13464443Y46532217D01*
X13330103Y46299675D01*
X13209692Y46091208D01*
X13104979Y45909877D01*
X13017729Y45758739D01*
X12949711Y45640855D01*
X12902691Y45559283D01*
X12878435Y45517083D01*
X12875652Y45512183D01*
X12869759Y45496808D01*
X11862924Y45496808D01*
X11914086Y45585276D01*
X12058560Y45835238D01*
X12215343Y46106622D01*
X12382834Y46396663D01*
X12559436Y46702599D01*
X12743549Y47021665D01*
X12802150Y47123243D01*
X12988018Y47445753D01*
X13166501Y47756055D01*
X13336027Y48051384D01*
X13495025Y48328976D01*
X13641923Y48586066D01*
X13775149Y48819891D01*
X13893132Y49027684D01*
X13994299Y49206683D01*
X14077080Y49354123D01*
X14139903Y49467238D01*
X14181196Y49543266D01*
X14199388Y49579441D01*
X14200082Y49582141D01*
X14168666Y49582425D01*
X14100080Y49565588D01*
X14003128Y49534779D01*
X13886617Y49493144D01*
X13759355Y49443832D01*
X13630146Y49389990D01*
X13507798Y49334766D01*
X13507174Y49334470D01*
X13129454Y49128307D01*
X12776760Y48880880D01*
X12452244Y48596161D01*
X12159056Y48278122D01*
X11900346Y47930735D01*
X11679264Y47557971D01*
X11498961Y47163801D01*
X11362586Y46752198D01*
X11319467Y46576447D01*
X11264778Y46261026D01*
X11234342Y45931151D01*
X11229577Y45607952D01*
X10227043Y45607952D01*
X10232495Y46021933D01*
X10285185Y46501069D01*
X10383445Y46972768D01*
X10526522Y47433647D01*
X10713661Y47880322D01*
X10944107Y48309408D01*
X11217105Y48717521D01*
X11531902Y49101279D01*
X11632099Y49208777D01*
X11894687Y49458883D01*
X12192789Y49701903D01*
X12511796Y49927244D01*
X12837096Y50124315D01*
X13041682Y50230635D01*
X13504762Y50427116D01*
X13979625Y50575588D01*
X14463068Y50676004D01*
X14951885Y50728315D01*
X15442874Y50732473D01*
X15932830Y50688430D01*
D11*
X14830000Y87445000D02*
X14830000Y88870000D01*
X15055000Y80195000D02*
X15055000Y80520000D01*
X7805000Y80195000D02*
X7805000Y80520000D01*
X7805000Y87445000D02*
X7805000Y87120000D01*
X15055000Y87445000D02*
X15055000Y87120000D01*
X7805000Y87445000D02*
X8130000Y87445000D01*
X7805000Y80195000D02*
X8130000Y80195000D01*
X15055000Y80195000D02*
X14730000Y80195000D01*
X15055000Y87445000D02*
X14830000Y87445000D01*
D12*
X49040000Y24640000D02*
X49040000Y31240000D01*
X51740000Y31240000D02*
X54940000Y31240000D01*
X51740000Y24640000D02*
X54940000Y24640000D01*
X57640000Y31240000D02*
X56840000Y31240000D01*
X57640000Y24640000D02*
X57640000Y31240000D01*
X56840000Y24640000D02*
X57640000Y24640000D01*
X49022000Y24638000D02*
X49784000Y24638000D01*
X49784000Y24638000D02*
X49784000Y22606000D01*
X49784000Y22606000D02*
X49784000Y22606000D01*
X49784000Y31242000D02*
X49022000Y31242000D01*
X49022000Y31242000D02*
X49022000Y31242000D01*
X14710000Y99350000D02*
X14710000Y98950000D01*
X10690000Y99350000D02*
X10690000Y98950000D01*
X10690000Y91150000D02*
X10690000Y91550000D01*
X14710000Y93450000D02*
X15300000Y93450000D01*
X15300000Y91550000D02*
X14710000Y91550000D01*
X10690000Y99350000D02*
X14710000Y99350000D01*
X14710000Y91150000D02*
X14710000Y91550000D01*
X10690000Y91150000D02*
X14710000Y91150000D01*
X14710000Y93450000D02*
X14710000Y97050000D01*
X10690000Y93450000D02*
X10690000Y97050000D01*
X16910000Y25110000D02*
X16910000Y31120000D01*
X23730000Y27360000D02*
X23730000Y31120000D01*
X16910000Y31120000D02*
X18170000Y31120000D01*
X23730000Y31120000D02*
X22470000Y31120000D01*
X44450000Y57800000D02*
X44450000Y54950000D01*
X47300000Y65050000D02*
X44450000Y65050000D01*
X54550000Y62200000D02*
X54550000Y65050000D01*
X51700000Y54950000D02*
X54550000Y54950000D01*
X44450000Y65050000D02*
X44450000Y62200000D01*
X54550000Y65050000D02*
X51700000Y65050000D01*
X54550000Y54950000D02*
X54550000Y57800000D01*
X44450000Y54950000D02*
X47300000Y54950000D01*
X55000000Y60000000D02*
G75*
G03X55000000Y60000000I-5500000J0D01*
G01*
X54300000Y60000000D02*
G75*
G03X54300000Y60000000I-4800000J0D01*
G01*
X30300000Y60000000D02*
G75*
G03X30300000Y60000000I-4800000J0D01*
G01*
X31000000Y60000000D02*
G75*
G03X31000000Y60000000I-5500000J0D01*
G01*
X20450000Y54950000D02*
X23300000Y54950000D01*
X30550000Y54950000D02*
X30550000Y57800000D01*
X30550000Y65050000D02*
X27700000Y65050000D01*
X20450000Y65050000D02*
X20450000Y62200000D01*
X27700000Y54950000D02*
X30550000Y54950000D01*
X30550000Y62200000D02*
X30550000Y65050000D01*
X23300000Y65050000D02*
X20450000Y65050000D01*
X20450000Y57800000D02*
X20450000Y54950000D01*
X32450000Y45800000D02*
X32450000Y42950000D01*
X35300000Y53050000D02*
X32450000Y53050000D01*
X42550000Y50200000D02*
X42550000Y53050000D01*
X39700000Y42950000D02*
X42550000Y42950000D01*
X32450000Y53050000D02*
X32450000Y50200000D01*
X42550000Y53050000D02*
X39700000Y53050000D01*
X42550000Y42950000D02*
X42550000Y45800000D01*
X32450000Y42950000D02*
X35300000Y42950000D01*
X43000000Y48000000D02*
G75*
G03X43000000Y48000000I-5500000J0D01*
G01*
X42300000Y48000000D02*
G75*
G03X42300000Y48000000I-4800000J0D01*
G01*
X32450000Y69800000D02*
X32450000Y66950000D01*
X35300000Y77050000D02*
X32450000Y77050000D01*
X42550000Y74200000D02*
X42550000Y77050000D01*
X39700000Y66950000D02*
X42550000Y66950000D01*
X32450000Y77050000D02*
X32450000Y74200000D01*
X42550000Y77050000D02*
X39700000Y77050000D01*
X42550000Y66950000D02*
X42550000Y69800000D01*
X32450000Y66950000D02*
X35300000Y66950000D01*
X43000000Y72000000D02*
G75*
G03X43000000Y72000000I-5500000J0D01*
G01*
X42300000Y72000000D02*
G75*
G03X42300000Y72000000I-4800000J0D01*
G01*
X66730000Y88320000D02*
X60270000Y88320000D01*
X66730000Y83790000D02*
X66730000Y86390000D01*
X66730000Y81860000D02*
X60270000Y81860000D01*
X60270000Y83790000D02*
X60270000Y86390000D01*
X66730000Y81890000D02*
X66730000Y81860000D01*
X66730000Y88320000D02*
X66730000Y88290000D01*
X60270000Y88320000D02*
X60270000Y88290000D01*
X60270000Y81860000D02*
X60270000Y81890000D01*
X25850436Y11790000D02*
X27054564Y11790000D01*
X25850436Y13610000D02*
X27054564Y13610000D01*
X27030000Y23527936D02*
X27030000Y24732064D01*
X28850000Y23527936D02*
X28850000Y24732064D01*
X62680436Y91800000D02*
X63884564Y91800000D01*
X62680436Y93620000D02*
X63884564Y93620000D01*
X21880000Y9290000D02*
X15870000Y9290000D01*
X19630000Y16110000D02*
X15870000Y16110000D01*
X15870000Y9290000D02*
X15870000Y10550000D01*
X15870000Y16110000D02*
X15870000Y14850000D01*
X22290000Y104910000D02*
X22290000Y89210000D01*
X52710000Y104910000D02*
X22290000Y104910000D01*
X52710000Y89210000D02*
X52710000Y104910000D01*
X22290000Y89210000D02*
X52710000Y89210000D01*
X21290000Y105910000D02*
X21290000Y84550000D01*
X53710000Y105910000D02*
X21290000Y105910000D01*
X53710000Y84550000D02*
X53710000Y105910000D01*
X21290000Y84550000D02*
X53710000Y84550000D01*
X44650000Y80010000D02*
X54000000Y80010000D01*
X44650000Y82910000D02*
X44650000Y80010000D01*
X30350000Y82910000D02*
X44650000Y82910000D01*
X30350000Y80010000D02*
X30350000Y82910000D01*
X21000000Y112010000D02*
X21000000Y80010000D01*
X54000000Y112010000D02*
X21000000Y112010000D01*
X54000000Y80010000D02*
X54000000Y112010000D01*
X21000000Y80010000D02*
X30350000Y80010000D01*
X20030000Y16780000D02*
X16130000Y16780000D01*
X20030000Y18780000D02*
X16130000Y18780000D01*
X20030000Y16780000D02*
X20030000Y18780000D01*
X6710000Y94364564D02*
X6710000Y93160436D01*
X8530000Y94364564D02*
X8530000Y93160436D01*
X16870000Y94364564D02*
X16870000Y93160436D01*
X18690000Y94364564D02*
X18690000Y93160436D01*
X14330000Y30029564D02*
X14330000Y28825436D01*
X16150000Y30029564D02*
X16150000Y28825436D01*
X30029564Y30840000D02*
X28825436Y30840000D01*
X30029564Y32660000D02*
X28825436Y32660000D01*
X42300000Y24000000D02*
G75*
G03X42300000Y24000000I-4800000J0D01*
G01*
X43000000Y24000000D02*
G75*
G03X43000000Y24000000I-5500000J0D01*
G01*
X32450000Y18950000D02*
X35300000Y18950000D01*
X42550000Y18950000D02*
X42550000Y21800000D01*
X42550000Y29050000D02*
X39700000Y29050000D01*
X32450000Y29050000D02*
X32450000Y26200000D01*
X39700000Y18950000D02*
X42550000Y18950000D01*
X42550000Y26200000D02*
X42550000Y29050000D01*
X35300000Y29050000D02*
X32450000Y29050000D01*
X32450000Y21800000D02*
X32450000Y18950000D01*
X32420000Y20190000D02*
X34960000Y20190000D01*
X34960000Y20190000D02*
X34960000Y21460000D01*
X34960000Y21460000D02*
X36230000Y21460000D01*
X36230000Y21460000D02*
X37500000Y22730000D01*
X37500000Y21460000D02*
X41310000Y21460000D01*
X41310000Y21460000D02*
X41310000Y27810000D01*
X41310000Y27810000D02*
X42580000Y27810000D01*
X42580000Y20190000D02*
X40040000Y20190000D01*
X40040000Y20190000D02*
X40040000Y25270000D01*
X40040000Y25270000D02*
X33690000Y25270000D01*
X33690000Y25270000D02*
X33690000Y27810000D01*
X33690000Y27810000D02*
X32420000Y27810000D01*
X36230000Y25270000D02*
X37500000Y26540000D01*
X37500000Y26540000D02*
X37500000Y24000000D01*
X37500000Y24000000D02*
X36230000Y25270000D01*
X36230000Y26540000D02*
X36230000Y24000000D01*
D11*
X4810952Y77303333D02*
X5287142Y77303333D01*
X4715714Y77017619D02*
X5049047Y78017619D01*
X5382380Y77017619D01*
X5572857Y78017619D02*
X6144285Y78017619D01*
X5858571Y77017619D02*
X5858571Y78017619D01*
X6477619Y77017619D02*
X6477619Y77684285D01*
X6477619Y77589047D02*
X6525238Y77636666D01*
X6620476Y77684285D01*
X6763333Y77684285D01*
X6858571Y77636666D01*
X6906190Y77541428D01*
X6906190Y77017619D01*
X6906190Y77541428D02*
X6953809Y77636666D01*
X7049047Y77684285D01*
X7191904Y77684285D01*
X7287142Y77636666D01*
X7334761Y77541428D01*
X7334761Y77017619D01*
X8191904Y77065238D02*
X8096666Y77017619D01*
X7906190Y77017619D01*
X7810952Y77065238D01*
X7763333Y77160476D01*
X7763333Y77541428D01*
X7810952Y77636666D01*
X7906190Y77684285D01*
X8096666Y77684285D01*
X8191904Y77636666D01*
X8239523Y77541428D01*
X8239523Y77446190D01*
X7763333Y77350952D01*
X9096666Y77684285D02*
X9096666Y76874761D01*
X9049047Y76779523D01*
X9001428Y76731904D01*
X8906190Y76684285D01*
X8763333Y76684285D01*
X8668095Y76731904D01*
X9096666Y77065238D02*
X9001428Y77017619D01*
X8810952Y77017619D01*
X8715714Y77065238D01*
X8668095Y77112857D01*
X8620476Y77208095D01*
X8620476Y77493809D01*
X8668095Y77589047D01*
X8715714Y77636666D01*
X8810952Y77684285D01*
X9001428Y77684285D01*
X9096666Y77636666D01*
X10001428Y77017619D02*
X10001428Y77541428D01*
X9953809Y77636666D01*
X9858571Y77684285D01*
X9668095Y77684285D01*
X9572857Y77636666D01*
X10001428Y77065238D02*
X9906190Y77017619D01*
X9668095Y77017619D01*
X9572857Y77065238D01*
X9525238Y77160476D01*
X9525238Y77255714D01*
X9572857Y77350952D01*
X9668095Y77398571D01*
X9906190Y77398571D01*
X10001428Y77446190D01*
X10382380Y78017619D02*
X11001428Y78017619D01*
X10668095Y77636666D01*
X10810952Y77636666D01*
X10906190Y77589047D01*
X10953809Y77541428D01*
X11001428Y77446190D01*
X11001428Y77208095D01*
X10953809Y77112857D01*
X10906190Y77065238D01*
X10810952Y77017619D01*
X10525238Y77017619D01*
X10430000Y77065238D01*
X10382380Y77112857D01*
X11382380Y77922380D02*
X11430000Y77970000D01*
X11525238Y78017619D01*
X11763333Y78017619D01*
X11858571Y77970000D01*
X11906190Y77922380D01*
X11953809Y77827142D01*
X11953809Y77731904D01*
X11906190Y77589047D01*
X11334761Y77017619D01*
X11953809Y77017619D01*
X12525238Y77589047D02*
X12430000Y77636666D01*
X12382380Y77684285D01*
X12334761Y77779523D01*
X12334761Y77827142D01*
X12382380Y77922380D01*
X12430000Y77970000D01*
X12525238Y78017619D01*
X12715714Y78017619D01*
X12810952Y77970000D01*
X12858571Y77922380D01*
X12906190Y77827142D01*
X12906190Y77779523D01*
X12858571Y77684285D01*
X12810952Y77636666D01*
X12715714Y77589047D01*
X12525238Y77589047D01*
X12430000Y77541428D01*
X12382380Y77493809D01*
X12334761Y77398571D01*
X12334761Y77208095D01*
X12382380Y77112857D01*
X12430000Y77065238D01*
X12525238Y77017619D01*
X12715714Y77017619D01*
X12810952Y77065238D01*
X12858571Y77112857D01*
X12906190Y77208095D01*
X12906190Y77398571D01*
X12858571Y77493809D01*
X12810952Y77541428D01*
X12715714Y77589047D01*
X13334761Y77017619D02*
X13334761Y78017619D01*
X13715714Y78017619D01*
X13810952Y77970000D01*
X13858571Y77922380D01*
X13906190Y77827142D01*
X13906190Y77684285D01*
X13858571Y77589047D01*
X13810952Y77541428D01*
X13715714Y77493809D01*
X13334761Y77493809D01*
X14668095Y77541428D02*
X14810952Y77493809D01*
X14858571Y77446190D01*
X14906190Y77350952D01*
X14906190Y77208095D01*
X14858571Y77112857D01*
X14810952Y77065238D01*
X14715714Y77017619D01*
X14334761Y77017619D01*
X14334761Y78017619D01*
X14668095Y78017619D01*
X14763333Y77970000D01*
X14810952Y77922380D01*
X14858571Y77827142D01*
X14858571Y77731904D01*
X14810952Y77636666D01*
X14763333Y77589047D01*
X14668095Y77541428D01*
X14334761Y77541428D01*
X15334761Y77398571D02*
X16096666Y77398571D01*
X16525238Y77303333D02*
X17001428Y77303333D01*
X16430000Y77017619D02*
X16763333Y78017619D01*
X17096666Y77017619D01*
X17430000Y78017619D02*
X17430000Y77208095D01*
X17477619Y77112857D01*
X17525238Y77065238D01*
X17620476Y77017619D01*
X17810952Y77017619D01*
X17906190Y77065238D01*
X17953809Y77112857D01*
X18001428Y77208095D01*
X18001428Y78017619D01*
X50316190Y33837619D02*
X50316190Y34837619D01*
X50554285Y34837619D01*
X50697142Y34790000D01*
X50792380Y34694761D01*
X50840000Y34599523D01*
X50887619Y34409047D01*
X50887619Y34266190D01*
X50840000Y34075714D01*
X50792380Y33980476D01*
X50697142Y33885238D01*
X50554285Y33837619D01*
X50316190Y33837619D01*
X51078095Y33742380D02*
X51840000Y33742380D01*
X52411428Y34361428D02*
X52554285Y34313809D01*
X52601904Y34266190D01*
X52649523Y34170952D01*
X52649523Y34028095D01*
X52601904Y33932857D01*
X52554285Y33885238D01*
X52459047Y33837619D01*
X52078095Y33837619D01*
X52078095Y34837619D01*
X52411428Y34837619D01*
X52506666Y34790000D01*
X52554285Y34742380D01*
X52601904Y34647142D01*
X52601904Y34551904D01*
X52554285Y34456666D01*
X52506666Y34409047D01*
X52411428Y34361428D01*
X52078095Y34361428D01*
X53078095Y33837619D02*
X53078095Y34504285D01*
X53078095Y34313809D02*
X53125714Y34409047D01*
X53173333Y34456666D01*
X53268571Y34504285D01*
X53363809Y34504285D01*
X53697142Y33837619D02*
X53697142Y34504285D01*
X53697142Y34837619D02*
X53649523Y34790000D01*
X53697142Y34742380D01*
X53744761Y34790000D01*
X53697142Y34837619D01*
X53697142Y34742380D01*
X54601904Y33837619D02*
X54601904Y34837619D01*
X54601904Y33885238D02*
X54506666Y33837619D01*
X54316190Y33837619D01*
X54220952Y33885238D01*
X54173333Y33932857D01*
X54125714Y34028095D01*
X54125714Y34313809D01*
X54173333Y34409047D01*
X54220952Y34456666D01*
X54316190Y34504285D01*
X54506666Y34504285D01*
X54601904Y34456666D01*
X55506666Y34504285D02*
X55506666Y33694761D01*
X55459047Y33599523D01*
X55411428Y33551904D01*
X55316190Y33504285D01*
X55173333Y33504285D01*
X55078095Y33551904D01*
X55506666Y33885238D02*
X55411428Y33837619D01*
X55220952Y33837619D01*
X55125714Y33885238D01*
X55078095Y33932857D01*
X55030476Y34028095D01*
X55030476Y34313809D01*
X55078095Y34409047D01*
X55125714Y34456666D01*
X55220952Y34504285D01*
X55411428Y34504285D01*
X55506666Y34456666D01*
X56363809Y33885238D02*
X56268571Y33837619D01*
X56078095Y33837619D01*
X55982857Y33885238D01*
X55935238Y33980476D01*
X55935238Y34361428D01*
X55982857Y34456666D01*
X56078095Y34504285D01*
X56268571Y34504285D01*
X56363809Y34456666D01*
X56411428Y34361428D01*
X56411428Y34266190D01*
X55935238Y34170952D01*
X8890476Y100877619D02*
X9509523Y100877619D01*
X9176190Y100496666D01*
X9319047Y100496666D01*
X9414285Y100449047D01*
X9461904Y100401428D01*
X9509523Y100306190D01*
X9509523Y100068095D01*
X9461904Y99972857D01*
X9414285Y99925238D01*
X9319047Y99877619D01*
X9033333Y99877619D01*
X8938095Y99925238D01*
X8890476Y99972857D01*
X9890476Y100782380D02*
X9938095Y100830000D01*
X10033333Y100877619D01*
X10271428Y100877619D01*
X10366666Y100830000D01*
X10414285Y100782380D01*
X10461904Y100687142D01*
X10461904Y100591904D01*
X10414285Y100449047D01*
X9842857Y99877619D01*
X10461904Y99877619D01*
X10890476Y99972857D02*
X10938095Y99925238D01*
X10890476Y99877619D01*
X10842857Y99925238D01*
X10890476Y99972857D01*
X10890476Y99877619D01*
X11271428Y100877619D02*
X11938095Y100877619D01*
X11509523Y99877619D01*
X12747619Y100877619D02*
X12557142Y100877619D01*
X12461904Y100830000D01*
X12414285Y100782380D01*
X12319047Y100639523D01*
X12271428Y100449047D01*
X12271428Y100068095D01*
X12319047Y99972857D01*
X12366666Y99925238D01*
X12461904Y99877619D01*
X12652380Y99877619D01*
X12747619Y99925238D01*
X12795238Y99972857D01*
X12842857Y100068095D01*
X12842857Y100306190D01*
X12795238Y100401428D01*
X12747619Y100449047D01*
X12652380Y100496666D01*
X12461904Y100496666D01*
X12366666Y100449047D01*
X12319047Y100401428D01*
X12271428Y100306190D01*
X13414285Y100449047D02*
X13319047Y100496666D01*
X13271428Y100544285D01*
X13223809Y100639523D01*
X13223809Y100687142D01*
X13271428Y100782380D01*
X13319047Y100830000D01*
X13414285Y100877619D01*
X13604761Y100877619D01*
X13700000Y100830000D01*
X13747619Y100782380D01*
X13795238Y100687142D01*
X13795238Y100639523D01*
X13747619Y100544285D01*
X13700000Y100496666D01*
X13604761Y100449047D01*
X13414285Y100449047D01*
X13319047Y100401428D01*
X13271428Y100353809D01*
X13223809Y100258571D01*
X13223809Y100068095D01*
X13271428Y99972857D01*
X13319047Y99925238D01*
X13414285Y99877619D01*
X13604761Y99877619D01*
X13700000Y99925238D01*
X13747619Y99972857D01*
X13795238Y100068095D01*
X13795238Y100258571D01*
X13747619Y100353809D01*
X13700000Y100401428D01*
X13604761Y100449047D01*
X14223809Y99877619D02*
X14223809Y100877619D01*
X14319047Y100258571D02*
X14604761Y99877619D01*
X14604761Y100544285D02*
X14223809Y100163333D01*
X15033333Y99877619D02*
X15033333Y100877619D01*
X15033333Y100401428D02*
X15604761Y100401428D01*
X15604761Y99877619D02*
X15604761Y100877619D01*
X15985714Y100544285D02*
X16509523Y100544285D01*
X15985714Y99877619D01*
X16509523Y99877619D01*
X24629523Y29757619D02*
X24153333Y29757619D01*
X24105714Y29281428D01*
X24153333Y29329047D01*
X24248571Y29376666D01*
X24486666Y29376666D01*
X24581904Y29329047D01*
X24629523Y29281428D01*
X24677142Y29186190D01*
X24677142Y28948095D01*
X24629523Y28852857D01*
X24581904Y28805238D01*
X24486666Y28757619D01*
X24248571Y28757619D01*
X24153333Y28805238D01*
X24105714Y28852857D01*
X24962857Y29757619D02*
X25296190Y28757619D01*
X25629523Y29757619D01*
X40576666Y59237619D02*
X40243333Y59713809D01*
X40005238Y59237619D02*
X40005238Y60237619D01*
X40386190Y60237619D01*
X40481428Y60190000D01*
X40529047Y60142380D01*
X40576666Y60047142D01*
X40576666Y59904285D01*
X40529047Y59809047D01*
X40481428Y59761428D01*
X40386190Y59713809D01*
X40005238Y59713809D01*
X41005238Y59237619D02*
X41005238Y60237619D01*
X42005238Y60190000D02*
X41910000Y60237619D01*
X41767142Y60237619D01*
X41624285Y60190000D01*
X41529047Y60094761D01*
X41481428Y59999523D01*
X41433809Y59809047D01*
X41433809Y59666190D01*
X41481428Y59475714D01*
X41529047Y59380476D01*
X41624285Y59285238D01*
X41767142Y59237619D01*
X41862380Y59237619D01*
X42005238Y59285238D01*
X42052857Y59332857D01*
X42052857Y59666190D01*
X41862380Y59666190D01*
X42481428Y59237619D02*
X42481428Y60237619D01*
X42481428Y59761428D02*
X43052857Y59761428D01*
X43052857Y59237619D02*
X43052857Y60237619D01*
X43386190Y60237619D02*
X43957619Y60237619D01*
X43671904Y59237619D02*
X43671904Y60237619D01*
X32067619Y59237619D02*
X31591428Y59237619D01*
X31591428Y60237619D01*
X32400952Y59761428D02*
X32734285Y59761428D01*
X32877142Y59237619D02*
X32400952Y59237619D01*
X32400952Y60237619D01*
X32877142Y60237619D01*
X33639047Y59761428D02*
X33305714Y59761428D01*
X33305714Y59237619D02*
X33305714Y60237619D01*
X33781904Y60237619D01*
X34020000Y60237619D02*
X34591428Y60237619D01*
X34305714Y59237619D02*
X34305714Y60237619D01*
X35619047Y54157619D02*
X35619047Y55157619D01*
X35857142Y55157619D01*
X36000000Y55110000D01*
X36095238Y55014761D01*
X36142857Y54919523D01*
X36190476Y54729047D01*
X36190476Y54586190D01*
X36142857Y54395714D01*
X36095238Y54300476D01*
X36000000Y54205238D01*
X35857142Y54157619D01*
X35619047Y54157619D01*
X36809523Y55157619D02*
X37000000Y55157619D01*
X37095238Y55110000D01*
X37190476Y55014761D01*
X37238095Y54824285D01*
X37238095Y54490952D01*
X37190476Y54300476D01*
X37095238Y54205238D01*
X37000000Y54157619D01*
X36809523Y54157619D01*
X36714285Y54205238D01*
X36619047Y54300476D01*
X36571428Y54490952D01*
X36571428Y54824285D01*
X36619047Y55014761D01*
X36714285Y55110000D01*
X36809523Y55157619D01*
X37571428Y55157619D02*
X37809523Y54157619D01*
X38000000Y54871904D01*
X38190476Y54157619D01*
X38428571Y55157619D01*
X38809523Y54157619D02*
X38809523Y55157619D01*
X39380952Y54157619D01*
X39380952Y55157619D01*
X36714285Y65317619D02*
X36714285Y64508095D01*
X36761904Y64412857D01*
X36809523Y64365238D01*
X36904761Y64317619D01*
X37095238Y64317619D01*
X37190476Y64365238D01*
X37238095Y64412857D01*
X37285714Y64508095D01*
X37285714Y65317619D01*
X37761904Y64317619D02*
X37761904Y65317619D01*
X38142857Y65317619D01*
X38238095Y65270000D01*
X38285714Y65222380D01*
X38333333Y65127142D01*
X38333333Y64984285D01*
X38285714Y64889047D01*
X38238095Y64841428D01*
X38142857Y64793809D01*
X37761904Y64793809D01*
X62047619Y88787619D02*
X61714285Y89263809D01*
X61476190Y88787619D02*
X61476190Y89787619D01*
X61857142Y89787619D01*
X61952380Y89740000D01*
X62000000Y89692380D01*
X62047619Y89597142D01*
X62047619Y89454285D01*
X62000000Y89359047D01*
X61952380Y89311428D01*
X61857142Y89263809D01*
X61476190Y89263809D01*
X62476190Y89311428D02*
X62809523Y89311428D01*
X62952380Y88787619D02*
X62476190Y88787619D01*
X62476190Y89787619D01*
X62952380Y89787619D01*
X63333333Y88835238D02*
X63476190Y88787619D01*
X63714285Y88787619D01*
X63809523Y88835238D01*
X63857142Y88882857D01*
X63904761Y88978095D01*
X63904761Y89073333D01*
X63857142Y89168571D01*
X63809523Y89216190D01*
X63714285Y89263809D01*
X63523809Y89311428D01*
X63428571Y89359047D01*
X63380952Y89406666D01*
X63333333Y89501904D01*
X63333333Y89597142D01*
X63380952Y89692380D01*
X63428571Y89740000D01*
X63523809Y89787619D01*
X63761904Y89787619D01*
X63904761Y89740000D01*
X64333333Y89311428D02*
X64666666Y89311428D01*
X64809523Y88787619D02*
X64333333Y88787619D01*
X64333333Y89787619D01*
X64809523Y89787619D01*
X65095238Y89787619D02*
X65666666Y89787619D01*
X65380952Y88787619D02*
X65380952Y89787619D01*
X25857261Y10427619D02*
X25285833Y10427619D01*
X25571547Y10427619D02*
X25571547Y11427619D01*
X25476309Y11284761D01*
X25381071Y11189523D01*
X25285833Y11141904D01*
X26476309Y11427619D02*
X26571547Y11427619D01*
X26666785Y11380000D01*
X26714404Y11332380D01*
X26762023Y11237142D01*
X26809642Y11046666D01*
X26809642Y10808571D01*
X26762023Y10618095D01*
X26714404Y10522857D01*
X26666785Y10475238D01*
X26571547Y10427619D01*
X26476309Y10427619D01*
X26381071Y10475238D01*
X26333452Y10522857D01*
X26285833Y10618095D01*
X26238214Y10808571D01*
X26238214Y11046666D01*
X26285833Y11237142D01*
X26333452Y11332380D01*
X26381071Y11380000D01*
X26476309Y11427619D01*
X27238214Y10427619D02*
X27238214Y11427619D01*
X27333452Y10808571D02*
X27619166Y10427619D01*
X27619166Y11094285D02*
X27238214Y10713333D01*
X24733333Y23677619D02*
X24161904Y23677619D01*
X24447619Y23677619D02*
X24447619Y24677619D01*
X24352380Y24534761D01*
X24257142Y24439523D01*
X24161904Y24391904D01*
X25638095Y24677619D02*
X25161904Y24677619D01*
X25114285Y24201428D01*
X25161904Y24249047D01*
X25257142Y24296666D01*
X25495238Y24296666D01*
X25590476Y24249047D01*
X25638095Y24201428D01*
X25685714Y24106190D01*
X25685714Y23868095D01*
X25638095Y23772857D01*
X25590476Y23725238D01*
X25495238Y23677619D01*
X25257142Y23677619D01*
X25161904Y23725238D01*
X25114285Y23772857D01*
X26304761Y24677619D02*
X26400000Y24677619D01*
X26495238Y24630000D01*
X26542857Y24582380D01*
X26590476Y24487142D01*
X26638095Y24296666D01*
X26638095Y24058571D01*
X26590476Y23868095D01*
X26542857Y23772857D01*
X26495238Y23725238D01*
X26400000Y23677619D01*
X26304761Y23677619D01*
X26209523Y23725238D01*
X26161904Y23772857D01*
X26114285Y23868095D01*
X26066666Y24058571D01*
X26066666Y24296666D01*
X26114285Y24487142D01*
X26161904Y24582380D01*
X26209523Y24630000D01*
X26304761Y24677619D01*
X62687261Y94797619D02*
X62115833Y94797619D01*
X62401547Y94797619D02*
X62401547Y95797619D01*
X62306309Y95654761D01*
X62211071Y95559523D01*
X62115833Y95511904D01*
X63306309Y95797619D02*
X63401547Y95797619D01*
X63496785Y95750000D01*
X63544404Y95702380D01*
X63592023Y95607142D01*
X63639642Y95416666D01*
X63639642Y95178571D01*
X63592023Y94988095D01*
X63544404Y94892857D01*
X63496785Y94845238D01*
X63401547Y94797619D01*
X63306309Y94797619D01*
X63211071Y94845238D01*
X63163452Y94892857D01*
X63115833Y94988095D01*
X63068214Y95178571D01*
X63068214Y95416666D01*
X63115833Y95607142D01*
X63163452Y95702380D01*
X63211071Y95750000D01*
X63306309Y95797619D01*
X64068214Y94797619D02*
X64068214Y95797619D01*
X64163452Y95178571D02*
X64449166Y94797619D01*
X64449166Y95464285D02*
X64068214Y95083333D01*
X16470476Y7167619D02*
X16470476Y8167619D01*
X17041904Y7167619D01*
X17041904Y8167619D01*
X17518095Y7167619D02*
X17518095Y8167619D01*
X17899047Y8167619D01*
X17994285Y8120000D01*
X18041904Y8072380D01*
X18089523Y7977142D01*
X18089523Y7834285D01*
X18041904Y7739047D01*
X17994285Y7691428D01*
X17899047Y7643809D01*
X17518095Y7643809D01*
X18518095Y7167619D02*
X18518095Y8167619D01*
X19089523Y7167619D01*
X19089523Y8167619D01*
X29414761Y94710476D02*
X27129047Y94710476D01*
X28271904Y94710476D02*
X28271904Y98710476D01*
X27890952Y98139047D01*
X27510000Y97758095D01*
X27129047Y97567619D01*
X30938571Y98329523D02*
X31129047Y98520000D01*
X31510000Y98710476D01*
X32462380Y98710476D01*
X32843333Y98520000D01*
X33033809Y98329523D01*
X33224285Y97948571D01*
X33224285Y97567619D01*
X33033809Y96996190D01*
X30748095Y94710476D01*
X33224285Y94710476D01*
X35510000Y96996190D02*
X35129047Y97186666D01*
X34938571Y97377142D01*
X34748095Y97758095D01*
X34748095Y97948571D01*
X34938571Y98329523D01*
X35129047Y98520000D01*
X35510000Y98710476D01*
X36271904Y98710476D01*
X36652857Y98520000D01*
X36843333Y98329523D01*
X37033809Y97948571D01*
X37033809Y97758095D01*
X36843333Y97377142D01*
X36652857Y97186666D01*
X36271904Y96996190D01*
X35510000Y96996190D01*
X35129047Y96805714D01*
X34938571Y96615238D01*
X34748095Y96234285D01*
X34748095Y95472380D01*
X34938571Y95091428D01*
X35129047Y94900952D01*
X35510000Y94710476D01*
X36271904Y94710476D01*
X36652857Y94900952D01*
X36843333Y95091428D01*
X37033809Y95472380D01*
X37033809Y96234285D01*
X36843333Y96615238D01*
X36652857Y96805714D01*
X36271904Y96996190D01*
X38367142Y94710476D02*
X40462380Y97377142D01*
X38367142Y97377142D02*
X40462380Y94710476D01*
X43700476Y98710476D02*
X42938571Y98710476D01*
X42557619Y98520000D01*
X42367142Y98329523D01*
X41986190Y97758095D01*
X41795714Y96996190D01*
X41795714Y95472380D01*
X41986190Y95091428D01*
X42176666Y94900952D01*
X42557619Y94710476D01*
X43319523Y94710476D01*
X43700476Y94900952D01*
X43890952Y95091428D01*
X44081428Y95472380D01*
X44081428Y96424761D01*
X43890952Y96805714D01*
X43700476Y96996190D01*
X43319523Y97186666D01*
X42557619Y97186666D01*
X42176666Y96996190D01*
X41986190Y96805714D01*
X41795714Y96424761D01*
X47510000Y97377142D02*
X47510000Y94710476D01*
X46557619Y98900952D02*
X45605238Y96043809D01*
X48081428Y96043809D01*
X41724761Y106735714D02*
X41772380Y106878571D01*
X41772380Y107116666D01*
X41724761Y107211904D01*
X41677142Y107259523D01*
X41581904Y107307142D01*
X41486666Y107307142D01*
X41391428Y107259523D01*
X41343809Y107211904D01*
X41296190Y107116666D01*
X41248571Y106926190D01*
X41200952Y106830952D01*
X41153333Y106783333D01*
X41058095Y106735714D01*
X40962857Y106735714D01*
X40867619Y106783333D01*
X40820000Y106830952D01*
X40772380Y106926190D01*
X40772380Y107164285D01*
X40820000Y107307142D01*
X41772380Y107735714D02*
X40772380Y107735714D01*
X40772380Y107973809D01*
X40820000Y108116666D01*
X40915238Y108211904D01*
X41010476Y108259523D01*
X41200952Y108307142D01*
X41343809Y108307142D01*
X41534285Y108259523D01*
X41629523Y108211904D01*
X41724761Y108116666D01*
X41772380Y107973809D01*
X41772380Y107735714D01*
X41486666Y108688095D02*
X41486666Y109164285D01*
X41772380Y108592857D02*
X40772380Y108926190D01*
X41772380Y109259523D01*
X39184761Y106664285D02*
X39232380Y106807142D01*
X39232380Y107045238D01*
X39184761Y107140476D01*
X39137142Y107188095D01*
X39041904Y107235714D01*
X38946666Y107235714D01*
X38851428Y107188095D01*
X38803809Y107140476D01*
X38756190Y107045238D01*
X38708571Y106854761D01*
X38660952Y106759523D01*
X38613333Y106711904D01*
X38518095Y106664285D01*
X38422857Y106664285D01*
X38327619Y106711904D01*
X38280000Y106759523D01*
X38232380Y106854761D01*
X38232380Y107092857D01*
X38280000Y107235714D01*
X39137142Y108235714D02*
X39184761Y108188095D01*
X39232380Y108045238D01*
X39232380Y107950000D01*
X39184761Y107807142D01*
X39089523Y107711904D01*
X38994285Y107664285D01*
X38803809Y107616666D01*
X38660952Y107616666D01*
X38470476Y107664285D01*
X38375238Y107711904D01*
X38280000Y107807142D01*
X38232380Y107950000D01*
X38232380Y108045238D01*
X38280000Y108188095D01*
X38327619Y108235714D01*
X39232380Y108664285D02*
X38232380Y108664285D01*
X39232380Y109235714D02*
X38660952Y108807142D01*
X38232380Y109235714D02*
X38803809Y108664285D01*
X35740000Y107188095D02*
X35692380Y107092857D01*
X35692380Y106950000D01*
X35740000Y106807142D01*
X35835238Y106711904D01*
X35930476Y106664285D01*
X36120952Y106616666D01*
X36263809Y106616666D01*
X36454285Y106664285D01*
X36549523Y106711904D01*
X36644761Y106807142D01*
X36692380Y106950000D01*
X36692380Y107045238D01*
X36644761Y107188095D01*
X36597142Y107235714D01*
X36263809Y107235714D01*
X36263809Y107045238D01*
X36692380Y107664285D02*
X35692380Y107664285D01*
X36692380Y108235714D01*
X35692380Y108235714D01*
X36692380Y108711904D02*
X35692380Y108711904D01*
X35692380Y108950000D01*
X35740000Y109092857D01*
X35835238Y109188095D01*
X35930476Y109235714D01*
X36120952Y109283333D01*
X36263809Y109283333D01*
X36454285Y109235714D01*
X36549523Y109188095D01*
X36644761Y109092857D01*
X36692380Y108950000D01*
X36692380Y108711904D01*
X33152380Y106616666D02*
X34152380Y106950000D01*
X33152380Y107283333D01*
X34152380Y107616666D02*
X33152380Y107616666D01*
X33152380Y107854761D01*
X33200000Y107997619D01*
X33295238Y108092857D01*
X33390476Y108140476D01*
X33580952Y108188095D01*
X33723809Y108188095D01*
X33914285Y108140476D01*
X34009523Y108092857D01*
X34104761Y107997619D01*
X34152380Y107854761D01*
X34152380Y107616666D01*
X34152380Y108616666D02*
X33152380Y108616666D01*
X33152380Y108854761D01*
X33200000Y108997619D01*
X33295238Y109092857D01*
X33390476Y109140476D01*
X33580952Y109188095D01*
X33723809Y109188095D01*
X33914285Y109140476D01*
X34009523Y109092857D01*
X34104761Y108997619D01*
X34152380Y108854761D01*
X34152380Y108616666D01*
X14001904Y19264285D02*
X14001904Y18597619D01*
X13763809Y19645238D02*
X13525714Y18930952D01*
X14144761Y18930952D01*
X15049523Y18597619D02*
X14478095Y18597619D01*
X14763809Y18597619D02*
X14763809Y19597619D01*
X14668571Y19454761D01*
X14573333Y19359523D01*
X14478095Y19311904D01*
X15906666Y19264285D02*
X15906666Y18597619D01*
X15668571Y19645238D02*
X15430476Y18930952D01*
X16049523Y18930952D01*
X16573333Y19169047D02*
X16478095Y19216666D01*
X16430476Y19264285D01*
X16382857Y19359523D01*
X16382857Y19407142D01*
X16430476Y19502380D01*
X16478095Y19550000D01*
X16573333Y19597619D01*
X16763809Y19597619D01*
X16859047Y19550000D01*
X16906666Y19502380D01*
X16954285Y19407142D01*
X16954285Y19359523D01*
X16906666Y19264285D01*
X16859047Y19216666D01*
X16763809Y19169047D01*
X16573333Y19169047D01*
X16478095Y19121428D01*
X16430476Y19073809D01*
X16382857Y18978571D01*
X16382857Y18788095D01*
X16430476Y18692857D01*
X16478095Y18645238D01*
X16573333Y18597619D01*
X16763809Y18597619D01*
X16859047Y18645238D01*
X16906666Y18692857D01*
X16954285Y18788095D01*
X16954285Y18978571D01*
X16906666Y19073809D01*
X16859047Y19121428D01*
X16763809Y19169047D01*
X6548571Y97337619D02*
X5977142Y97337619D01*
X6262857Y97337619D02*
X6262857Y98337619D01*
X6167619Y98194761D01*
X6072380Y98099523D01*
X5977142Y98051904D01*
X6881904Y98337619D02*
X7548571Y98337619D01*
X7120000Y97337619D01*
X7929523Y98004285D02*
X7929523Y97004285D01*
X7929523Y97956666D02*
X8024761Y98004285D01*
X8215238Y98004285D01*
X8310476Y97956666D01*
X8358095Y97909047D01*
X8405714Y97813809D01*
X8405714Y97528095D01*
X8358095Y97432857D01*
X8310476Y97385238D01*
X8215238Y97337619D01*
X8024761Y97337619D01*
X7929523Y97385238D01*
X9167619Y97861428D02*
X8834285Y97861428D01*
X8834285Y97337619D02*
X8834285Y98337619D01*
X9310476Y98337619D01*
X16565714Y98337619D02*
X17232380Y98337619D01*
X16803809Y97337619D01*
X17613333Y98004285D02*
X17613333Y97004285D01*
X17613333Y97956666D02*
X17708571Y98004285D01*
X17899047Y98004285D01*
X17994285Y97956666D01*
X18041904Y97909047D01*
X18089523Y97813809D01*
X18089523Y97528095D01*
X18041904Y97432857D01*
X17994285Y97385238D01*
X17899047Y97337619D01*
X17708571Y97337619D01*
X17613333Y97385238D01*
X18851428Y97861428D02*
X18518095Y97861428D01*
X18518095Y97337619D02*
X18518095Y98337619D01*
X18994285Y98337619D01*
X12327142Y25947619D02*
X12422380Y25947619D01*
X12517619Y25900000D01*
X12565238Y25852380D01*
X12612857Y25757142D01*
X12660476Y25566666D01*
X12660476Y25328571D01*
X12612857Y25138095D01*
X12565238Y25042857D01*
X12517619Y24995238D01*
X12422380Y24947619D01*
X12327142Y24947619D01*
X12231904Y24995238D01*
X12184285Y25042857D01*
X12136666Y25138095D01*
X12089047Y25328571D01*
X12089047Y25566666D01*
X12136666Y25757142D01*
X12184285Y25852380D01*
X12231904Y25900000D01*
X12327142Y25947619D01*
X13089047Y25042857D02*
X13136666Y24995238D01*
X13089047Y24947619D01*
X13041428Y24995238D01*
X13089047Y25042857D01*
X13089047Y24947619D01*
X14089047Y24947619D02*
X13517619Y24947619D01*
X13803333Y24947619D02*
X13803333Y25947619D01*
X13708095Y25804761D01*
X13612857Y25709523D01*
X13517619Y25661904D01*
X14946190Y25614285D02*
X14946190Y24947619D01*
X14517619Y25614285D02*
X14517619Y25090476D01*
X14565238Y24995238D01*
X14660476Y24947619D01*
X14803333Y24947619D01*
X14898571Y24995238D01*
X14946190Y25042857D01*
X15755714Y25471428D02*
X15422380Y25471428D01*
X15422380Y24947619D02*
X15422380Y25947619D01*
X15898571Y25947619D01*
X27784642Y34117619D02*
X27879880Y34117619D01*
X27975119Y34070000D01*
X28022738Y34022380D01*
X28070357Y33927142D01*
X28117976Y33736666D01*
X28117976Y33498571D01*
X28070357Y33308095D01*
X28022738Y33212857D01*
X27975119Y33165238D01*
X27879880Y33117619D01*
X27784642Y33117619D01*
X27689404Y33165238D01*
X27641785Y33212857D01*
X27594166Y33308095D01*
X27546547Y33498571D01*
X27546547Y33736666D01*
X27594166Y33927142D01*
X27641785Y34022380D01*
X27689404Y34070000D01*
X27784642Y34117619D01*
X28546547Y33212857D02*
X28594166Y33165238D01*
X28546547Y33117619D01*
X28498928Y33165238D01*
X28546547Y33212857D01*
X28546547Y33117619D01*
X29546547Y33117619D02*
X28975119Y33117619D01*
X29260833Y33117619D02*
X29260833Y34117619D01*
X29165595Y33974761D01*
X29070357Y33879523D01*
X28975119Y33831904D01*
X30403690Y33784285D02*
X30403690Y33117619D01*
X29975119Y33784285D02*
X29975119Y33260476D01*
X30022738Y33165238D01*
X30117976Y33117619D01*
X30260833Y33117619D01*
X30356071Y33165238D01*
X30403690Y33212857D01*
X31213214Y33641428D02*
X30879880Y33641428D01*
X30879880Y33117619D02*
X30879880Y34117619D01*
X31356071Y34117619D01*
X36738095Y19785238D02*
X36880952Y19737619D01*
X37119047Y19737619D01*
X37214285Y19785238D01*
X37261904Y19832857D01*
X37309523Y19928095D01*
X37309523Y20023333D01*
X37261904Y20118571D01*
X37214285Y20166190D01*
X37119047Y20213809D01*
X36928571Y20261428D01*
X36833333Y20309047D01*
X36785714Y20356666D01*
X36738095Y20451904D01*
X36738095Y20547142D01*
X36785714Y20642380D01*
X36833333Y20690000D01*
X36928571Y20737619D01*
X37166666Y20737619D01*
X37309523Y20690000D01*
X38214285Y20737619D02*
X37738095Y20737619D01*
X37690476Y20261428D01*
X37738095Y20309047D01*
X37833333Y20356666D01*
X38071428Y20356666D01*
X38166666Y20309047D01*
X38214285Y20261428D01*
X38261904Y20166190D01*
X38261904Y19928095D01*
X38214285Y19832857D01*
X38166666Y19785238D01*
X38071428Y19737619D01*
X37833333Y19737619D01*
X37738095Y19785238D01*
X37690476Y19832857D01*
M02*
