G04 #@! TF.GenerationSoftware,KiCad,Pcbnew,5.1.5+dfsg1-2build2*
G04 #@! TF.CreationDate,2020-07-19T12:41:51+10:00*
G04 #@! TF.ProjectId,grinder_timer,6772696e-6465-4725-9f74-696d65722e6b,rev?*
G04 #@! TF.SameCoordinates,Original*
G04 #@! TF.FileFunction,Legend,Bot*
G04 #@! TF.FilePolarity,Positive*
%FSLAX46Y46*%
G04 Gerber Fmt 4.6, Leading zero omitted, Abs format (unit mm)*
G04 Created by KiCad (PCBNEW 5.1.5+dfsg1-2build2) date 2020-07-19 12:41:51*
%MOMM*%
%LPD*%
G04 APERTURE LIST*
%ADD10C,0.300000*%
%ADD11C,0.187500*%
%ADD12C,0.010000*%
%ADD13C,0.120000*%
%ADD14C,0.100000*%
%ADD15C,0.150000*%
G04 APERTURE END LIST*
D10*
X47142857Y80321428D02*
X47142857Y81821428D01*
X46500000Y80321428D02*
X46500000Y81107142D01*
X46571428Y81250000D01*
X46714285Y81321428D01*
X46928571Y81321428D01*
X47071428Y81250000D01*
X47142857Y81178571D01*
X46000000Y81321428D02*
X45428571Y81321428D01*
X45785714Y81821428D02*
X45785714Y80535714D01*
X45714285Y80392857D01*
X45571428Y80321428D01*
X45428571Y80321428D01*
X45142857Y81321428D02*
X44571428Y81321428D01*
X44928571Y81821428D02*
X44928571Y80535714D01*
X44857142Y80392857D01*
X44714285Y80321428D01*
X44571428Y80321428D01*
X44071428Y81321428D02*
X44071428Y79821428D01*
X44071428Y81250000D02*
X43928571Y81321428D01*
X43642857Y81321428D01*
X43500000Y81250000D01*
X43428571Y81178571D01*
X43357142Y81035714D01*
X43357142Y80607142D01*
X43428571Y80464285D01*
X43500000Y80392857D01*
X43642857Y80321428D01*
X43928571Y80321428D01*
X44071428Y80392857D01*
X42785714Y80392857D02*
X42642857Y80321428D01*
X42357142Y80321428D01*
X42214285Y80392857D01*
X42142857Y80535714D01*
X42142857Y80607142D01*
X42214285Y80750000D01*
X42357142Y80821428D01*
X42571428Y80821428D01*
X42714285Y80892857D01*
X42785714Y81035714D01*
X42785714Y81107142D01*
X42714285Y81250000D01*
X42571428Y81321428D01*
X42357142Y81321428D01*
X42214285Y81250000D01*
X41500000Y80464285D02*
X41428571Y80392857D01*
X41500000Y80321428D01*
X41571428Y80392857D01*
X41500000Y80464285D01*
X41500000Y80321428D01*
X41500000Y81250000D02*
X41428571Y81178571D01*
X41500000Y81107142D01*
X41571428Y81178571D01*
X41500000Y81250000D01*
X41500000Y81107142D01*
X39714285Y81892857D02*
X41000000Y79964285D01*
X38142857Y81892857D02*
X39428571Y79964285D01*
X37000000Y80392857D02*
X37142857Y80321428D01*
X37428571Y80321428D01*
X37571428Y80392857D01*
X37642857Y80464285D01*
X37714285Y80607142D01*
X37714285Y81035714D01*
X37642857Y81178571D01*
X37571428Y81250000D01*
X37428571Y81321428D01*
X37142857Y81321428D01*
X37000000Y81250000D01*
X36142857Y80321428D02*
X36285714Y80392857D01*
X36357142Y80535714D01*
X36357142Y81821428D01*
X35000000Y80392857D02*
X35142857Y80321428D01*
X35428571Y80321428D01*
X35571428Y80392857D01*
X35642857Y80535714D01*
X35642857Y81107142D01*
X35571428Y81250000D01*
X35428571Y81321428D01*
X35142857Y81321428D01*
X35000000Y81250000D01*
X34928571Y81107142D01*
X34928571Y80964285D01*
X35642857Y80821428D01*
X34428571Y81321428D02*
X34142857Y80321428D01*
X33857142Y81035714D01*
X33571428Y80321428D01*
X33285714Y81321428D01*
X32785714Y80392857D02*
X32642857Y80321428D01*
X32357142Y80321428D01*
X32214285Y80392857D01*
X32142857Y80535714D01*
X32142857Y80607142D01*
X32214285Y80750000D01*
X32357142Y80821428D01*
X32571428Y80821428D01*
X32714285Y80892857D01*
X32785714Y81035714D01*
X32785714Y81107142D01*
X32714285Y81250000D01*
X32571428Y81321428D01*
X32357142Y81321428D01*
X32214285Y81250000D01*
X31500000Y80464285D02*
X31428571Y80392857D01*
X31500000Y80321428D01*
X31571428Y80392857D01*
X31500000Y80464285D01*
X31500000Y80321428D01*
X30785714Y81321428D02*
X30785714Y79821428D01*
X30785714Y81250000D02*
X30642857Y81321428D01*
X30357142Y81321428D01*
X30214285Y81250000D01*
X30142857Y81178571D01*
X30071428Y81035714D01*
X30071428Y80607142D01*
X30142857Y80464285D01*
X30214285Y80392857D01*
X30357142Y80321428D01*
X30642857Y80321428D01*
X30785714Y80392857D01*
X29428571Y80321428D02*
X29428571Y81321428D01*
X29428571Y81035714D02*
X29357142Y81178571D01*
X29285714Y81250000D01*
X29142857Y81321428D01*
X29000000Y81321428D01*
X28285714Y80321428D02*
X28428571Y80392857D01*
X28500000Y80464285D01*
X28571428Y80607142D01*
X28571428Y81035714D01*
X28500000Y81178571D01*
X28428571Y81250000D01*
X28285714Y81321428D01*
X28071428Y81321428D01*
X27928571Y81250000D01*
X27857142Y81178571D01*
X27785714Y81035714D01*
X27785714Y80607142D01*
X27857142Y80464285D01*
X27928571Y80392857D01*
X28071428Y80321428D01*
X28285714Y80321428D01*
D11*
X63199553Y65984642D02*
X63163839Y65948928D01*
X63199553Y65913214D01*
X63235267Y65948928D01*
X63199553Y65984642D01*
X63199553Y65913214D01*
X63199553Y66198928D02*
X63235267Y66627500D01*
X63199553Y66663214D01*
X63163839Y66627500D01*
X63199553Y66198928D01*
X63199553Y66663214D01*
X62842410Y65913214D02*
X62842410Y66663214D01*
X62663839Y66663214D01*
X62556696Y66627500D01*
X62485267Y66556071D01*
X62449553Y66484642D01*
X62413839Y66341785D01*
X62413839Y66234642D01*
X62449553Y66091785D01*
X62485267Y66020357D01*
X62556696Y65948928D01*
X62663839Y65913214D01*
X62842410Y65913214D01*
X62199553Y66663214D02*
X61770982Y66663214D01*
X61985267Y65913214D02*
X61985267Y66663214D01*
X61092410Y65913214D02*
X61342410Y66270357D01*
X61520982Y65913214D02*
X61520982Y66663214D01*
X61235267Y66663214D01*
X61163839Y66627500D01*
X61128125Y66591785D01*
X61092410Y66520357D01*
X61092410Y66413214D01*
X61128125Y66341785D01*
X61163839Y66306071D01*
X61235267Y66270357D01*
X61520982Y66270357D01*
X62770982Y63288214D02*
X63020982Y63645357D01*
X63199553Y63288214D02*
X63199553Y64038214D01*
X62913839Y64038214D01*
X62842410Y64002500D01*
X62806696Y63966785D01*
X62770982Y63895357D01*
X62770982Y63788214D01*
X62806696Y63716785D01*
X62842410Y63681071D01*
X62913839Y63645357D01*
X63199553Y63645357D01*
X62520982Y64038214D02*
X62020982Y63288214D01*
X62020982Y64038214D02*
X62520982Y63288214D01*
X60949553Y63002500D02*
X60985267Y63038214D01*
X61056696Y63145357D01*
X61092410Y63216785D01*
X61128125Y63323928D01*
X61163839Y63502500D01*
X61163839Y63645357D01*
X61128125Y63823928D01*
X61092410Y63931071D01*
X61056696Y64002500D01*
X60985267Y64109642D01*
X60949553Y64145357D01*
X60699553Y63502500D02*
X60342410Y63502500D01*
X60770982Y63288214D02*
X60520982Y64038214D01*
X60270982Y63288214D01*
X60128125Y64038214D02*
X59878125Y63288214D01*
X59628125Y64038214D01*
X58949553Y63288214D02*
X59199553Y63645357D01*
X59378125Y63288214D02*
X59378125Y64038214D01*
X59092410Y64038214D01*
X59020982Y64002500D01*
X58985267Y63966785D01*
X58949553Y63895357D01*
X58949553Y63788214D01*
X58985267Y63716785D01*
X59020982Y63681071D01*
X59092410Y63645357D01*
X59378125Y63645357D01*
X58806696Y63216785D02*
X58235267Y63216785D01*
X58163839Y64038214D02*
X57735267Y64038214D01*
X57949553Y63288214D02*
X57949553Y64038214D01*
X57556696Y64038214D02*
X57056696Y63288214D01*
X57056696Y64038214D02*
X57556696Y63288214D01*
X56842410Y63002500D02*
X56806696Y63038214D01*
X56735267Y63145357D01*
X56699553Y63216785D01*
X56663839Y63323928D01*
X56628125Y63502500D01*
X56628125Y63645357D01*
X56663839Y63823928D01*
X56699553Y63931071D01*
X56735267Y64002500D01*
X56806696Y64109642D01*
X56842410Y64145357D01*
X63306696Y61413214D02*
X62878125Y61413214D01*
X63092410Y60663214D02*
X63092410Y61413214D01*
X62699553Y61413214D02*
X62199553Y60663214D01*
X62199553Y61413214D02*
X62699553Y60663214D01*
X61128125Y60377500D02*
X61163839Y60413214D01*
X61235267Y60520357D01*
X61270982Y60591785D01*
X61306696Y60698928D01*
X61342410Y60877500D01*
X61342410Y61020357D01*
X61306696Y61198928D01*
X61270982Y61306071D01*
X61235267Y61377500D01*
X61163839Y61484642D01*
X61128125Y61520357D01*
X60878125Y60877500D02*
X60520982Y60877500D01*
X60949553Y60663214D02*
X60699553Y61413214D01*
X60449553Y60663214D01*
X60306696Y61413214D02*
X60056696Y60663214D01*
X59806696Y61413214D01*
X59128125Y60663214D02*
X59378125Y61020357D01*
X59556696Y60663214D02*
X59556696Y61413214D01*
X59270982Y61413214D01*
X59199553Y61377500D01*
X59163839Y61341785D01*
X59128125Y61270357D01*
X59128125Y61163214D01*
X59163839Y61091785D01*
X59199553Y61056071D01*
X59270982Y61020357D01*
X59556696Y61020357D01*
X58985267Y60591785D02*
X58413839Y60591785D01*
X57806696Y60663214D02*
X58056696Y61020357D01*
X58235267Y60663214D02*
X58235267Y61413214D01*
X57949553Y61413214D01*
X57878125Y61377500D01*
X57842410Y61341785D01*
X57806696Y61270357D01*
X57806696Y61163214D01*
X57842410Y61091785D01*
X57878125Y61056071D01*
X57949553Y61020357D01*
X58235267Y61020357D01*
X57556696Y61413214D02*
X57056696Y60663214D01*
X57056696Y61413214D02*
X57556696Y60663214D01*
X56842410Y60377500D02*
X56806696Y60413214D01*
X56735267Y60520357D01*
X56699553Y60591785D01*
X56663839Y60698928D01*
X56628125Y60877500D01*
X56628125Y61020357D01*
X56663839Y61198928D01*
X56699553Y61306071D01*
X56735267Y61377500D01*
X56806696Y61484642D01*
X56842410Y61520357D01*
X63306696Y58788214D02*
X63056696Y58038214D01*
X62806696Y58788214D01*
X62128125Y58109642D02*
X62163839Y58073928D01*
X62270982Y58038214D01*
X62342410Y58038214D01*
X62449553Y58073928D01*
X62520982Y58145357D01*
X62556696Y58216785D01*
X62592410Y58359642D01*
X62592410Y58466785D01*
X62556696Y58609642D01*
X62520982Y58681071D01*
X62449553Y58752500D01*
X62342410Y58788214D01*
X62270982Y58788214D01*
X62163839Y58752500D01*
X62128125Y58716785D01*
X61378125Y58109642D02*
X61413839Y58073928D01*
X61520982Y58038214D01*
X61592410Y58038214D01*
X61699553Y58073928D01*
X61770982Y58145357D01*
X61806696Y58216785D01*
X61842410Y58359642D01*
X61842410Y58466785D01*
X61806696Y58609642D01*
X61770982Y58681071D01*
X61699553Y58752500D01*
X61592410Y58788214D01*
X61520982Y58788214D01*
X61413839Y58752500D01*
X61378125Y58716785D01*
X63199553Y55484642D02*
X63163839Y55448928D01*
X63199553Y55413214D01*
X63235267Y55448928D01*
X63199553Y55484642D01*
X63199553Y55413214D01*
X63199553Y55698928D02*
X63235267Y56127500D01*
X63199553Y56163214D01*
X63163839Y56127500D01*
X63199553Y55698928D01*
X63199553Y56163214D01*
X62413839Y55484642D02*
X62449553Y55448928D01*
X62556696Y55413214D01*
X62628125Y55413214D01*
X62735267Y55448928D01*
X62806696Y55520357D01*
X62842410Y55591785D01*
X62878125Y55734642D01*
X62878125Y55841785D01*
X62842410Y55984642D01*
X62806696Y56056071D01*
X62735267Y56127500D01*
X62628125Y56163214D01*
X62556696Y56163214D01*
X62449553Y56127500D01*
X62413839Y56091785D01*
X62199553Y56163214D02*
X61770982Y56163214D01*
X61985267Y55413214D02*
X61985267Y56163214D01*
X61556696Y55448928D02*
X61449553Y55413214D01*
X61270982Y55413214D01*
X61199553Y55448928D01*
X61163839Y55484642D01*
X61128125Y55556071D01*
X61128125Y55627500D01*
X61163839Y55698928D01*
X61199553Y55734642D01*
X61270982Y55770357D01*
X61413839Y55806071D01*
X61485267Y55841785D01*
X61520982Y55877500D01*
X61556696Y55948928D01*
X61556696Y56020357D01*
X61520982Y56091785D01*
X61485267Y56127500D01*
X61413839Y56163214D01*
X61235267Y56163214D01*
X61128125Y56127500D01*
X62806696Y53502500D02*
X62878125Y53538214D01*
X62985267Y53538214D01*
X63092410Y53502500D01*
X63163839Y53431071D01*
X63199553Y53359642D01*
X63235267Y53216785D01*
X63235267Y53109642D01*
X63199553Y52966785D01*
X63163839Y52895357D01*
X63092410Y52823928D01*
X62985267Y52788214D01*
X62913839Y52788214D01*
X62806696Y52823928D01*
X62770982Y52859642D01*
X62770982Y53109642D01*
X62913839Y53109642D01*
X62449553Y52788214D02*
X62449553Y53538214D01*
X62020982Y52788214D01*
X62020982Y53538214D01*
X61663839Y52788214D02*
X61663839Y53538214D01*
X61485267Y53538214D01*
X61378125Y53502500D01*
X61306696Y53431071D01*
X61270982Y53359642D01*
X61235267Y53216785D01*
X61235267Y53109642D01*
X61270982Y52966785D01*
X61306696Y52895357D01*
X61378125Y52823928D01*
X61485267Y52788214D01*
X61663839Y52788214D01*
D12*
G36*
X37488374Y96459209D02*
G01*
X37473062Y96459005D01*
X36984965Y96452166D01*
X36955816Y96326547D01*
X36940640Y96256171D01*
X36918986Y96149182D01*
X36893386Y96018400D01*
X36866376Y95876646D01*
X36857415Y95828730D01*
X36788164Y95456531D01*
X36698137Y95412178D01*
X36637819Y95384549D01*
X36544673Y95344305D01*
X36432575Y95297362D01*
X36340694Y95259814D01*
X36073277Y95151802D01*
X35661523Y95431410D01*
X35534076Y95517146D01*
X35420160Y95592248D01*
X35326490Y95652411D01*
X35259784Y95693333D01*
X35226759Y95710709D01*
X35225142Y95711018D01*
X35200583Y95694002D01*
X35146615Y95646575D01*
X35069046Y95574172D01*
X34973681Y95482225D01*
X34866326Y95376169D01*
X34851693Y95361529D01*
X34502873Y95012040D01*
X34712485Y94702034D01*
X34793044Y94583313D01*
X34869764Y94471006D01*
X34935354Y94375737D01*
X34982522Y94308127D01*
X34992551Y94294044D01*
X35034094Y94231522D01*
X35059401Y94184278D01*
X35063007Y94171533D01*
X35053374Y94139567D01*
X35027412Y94072064D01*
X34989526Y93979261D01*
X34944120Y93871391D01*
X34895598Y93758689D01*
X34848365Y93651389D01*
X34806825Y93559727D01*
X34775384Y93493936D01*
X34758769Y93464594D01*
X34728660Y93452867D01*
X34657152Y93433947D01*
X34552273Y93409688D01*
X34422052Y93381941D01*
X34274515Y93352560D01*
X34267261Y93351165D01*
X34103526Y93319397D01*
X33982439Y93294638D01*
X33897236Y93274768D01*
X33841154Y93257671D01*
X33807428Y93241229D01*
X33789295Y93223323D01*
X33779991Y93201837D01*
X33778969Y93198282D01*
X33772181Y93147574D01*
X33767120Y93057959D01*
X33763786Y92940748D01*
X33762176Y92807250D01*
X33762291Y92668776D01*
X33764129Y92536636D01*
X33767690Y92422140D01*
X33772973Y92336600D01*
X33779040Y92294278D01*
X33787727Y92271598D01*
X33804220Y92253125D01*
X33835456Y92236690D01*
X33888373Y92220124D01*
X33969907Y92201256D01*
X34086995Y92177919D01*
X34246573Y92147942D01*
X34247604Y92147750D01*
X34393420Y92119406D01*
X34522905Y92091859D01*
X34627604Y92067099D01*
X34699065Y92047115D01*
X34728224Y92034619D01*
X34747424Y92001952D01*
X34780824Y91931319D01*
X34824474Y91831609D01*
X34874424Y91711713D01*
X34901318Y91644992D01*
X35044902Y91284702D01*
X34501320Y90482374D01*
X34850917Y90132107D01*
X34959354Y90024525D01*
X35056337Y89930321D01*
X35136116Y89854916D01*
X35192944Y89803730D01*
X35221072Y89782182D01*
X35222384Y89781839D01*
X35249327Y89795258D01*
X35310687Y89832512D01*
X35399388Y89889095D01*
X35508355Y89960502D01*
X35616950Y90033076D01*
X35738601Y90114024D01*
X35846952Y90184128D01*
X35934762Y90238864D01*
X35994789Y90273704D01*
X36018930Y90284312D01*
X36053744Y90272904D01*
X36119294Y90242713D01*
X36202633Y90199785D01*
X36219716Y90190521D01*
X36301763Y90147780D01*
X36365411Y90118614D01*
X36399365Y90108091D01*
X36401812Y90108869D01*
X36414797Y90135605D01*
X36443915Y90202241D01*
X36486475Y90302246D01*
X36539788Y90429088D01*
X36601164Y90576233D01*
X36667912Y90737151D01*
X36737343Y90905308D01*
X36806766Y91074172D01*
X36873491Y91237212D01*
X36934828Y91387894D01*
X36988087Y91519688D01*
X37030578Y91626060D01*
X37059611Y91700478D01*
X37072495Y91736410D01*
X37072898Y91738428D01*
X37053795Y91763263D01*
X37003150Y91807763D01*
X36930954Y91863322D01*
X36912131Y91876917D01*
X36736736Y92029866D01*
X36602349Y92205477D01*
X36509627Y92397800D01*
X36459226Y92600886D01*
X36451800Y92808786D01*
X36488006Y93015552D01*
X36568498Y93215234D01*
X36693934Y93401883D01*
X36738509Y93452402D01*
X36910242Y93600929D01*
X37104818Y93705102D01*
X37319021Y93763530D01*
X37487438Y93776498D01*
X37706220Y93753336D01*
X37907061Y93687479D01*
X38086199Y93584371D01*
X38239872Y93449456D01*
X38364316Y93288180D01*
X38455771Y93105986D01*
X38510472Y92908318D01*
X38524658Y92700621D01*
X38494567Y92488339D01*
X38457976Y92372118D01*
X38358876Y92181067D01*
X38214203Y92006963D01*
X38066837Y91881752D01*
X37990363Y91822962D01*
X37932738Y91773626D01*
X37903676Y91742233D01*
X37901978Y91737689D01*
X37911214Y91710728D01*
X37937131Y91643933D01*
X37977041Y91543831D01*
X38028256Y91416952D01*
X38088088Y91269824D01*
X38153850Y91108977D01*
X38222853Y90940940D01*
X38292411Y90772242D01*
X38359835Y90609412D01*
X38422438Y90458979D01*
X38477531Y90327472D01*
X38522428Y90221419D01*
X38554439Y90147351D01*
X38570879Y90111795D01*
X38572107Y90109826D01*
X38597052Y90115579D01*
X38654541Y90140866D01*
X38733307Y90180620D01*
X38753620Y90191478D01*
X38839292Y90235752D01*
X38909813Y90268551D01*
X38952103Y90283872D01*
X38955874Y90284312D01*
X38985619Y90270793D01*
X39049434Y90233272D01*
X39140050Y90176309D01*
X39250195Y90104460D01*
X39356711Y90033076D01*
X39477440Y89952059D01*
X39584394Y89881909D01*
X39670454Y89827164D01*
X39728503Y89792363D01*
X39750766Y89781839D01*
X39774994Y89798851D01*
X39828670Y89846269D01*
X39906012Y89918670D01*
X40001241Y90010628D01*
X40108578Y90116719D01*
X40123960Y90132107D01*
X40473557Y90482374D01*
X40201765Y90883538D01*
X39929974Y91284702D01*
X40073558Y91644992D01*
X40125221Y91771869D01*
X40172614Y91883193D01*
X40211789Y91970058D01*
X40238792Y92023557D01*
X40246652Y92035173D01*
X40279884Y92049151D01*
X40354170Y92069721D01*
X40461058Y92094884D01*
X40592093Y92122641D01*
X40727409Y92148881D01*
X40887325Y92178924D01*
X41004702Y92202328D01*
X41086472Y92221250D01*
X41139565Y92237852D01*
X41170913Y92254291D01*
X41187449Y92272728D01*
X41195973Y92294855D01*
X41202720Y92345367D01*
X41207756Y92434791D01*
X41211082Y92551823D01*
X41212697Y92685158D01*
X41212601Y92823494D01*
X41210793Y92955525D01*
X41207274Y93069947D01*
X41202043Y93155456D01*
X41195987Y93197940D01*
X41186900Y93221021D01*
X41169365Y93239825D01*
X41136245Y93256662D01*
X41080405Y93273843D01*
X40994708Y93293678D01*
X40872020Y93318478D01*
X40752547Y93341513D01*
X40608726Y93369182D01*
X40479047Y93394447D01*
X40372884Y93415457D01*
X40299609Y93430362D01*
X40271714Y93436460D01*
X40246648Y93447692D01*
X40221040Y93472560D01*
X40191785Y93516900D01*
X40155775Y93586550D01*
X40109907Y93687345D01*
X40051075Y93825124D01*
X40001488Y93944347D01*
X39906152Y94175004D01*
X40139590Y94522190D01*
X40221701Y94643950D01*
X40297692Y94755968D01*
X40361548Y94849429D01*
X40407257Y94915520D01*
X40424052Y94939168D01*
X40475077Y95008960D01*
X40124383Y95360946D01*
X39991322Y95491953D01*
X39882896Y95593353D01*
X39801578Y95662981D01*
X39749842Y95698670D01*
X39733991Y95702882D01*
X39701534Y95686048D01*
X39634954Y95645212D01*
X39541423Y95584996D01*
X39428115Y95510020D01*
X39302205Y95424906D01*
X39297355Y95421593D01*
X38900418Y95150355D01*
X38570783Y95283430D01*
X38449547Y95333457D01*
X38343983Y95379046D01*
X38263464Y95416000D01*
X38217360Y95440119D01*
X38211423Y95444424D01*
X38197705Y95476913D01*
X38177220Y95550732D01*
X38151893Y95657720D01*
X38123649Y95789717D01*
X38094412Y95938563D01*
X38092667Y95947856D01*
X38063909Y96096853D01*
X38036776Y96228973D01*
X38013045Y96336210D01*
X37994494Y96410556D01*
X37982899Y96444006D01*
X37982397Y96444606D01*
X37951751Y96450842D01*
X37878950Y96455649D01*
X37772069Y96458798D01*
X37639184Y96460060D01*
X37488374Y96459209D01*
G37*
X37488374Y96459209D02*
X37473062Y96459005D01*
X36984965Y96452166D01*
X36955816Y96326547D01*
X36940640Y96256171D01*
X36918986Y96149182D01*
X36893386Y96018400D01*
X36866376Y95876646D01*
X36857415Y95828730D01*
X36788164Y95456531D01*
X36698137Y95412178D01*
X36637819Y95384549D01*
X36544673Y95344305D01*
X36432575Y95297362D01*
X36340694Y95259814D01*
X36073277Y95151802D01*
X35661523Y95431410D01*
X35534076Y95517146D01*
X35420160Y95592248D01*
X35326490Y95652411D01*
X35259784Y95693333D01*
X35226759Y95710709D01*
X35225142Y95711018D01*
X35200583Y95694002D01*
X35146615Y95646575D01*
X35069046Y95574172D01*
X34973681Y95482225D01*
X34866326Y95376169D01*
X34851693Y95361529D01*
X34502873Y95012040D01*
X34712485Y94702034D01*
X34793044Y94583313D01*
X34869764Y94471006D01*
X34935354Y94375737D01*
X34982522Y94308127D01*
X34992551Y94294044D01*
X35034094Y94231522D01*
X35059401Y94184278D01*
X35063007Y94171533D01*
X35053374Y94139567D01*
X35027412Y94072064D01*
X34989526Y93979261D01*
X34944120Y93871391D01*
X34895598Y93758689D01*
X34848365Y93651389D01*
X34806825Y93559727D01*
X34775384Y93493936D01*
X34758769Y93464594D01*
X34728660Y93452867D01*
X34657152Y93433947D01*
X34552273Y93409688D01*
X34422052Y93381941D01*
X34274515Y93352560D01*
X34267261Y93351165D01*
X34103526Y93319397D01*
X33982439Y93294638D01*
X33897236Y93274768D01*
X33841154Y93257671D01*
X33807428Y93241229D01*
X33789295Y93223323D01*
X33779991Y93201837D01*
X33778969Y93198282D01*
X33772181Y93147574D01*
X33767120Y93057959D01*
X33763786Y92940748D01*
X33762176Y92807250D01*
X33762291Y92668776D01*
X33764129Y92536636D01*
X33767690Y92422140D01*
X33772973Y92336600D01*
X33779040Y92294278D01*
X33787727Y92271598D01*
X33804220Y92253125D01*
X33835456Y92236690D01*
X33888373Y92220124D01*
X33969907Y92201256D01*
X34086995Y92177919D01*
X34246573Y92147942D01*
X34247604Y92147750D01*
X34393420Y92119406D01*
X34522905Y92091859D01*
X34627604Y92067099D01*
X34699065Y92047115D01*
X34728224Y92034619D01*
X34747424Y92001952D01*
X34780824Y91931319D01*
X34824474Y91831609D01*
X34874424Y91711713D01*
X34901318Y91644992D01*
X35044902Y91284702D01*
X34501320Y90482374D01*
X34850917Y90132107D01*
X34959354Y90024525D01*
X35056337Y89930321D01*
X35136116Y89854916D01*
X35192944Y89803730D01*
X35221072Y89782182D01*
X35222384Y89781839D01*
X35249327Y89795258D01*
X35310687Y89832512D01*
X35399388Y89889095D01*
X35508355Y89960502D01*
X35616950Y90033076D01*
X35738601Y90114024D01*
X35846952Y90184128D01*
X35934762Y90238864D01*
X35994789Y90273704D01*
X36018930Y90284312D01*
X36053744Y90272904D01*
X36119294Y90242713D01*
X36202633Y90199785D01*
X36219716Y90190521D01*
X36301763Y90147780D01*
X36365411Y90118614D01*
X36399365Y90108091D01*
X36401812Y90108869D01*
X36414797Y90135605D01*
X36443915Y90202241D01*
X36486475Y90302246D01*
X36539788Y90429088D01*
X36601164Y90576233D01*
X36667912Y90737151D01*
X36737343Y90905308D01*
X36806766Y91074172D01*
X36873491Y91237212D01*
X36934828Y91387894D01*
X36988087Y91519688D01*
X37030578Y91626060D01*
X37059611Y91700478D01*
X37072495Y91736410D01*
X37072898Y91738428D01*
X37053795Y91763263D01*
X37003150Y91807763D01*
X36930954Y91863322D01*
X36912131Y91876917D01*
X36736736Y92029866D01*
X36602349Y92205477D01*
X36509627Y92397800D01*
X36459226Y92600886D01*
X36451800Y92808786D01*
X36488006Y93015552D01*
X36568498Y93215234D01*
X36693934Y93401883D01*
X36738509Y93452402D01*
X36910242Y93600929D01*
X37104818Y93705102D01*
X37319021Y93763530D01*
X37487438Y93776498D01*
X37706220Y93753336D01*
X37907061Y93687479D01*
X38086199Y93584371D01*
X38239872Y93449456D01*
X38364316Y93288180D01*
X38455771Y93105986D01*
X38510472Y92908318D01*
X38524658Y92700621D01*
X38494567Y92488339D01*
X38457976Y92372118D01*
X38358876Y92181067D01*
X38214203Y92006963D01*
X38066837Y91881752D01*
X37990363Y91822962D01*
X37932738Y91773626D01*
X37903676Y91742233D01*
X37901978Y91737689D01*
X37911214Y91710728D01*
X37937131Y91643933D01*
X37977041Y91543831D01*
X38028256Y91416952D01*
X38088088Y91269824D01*
X38153850Y91108977D01*
X38222853Y90940940D01*
X38292411Y90772242D01*
X38359835Y90609412D01*
X38422438Y90458979D01*
X38477531Y90327472D01*
X38522428Y90221419D01*
X38554439Y90147351D01*
X38570879Y90111795D01*
X38572107Y90109826D01*
X38597052Y90115579D01*
X38654541Y90140866D01*
X38733307Y90180620D01*
X38753620Y90191478D01*
X38839292Y90235752D01*
X38909813Y90268551D01*
X38952103Y90283872D01*
X38955874Y90284312D01*
X38985619Y90270793D01*
X39049434Y90233272D01*
X39140050Y90176309D01*
X39250195Y90104460D01*
X39356711Y90033076D01*
X39477440Y89952059D01*
X39584394Y89881909D01*
X39670454Y89827164D01*
X39728503Y89792363D01*
X39750766Y89781839D01*
X39774994Y89798851D01*
X39828670Y89846269D01*
X39906012Y89918670D01*
X40001241Y90010628D01*
X40108578Y90116719D01*
X40123960Y90132107D01*
X40473557Y90482374D01*
X40201765Y90883538D01*
X39929974Y91284702D01*
X40073558Y91644992D01*
X40125221Y91771869D01*
X40172614Y91883193D01*
X40211789Y91970058D01*
X40238792Y92023557D01*
X40246652Y92035173D01*
X40279884Y92049151D01*
X40354170Y92069721D01*
X40461058Y92094884D01*
X40592093Y92122641D01*
X40727409Y92148881D01*
X40887325Y92178924D01*
X41004702Y92202328D01*
X41086472Y92221250D01*
X41139565Y92237852D01*
X41170913Y92254291D01*
X41187449Y92272728D01*
X41195973Y92294855D01*
X41202720Y92345367D01*
X41207756Y92434791D01*
X41211082Y92551823D01*
X41212697Y92685158D01*
X41212601Y92823494D01*
X41210793Y92955525D01*
X41207274Y93069947D01*
X41202043Y93155456D01*
X41195987Y93197940D01*
X41186900Y93221021D01*
X41169365Y93239825D01*
X41136245Y93256662D01*
X41080405Y93273843D01*
X40994708Y93293678D01*
X40872020Y93318478D01*
X40752547Y93341513D01*
X40608726Y93369182D01*
X40479047Y93394447D01*
X40372884Y93415457D01*
X40299609Y93430362D01*
X40271714Y93436460D01*
X40246648Y93447692D01*
X40221040Y93472560D01*
X40191785Y93516900D01*
X40155775Y93586550D01*
X40109907Y93687345D01*
X40051075Y93825124D01*
X40001488Y93944347D01*
X39906152Y94175004D01*
X40139590Y94522190D01*
X40221701Y94643950D01*
X40297692Y94755968D01*
X40361548Y94849429D01*
X40407257Y94915520D01*
X40424052Y94939168D01*
X40475077Y95008960D01*
X40124383Y95360946D01*
X39991322Y95491953D01*
X39882896Y95593353D01*
X39801578Y95662981D01*
X39749842Y95698670D01*
X39733991Y95702882D01*
X39701534Y95686048D01*
X39634954Y95645212D01*
X39541423Y95584996D01*
X39428115Y95510020D01*
X39302205Y95424906D01*
X39297355Y95421593D01*
X38900418Y95150355D01*
X38570783Y95283430D01*
X38449547Y95333457D01*
X38343983Y95379046D01*
X38263464Y95416000D01*
X38217360Y95440119D01*
X38211423Y95444424D01*
X38197705Y95476913D01*
X38177220Y95550732D01*
X38151893Y95657720D01*
X38123649Y95789717D01*
X38094412Y95938563D01*
X38092667Y95947856D01*
X38063909Y96096853D01*
X38036776Y96228973D01*
X38013045Y96336210D01*
X37994494Y96410556D01*
X37982899Y96444006D01*
X37982397Y96444606D01*
X37951751Y96450842D01*
X37878950Y96455649D01*
X37772069Y96458798D01*
X37639184Y96460060D01*
X37488374Y96459209D01*
G36*
X33004828Y88990159D02*
G01*
X32885831Y88935065D01*
X32781956Y88839221D01*
X32770134Y88823880D01*
X32732581Y88740521D01*
X32709928Y88614402D01*
X32707856Y88591486D01*
X32694505Y88425163D01*
X33334923Y88425163D01*
X33317680Y88356073D01*
X33271933Y88260043D01*
X33196515Y88200346D01*
X33099434Y88180068D01*
X32988695Y88202299D01*
X32956138Y88216656D01*
X32858660Y88264885D01*
X32787668Y88203820D01*
X32742805Y88162567D01*
X32733053Y88137749D01*
X32754887Y88113679D01*
X32765559Y88105412D01*
X32893894Y88035367D01*
X33038473Y88002236D01*
X33184187Y88007560D01*
X33310356Y88049877D01*
X33406973Y88124791D01*
X33471961Y88232546D01*
X33506851Y88376544D01*
X33514193Y88502991D01*
X33511486Y88611805D01*
X33506248Y88647458D01*
X33322505Y88647458D01*
X33315611Y88598920D01*
X33285453Y88588120D01*
X33218156Y88580037D01*
X33126809Y88576083D01*
X33101880Y88575905D01*
X33002323Y88576898D01*
X32942812Y88581654D01*
X32913159Y88592838D01*
X32903175Y88613114D01*
X32902374Y88628084D01*
X32922739Y88686462D01*
X32973125Y88749349D01*
X33037473Y88801229D01*
X33099719Y88826583D01*
X33108402Y88827141D01*
X33177641Y88809946D01*
X33243625Y88766314D01*
X33295524Y88708175D01*
X33322505Y88647458D01*
X33506248Y88647458D01*
X33500016Y88689866D01*
X33475593Y88756462D01*
X33448017Y88807486D01*
X33360540Y88913167D01*
X33251383Y88978988D01*
X33129745Y89004726D01*
X33004828Y88990159D01*
G37*
X33004828Y88990159D02*
X32885831Y88935065D01*
X32781956Y88839221D01*
X32770134Y88823880D01*
X32732581Y88740521D01*
X32709928Y88614402D01*
X32707856Y88591486D01*
X32694505Y88425163D01*
X33334923Y88425163D01*
X33317680Y88356073D01*
X33271933Y88260043D01*
X33196515Y88200346D01*
X33099434Y88180068D01*
X32988695Y88202299D01*
X32956138Y88216656D01*
X32858660Y88264885D01*
X32787668Y88203820D01*
X32742805Y88162567D01*
X32733053Y88137749D01*
X32754887Y88113679D01*
X32765559Y88105412D01*
X32893894Y88035367D01*
X33038473Y88002236D01*
X33184187Y88007560D01*
X33310356Y88049877D01*
X33406973Y88124791D01*
X33471961Y88232546D01*
X33506851Y88376544D01*
X33514193Y88502991D01*
X33511486Y88611805D01*
X33506248Y88647458D01*
X33322505Y88647458D01*
X33315611Y88598920D01*
X33285453Y88588120D01*
X33218156Y88580037D01*
X33126809Y88576083D01*
X33101880Y88575905D01*
X33002323Y88576898D01*
X32942812Y88581654D01*
X32913159Y88592838D01*
X32903175Y88613114D01*
X32902374Y88628084D01*
X32922739Y88686462D01*
X32973125Y88749349D01*
X33037473Y88801229D01*
X33099719Y88826583D01*
X33108402Y88827141D01*
X33177641Y88809946D01*
X33243625Y88766314D01*
X33295524Y88708175D01*
X33322505Y88647458D01*
X33506248Y88647458D01*
X33500016Y88689866D01*
X33475593Y88756462D01*
X33448017Y88807486D01*
X33360540Y88913167D01*
X33251383Y88978988D01*
X33129745Y89004726D01*
X33004828Y88990159D01*
G36*
X33757590Y88967680D02*
G01*
X33667190Y88915667D01*
X33575684Y88845873D01*
X33640823Y88780734D01*
X33686295Y88739160D01*
X33719824Y88730169D01*
X33764301Y88750131D01*
X33779112Y88758806D01*
X33887003Y88797696D01*
X33996228Y88793894D01*
X34092346Y88748183D01*
X34100627Y88741384D01*
X34137676Y88705285D01*
X34158845Y88666914D01*
X34168517Y88611297D01*
X34171074Y88523458D01*
X34171118Y88500534D01*
X34169463Y88404391D01*
X34161577Y88343488D01*
X34143076Y88302847D01*
X34109579Y88267495D01*
X34100627Y88259684D01*
X34006599Y88209852D01*
X33898030Y88201852D01*
X33789361Y88236466D01*
X33779112Y88242261D01*
X33728617Y88268618D01*
X33694551Y88266890D01*
X33654023Y88233450D01*
X33640823Y88220333D01*
X33575684Y88155195D01*
X33668587Y88084334D01*
X33773229Y88030947D01*
X33900401Y88004097D01*
X34028941Y88006224D01*
X34122116Y88032019D01*
X34231166Y88107266D01*
X34312150Y88215027D01*
X34363416Y88345071D01*
X34383312Y88487169D01*
X34370187Y88631089D01*
X34322390Y88766603D01*
X34256424Y88863979D01*
X34151945Y88947273D01*
X34025514Y88993063D01*
X33889829Y89000237D01*
X33757590Y88967680D01*
G37*
X33757590Y88967680D02*
X33667190Y88915667D01*
X33575684Y88845873D01*
X33640823Y88780734D01*
X33686295Y88739160D01*
X33719824Y88730169D01*
X33764301Y88750131D01*
X33779112Y88758806D01*
X33887003Y88797696D01*
X33996228Y88793894D01*
X34092346Y88748183D01*
X34100627Y88741384D01*
X34137676Y88705285D01*
X34158845Y88666914D01*
X34168517Y88611297D01*
X34171074Y88523458D01*
X34171118Y88500534D01*
X34169463Y88404391D01*
X34161577Y88343488D01*
X34143076Y88302847D01*
X34109579Y88267495D01*
X34100627Y88259684D01*
X34006599Y88209852D01*
X33898030Y88201852D01*
X33789361Y88236466D01*
X33779112Y88242261D01*
X33728617Y88268618D01*
X33694551Y88266890D01*
X33654023Y88233450D01*
X33640823Y88220333D01*
X33575684Y88155195D01*
X33668587Y88084334D01*
X33773229Y88030947D01*
X33900401Y88004097D01*
X34028941Y88006224D01*
X34122116Y88032019D01*
X34231166Y88107266D01*
X34312150Y88215027D01*
X34363416Y88345071D01*
X34383312Y88487169D01*
X34370187Y88631089D01*
X34322390Y88766603D01*
X34256424Y88863979D01*
X34151945Y88947273D01*
X34025514Y88993063D01*
X33889829Y89000237D01*
X33757590Y88967680D01*
G36*
X34871589Y88998760D02*
G01*
X34842521Y88981680D01*
X34836894Y88953128D01*
X34834719Y88921994D01*
X34819740Y88917106D01*
X34779277Y88938451D01*
X34755242Y88953035D01*
X34665076Y88988977D01*
X34563253Y89001646D01*
X34470096Y88990174D01*
X34420875Y88967281D01*
X34390093Y88941101D01*
X34388114Y88916017D01*
X34415733Y88873500D01*
X34425455Y88860506D01*
X34463296Y88817812D01*
X34504648Y88798501D01*
X34568857Y88795779D01*
X34604200Y88797742D01*
X34683172Y88799488D01*
X34731947Y88787091D01*
X34769994Y88754036D01*
X34783245Y88737826D01*
X34805198Y88705668D01*
X34820225Y88668438D01*
X34829614Y88616430D01*
X34834655Y88539938D01*
X34836636Y88429254D01*
X34836894Y88333842D01*
X34836894Y87998061D01*
X35037883Y87998061D01*
X35037883Y89003006D01*
X34937389Y89003006D01*
X34871589Y88998760D01*
G37*
X34871589Y88998760D02*
X34842521Y88981680D01*
X34836894Y88953128D01*
X34834719Y88921994D01*
X34819740Y88917106D01*
X34779277Y88938451D01*
X34755242Y88953035D01*
X34665076Y88988977D01*
X34563253Y89001646D01*
X34470096Y88990174D01*
X34420875Y88967281D01*
X34390093Y88941101D01*
X34388114Y88916017D01*
X34415733Y88873500D01*
X34425455Y88860506D01*
X34463296Y88817812D01*
X34504648Y88798501D01*
X34568857Y88795779D01*
X34604200Y88797742D01*
X34683172Y88799488D01*
X34731947Y88787091D01*
X34769994Y88754036D01*
X34783245Y88737826D01*
X34805198Y88705668D01*
X34820225Y88668438D01*
X34829614Y88616430D01*
X34834655Y88539938D01*
X34836636Y88429254D01*
X34836894Y88333842D01*
X34836894Y87998061D01*
X35037883Y87998061D01*
X35037883Y89003006D01*
X34937389Y89003006D01*
X34871589Y88998760D01*
G36*
X35263996Y87998061D02*
G01*
X35354281Y87998061D01*
X35420108Y88005415D01*
X35451793Y88032278D01*
X35457968Y88049312D01*
X35471202Y88084179D01*
X35493064Y88079638D01*
X35518171Y88058211D01*
X35590623Y88020717D01*
X35688203Y88004720D01*
X35790231Y88011065D01*
X35876027Y88040600D01*
X35880600Y88043374D01*
X35938164Y88083168D01*
X35980301Y88124951D01*
X36009388Y88177066D01*
X36027803Y88247857D01*
X36037924Y88345670D01*
X36042128Y88478846D01*
X36042829Y88612706D01*
X36042829Y89003006D01*
X35871643Y89003006D01*
X35853346Y88647880D01*
X35843225Y88486503D01*
X35830031Y88368703D01*
X35810866Y88287812D01*
X35782830Y88237160D01*
X35743023Y88210077D01*
X35688546Y88199895D01*
X35658214Y88199050D01*
X35593310Y88202225D01*
X35545916Y88216375D01*
X35512925Y88248438D01*
X35491228Y88305350D01*
X35477718Y88394050D01*
X35469285Y88521474D01*
X35464985Y88630333D01*
X35452423Y88990445D01*
X35358210Y88998242D01*
X35263996Y89006040D01*
X35263996Y87998061D01*
G37*
X35263996Y87998061D02*
X35354281Y87998061D01*
X35420108Y88005415D01*
X35451793Y88032278D01*
X35457968Y88049312D01*
X35471202Y88084179D01*
X35493064Y88079638D01*
X35518171Y88058211D01*
X35590623Y88020717D01*
X35688203Y88004720D01*
X35790231Y88011065D01*
X35876027Y88040600D01*
X35880600Y88043374D01*
X35938164Y88083168D01*
X35980301Y88124951D01*
X36009388Y88177066D01*
X36027803Y88247857D01*
X36037924Y88345670D01*
X36042128Y88478846D01*
X36042829Y88612706D01*
X36042829Y89003006D01*
X35871643Y89003006D01*
X35853346Y88647880D01*
X35843225Y88486503D01*
X35830031Y88368703D01*
X35810866Y88287812D01*
X35782830Y88237160D01*
X35743023Y88210077D01*
X35688546Y88199895D01*
X35658214Y88199050D01*
X35593310Y88202225D01*
X35545916Y88216375D01*
X35512925Y88248438D01*
X35491228Y88305350D01*
X35477718Y88394050D01*
X35469285Y88521474D01*
X35464985Y88630333D01*
X35452423Y88990445D01*
X35358210Y88998242D01*
X35263996Y89006040D01*
X35263996Y87998061D01*
G36*
X36505053Y88985089D02*
G01*
X36390945Y88924694D01*
X36297372Y88825009D01*
X36282862Y88801932D01*
X36255685Y88744569D01*
X36239940Y88677348D01*
X36233141Y88585357D01*
X36232367Y88499144D01*
X36240887Y88347599D01*
X36267530Y88233202D01*
X36316624Y88144789D01*
X36392494Y88071193D01*
X36400503Y88065124D01*
X36471722Y88031885D01*
X36569058Y88010378D01*
X36672887Y88002487D01*
X36763584Y88010098D01*
X36809100Y88025860D01*
X36926970Y88118972D01*
X37002248Y88237745D01*
X37024178Y88305912D01*
X37040731Y88420296D01*
X37041516Y88500534D01*
X36834223Y88500534D01*
X36832832Y88396611D01*
X36826661Y88330115D01*
X36812719Y88288257D01*
X36788012Y88258250D01*
X36774912Y88247077D01*
X36691026Y88207667D01*
X36593292Y88201892D01*
X36521169Y88223643D01*
X36481033Y88263740D01*
X36447999Y88326331D01*
X36447450Y88327887D01*
X36424189Y88435994D01*
X36423145Y88549415D01*
X36442024Y88654157D01*
X36478530Y88736227D01*
X36521169Y88777424D01*
X36611375Y88800756D01*
X36708460Y88788539D01*
X36774912Y88753990D01*
X36804591Y88725136D01*
X36822347Y88689386D01*
X36831173Y88633949D01*
X36834061Y88546039D01*
X36834223Y88500534D01*
X37041516Y88500534D01*
X37041969Y88546740D01*
X37029366Y88669069D01*
X37004393Y88771110D01*
X36976753Y88826922D01*
X36875548Y88927110D01*
X36756859Y88986639D01*
X36630193Y89005851D01*
X36505053Y88985089D01*
G37*
X36505053Y88985089D02*
X36390945Y88924694D01*
X36297372Y88825009D01*
X36282862Y88801932D01*
X36255685Y88744569D01*
X36239940Y88677348D01*
X36233141Y88585357D01*
X36232367Y88499144D01*
X36240887Y88347599D01*
X36267530Y88233202D01*
X36316624Y88144789D01*
X36392494Y88071193D01*
X36400503Y88065124D01*
X36471722Y88031885D01*
X36569058Y88010378D01*
X36672887Y88002487D01*
X36763584Y88010098D01*
X36809100Y88025860D01*
X36926970Y88118972D01*
X37002248Y88237745D01*
X37024178Y88305912D01*
X37040731Y88420296D01*
X37041516Y88500534D01*
X36834223Y88500534D01*
X36832832Y88396611D01*
X36826661Y88330115D01*
X36812719Y88288257D01*
X36788012Y88258250D01*
X36774912Y88247077D01*
X36691026Y88207667D01*
X36593292Y88201892D01*
X36521169Y88223643D01*
X36481033Y88263740D01*
X36447999Y88326331D01*
X36447450Y88327887D01*
X36424189Y88435994D01*
X36423145Y88549415D01*
X36442024Y88654157D01*
X36478530Y88736227D01*
X36521169Y88777424D01*
X36611375Y88800756D01*
X36708460Y88788539D01*
X36774912Y88753990D01*
X36804591Y88725136D01*
X36822347Y88689386D01*
X36831173Y88633949D01*
X36834061Y88546039D01*
X36834223Y88500534D01*
X37041516Y88500534D01*
X37041969Y88546740D01*
X37029366Y88669069D01*
X37004393Y88771110D01*
X36976753Y88826922D01*
X36875548Y88927110D01*
X36756859Y88986639D01*
X36630193Y89005851D01*
X36505053Y88985089D01*
G36*
X37419501Y88981232D02*
G01*
X37296955Y88941320D01*
X37238570Y88911885D01*
X37209032Y88890765D01*
X37206914Y88867000D01*
X37233259Y88823885D01*
X37245101Y88807160D01*
X37283373Y88758300D01*
X37314491Y88744884D01*
X37359514Y88760777D01*
X37376142Y88768976D01*
X37494809Y88812004D01*
X37601802Y88820096D01*
X37686401Y88792748D01*
X37698288Y88784133D01*
X37740472Y88734635D01*
X37740450Y88681993D01*
X37729415Y88656330D01*
X37709369Y88637746D01*
X37671179Y88623373D01*
X37605716Y88610342D01*
X37503848Y88595785D01*
X37439387Y88587420D01*
X37314965Y88552823D01*
X37228454Y88486857D01*
X37181663Y88391356D01*
X37173393Y88317427D01*
X37194925Y88196798D01*
X37257525Y88102664D01*
X37358201Y88037366D01*
X37493959Y88003248D01*
X37580845Y87998613D01*
X37689848Y88009608D01*
X37792529Y88037091D01*
X37814045Y88046118D01*
X37889401Y88084892D01*
X37952664Y88123321D01*
X37964787Y88132105D01*
X37996251Y88160031D01*
X37997108Y88184001D01*
X37965174Y88221598D01*
X37952004Y88234992D01*
X37888973Y88298846D01*
X37765600Y88236386D01*
X37640330Y88186815D01*
X37532937Y88177048D01*
X37437124Y88203652D01*
X37390238Y88236297D01*
X37377933Y88286672D01*
X37379414Y88310427D01*
X37385384Y88349496D01*
X37401065Y88374471D01*
X37437195Y88391063D01*
X37504508Y88404981D01*
X37579206Y88416689D01*
X37707948Y88439574D01*
X37796823Y88465613D01*
X37856160Y88500216D01*
X37896286Y88548795D01*
X37918701Y88594550D01*
X37944679Y88711656D01*
X37922472Y88818186D01*
X37853689Y88910306D01*
X37759169Y88974743D01*
X37667118Y88999937D01*
X37548392Y89001435D01*
X37419501Y88981232D01*
G37*
X37419501Y88981232D02*
X37296955Y88941320D01*
X37238570Y88911885D01*
X37209032Y88890765D01*
X37206914Y88867000D01*
X37233259Y88823885D01*
X37245101Y88807160D01*
X37283373Y88758300D01*
X37314491Y88744884D01*
X37359514Y88760777D01*
X37376142Y88768976D01*
X37494809Y88812004D01*
X37601802Y88820096D01*
X37686401Y88792748D01*
X37698288Y88784133D01*
X37740472Y88734635D01*
X37740450Y88681993D01*
X37729415Y88656330D01*
X37709369Y88637746D01*
X37671179Y88623373D01*
X37605716Y88610342D01*
X37503848Y88595785D01*
X37439387Y88587420D01*
X37314965Y88552823D01*
X37228454Y88486857D01*
X37181663Y88391356D01*
X37173393Y88317427D01*
X37194925Y88196798D01*
X37257525Y88102664D01*
X37358201Y88037366D01*
X37493959Y88003248D01*
X37580845Y87998613D01*
X37689848Y88009608D01*
X37792529Y88037091D01*
X37814045Y88046118D01*
X37889401Y88084892D01*
X37952664Y88123321D01*
X37964787Y88132105D01*
X37996251Y88160031D01*
X37997108Y88184001D01*
X37965174Y88221598D01*
X37952004Y88234992D01*
X37888973Y88298846D01*
X37765600Y88236386D01*
X37640330Y88186815D01*
X37532937Y88177048D01*
X37437124Y88203652D01*
X37390238Y88236297D01*
X37377933Y88286672D01*
X37379414Y88310427D01*
X37385384Y88349496D01*
X37401065Y88374471D01*
X37437195Y88391063D01*
X37504508Y88404981D01*
X37579206Y88416689D01*
X37707948Y88439574D01*
X37796823Y88465613D01*
X37856160Y88500216D01*
X37896286Y88548795D01*
X37918701Y88594550D01*
X37944679Y88711656D01*
X37922472Y88818186D01*
X37853689Y88910306D01*
X37759169Y88974743D01*
X37667118Y88999937D01*
X37548392Y89001435D01*
X37419501Y88981232D01*
G36*
X39192855Y88998760D02*
G01*
X39163787Y88981680D01*
X39158160Y88953128D01*
X39155985Y88921994D01*
X39141007Y88917106D01*
X39100544Y88938451D01*
X39076508Y88953035D01*
X38965158Y88995448D01*
X38847892Y88998028D01*
X38737313Y88964366D01*
X38646026Y88898052D01*
X38591366Y88814836D01*
X38574727Y88754412D01*
X38563483Y88662357D01*
X38557138Y88532468D01*
X38555193Y88363161D01*
X38555193Y87998061D01*
X38756182Y87998061D01*
X38756182Y88333842D01*
X38756900Y88472479D01*
X38759886Y88570522D01*
X38766390Y88637617D01*
X38777661Y88683405D01*
X38794948Y88717532D01*
X38808253Y88735820D01*
X38877223Y88787626D01*
X38963268Y88804608D01*
X39047753Y88785903D01*
X39097738Y88749213D01*
X39117372Y88721497D01*
X39131387Y88682850D01*
X39141024Y88624367D01*
X39147524Y88537145D01*
X39152129Y88412278D01*
X39153778Y88347235D01*
X39161958Y87998061D01*
X39359149Y87998061D01*
X39359149Y89003006D01*
X39258655Y89003006D01*
X39192855Y88998760D01*
G37*
X39192855Y88998760D02*
X39163787Y88981680D01*
X39158160Y88953128D01*
X39155985Y88921994D01*
X39141007Y88917106D01*
X39100544Y88938451D01*
X39076508Y88953035D01*
X38965158Y88995448D01*
X38847892Y88998028D01*
X38737313Y88964366D01*
X38646026Y88898052D01*
X38591366Y88814836D01*
X38574727Y88754412D01*
X38563483Y88662357D01*
X38557138Y88532468D01*
X38555193Y88363161D01*
X38555193Y87998061D01*
X38756182Y87998061D01*
X38756182Y88333842D01*
X38756900Y88472479D01*
X38759886Y88570522D01*
X38766390Y88637617D01*
X38777661Y88683405D01*
X38794948Y88717532D01*
X38808253Y88735820D01*
X38877223Y88787626D01*
X38963268Y88804608D01*
X39047753Y88785903D01*
X39097738Y88749213D01*
X39117372Y88721497D01*
X39131387Y88682850D01*
X39141024Y88624367D01*
X39147524Y88537145D01*
X39152129Y88412278D01*
X39153778Y88347235D01*
X39161958Y87998061D01*
X39359149Y87998061D01*
X39359149Y89003006D01*
X39258655Y89003006D01*
X39192855Y88998760D01*
G36*
X39841584Y88993887D02*
G01*
X39726057Y88946065D01*
X39624682Y88863310D01*
X39561884Y88751803D01*
X39535947Y88608162D01*
X39535015Y88570016D01*
X39535015Y88425163D01*
X39836498Y88425163D01*
X39963518Y88424848D01*
X40048664Y88422823D01*
X40100310Y88417464D01*
X40126829Y88407148D01*
X40136595Y88390253D01*
X40137982Y88366733D01*
X40120255Y88308051D01*
X40080246Y88254063D01*
X39986322Y88195973D01*
X39881601Y88186600D01*
X39778873Y88220769D01*
X39683562Y88270123D01*
X39617824Y88213578D01*
X39576335Y88167953D01*
X39573821Y88129170D01*
X39613400Y88089702D01*
X39686460Y88047949D01*
X39803458Y88010151D01*
X39936584Y88000326D01*
X40061896Y88019323D01*
X40100297Y88033297D01*
X40208211Y88107353D01*
X40284561Y88219196D01*
X40328257Y88366664D01*
X40338971Y88506965D01*
X40321936Y88653134D01*
X40137315Y88653134D01*
X40127778Y88611601D01*
X40082454Y88587628D01*
X39995942Y88577253D01*
X39925220Y88575905D01*
X39829021Y88576838D01*
X39772537Y88581758D01*
X39745243Y88593850D01*
X39736611Y88616296D01*
X39736004Y88633123D01*
X39756949Y88715824D01*
X39811251Y88776026D01*
X39886105Y88810934D01*
X39968710Y88817754D01*
X40046262Y88793689D01*
X40105960Y88735944D01*
X40116470Y88716191D01*
X40137315Y88653134D01*
X40321936Y88653134D01*
X40320344Y88666794D01*
X40268310Y88800667D01*
X40188644Y88904450D01*
X40087119Y88974004D01*
X39969507Y89005195D01*
X39841584Y88993887D01*
G37*
X39841584Y88993887D02*
X39726057Y88946065D01*
X39624682Y88863310D01*
X39561884Y88751803D01*
X39535947Y88608162D01*
X39535015Y88570016D01*
X39535015Y88425163D01*
X39836498Y88425163D01*
X39963518Y88424848D01*
X40048664Y88422823D01*
X40100310Y88417464D01*
X40126829Y88407148D01*
X40136595Y88390253D01*
X40137982Y88366733D01*
X40120255Y88308051D01*
X40080246Y88254063D01*
X39986322Y88195973D01*
X39881601Y88186600D01*
X39778873Y88220769D01*
X39683562Y88270123D01*
X39617824Y88213578D01*
X39576335Y88167953D01*
X39573821Y88129170D01*
X39613400Y88089702D01*
X39686460Y88047949D01*
X39803458Y88010151D01*
X39936584Y88000326D01*
X40061896Y88019323D01*
X40100297Y88033297D01*
X40208211Y88107353D01*
X40284561Y88219196D01*
X40328257Y88366664D01*
X40338971Y88506965D01*
X40321936Y88653134D01*
X40137315Y88653134D01*
X40127778Y88611601D01*
X40082454Y88587628D01*
X39995942Y88577253D01*
X39925220Y88575905D01*
X39829021Y88576838D01*
X39772537Y88581758D01*
X39745243Y88593850D01*
X39736611Y88616296D01*
X39736004Y88633123D01*
X39756949Y88715824D01*
X39811251Y88776026D01*
X39886105Y88810934D01*
X39968710Y88817754D01*
X40046262Y88793689D01*
X40105960Y88735944D01*
X40116470Y88716191D01*
X40137315Y88653134D01*
X40321936Y88653134D01*
X40320344Y88666794D01*
X40268310Y88800667D01*
X40188644Y88904450D01*
X40087119Y88974004D01*
X39969507Y89005195D01*
X39841584Y88993887D01*
G36*
X41736334Y88988219D02*
G01*
X41622593Y88930672D01*
X41528824Y88833552D01*
X41510672Y88805003D01*
X41479070Y88717693D01*
X41461471Y88599630D01*
X41457875Y88468321D01*
X41468283Y88341269D01*
X41492694Y88235979D01*
X41510672Y88196064D01*
X41595653Y88094760D01*
X41706022Y88026957D01*
X41830039Y87995610D01*
X41955962Y88003676D01*
X42072049Y88054108D01*
X42072758Y88054589D01*
X42153750Y88116146D01*
X42207942Y88178096D01*
X42240454Y88252572D01*
X42256403Y88351705D01*
X42260910Y88487628D01*
X42260930Y88500534D01*
X42059941Y88500534D01*
X42058549Y88396611D01*
X42052378Y88330115D01*
X42038436Y88288257D01*
X42013729Y88258250D01*
X42000629Y88247077D01*
X41916743Y88207667D01*
X41819009Y88201892D01*
X41746886Y88223643D01*
X41696015Y88276789D01*
X41663269Y88362627D01*
X41648646Y88466985D01*
X41652147Y88575692D01*
X41673772Y88674576D01*
X41713521Y88749463D01*
X41746886Y88777424D01*
X41837092Y88800756D01*
X41934177Y88788539D01*
X42000629Y88753990D01*
X42030308Y88725136D01*
X42048064Y88689386D01*
X42056890Y88633949D01*
X42059778Y88546039D01*
X42059941Y88500534D01*
X42260930Y88500534D01*
X42259444Y88620200D01*
X42253638Y88701947D01*
X42241485Y88758047D01*
X42220960Y88800774D01*
X42208372Y88819018D01*
X42106067Y88921594D01*
X41987204Y88983864D01*
X41860915Y89006011D01*
X41736334Y88988219D01*
G37*
X41736334Y88988219D02*
X41622593Y88930672D01*
X41528824Y88833552D01*
X41510672Y88805003D01*
X41479070Y88717693D01*
X41461471Y88599630D01*
X41457875Y88468321D01*
X41468283Y88341269D01*
X41492694Y88235979D01*
X41510672Y88196064D01*
X41595653Y88094760D01*
X41706022Y88026957D01*
X41830039Y87995610D01*
X41955962Y88003676D01*
X42072049Y88054108D01*
X42072758Y88054589D01*
X42153750Y88116146D01*
X42207942Y88178096D01*
X42240454Y88252572D01*
X42256403Y88351705D01*
X42260910Y88487628D01*
X42260930Y88500534D01*
X42059941Y88500534D01*
X42058549Y88396611D01*
X42052378Y88330115D01*
X42038436Y88288257D01*
X42013729Y88258250D01*
X42000629Y88247077D01*
X41916743Y88207667D01*
X41819009Y88201892D01*
X41746886Y88223643D01*
X41696015Y88276789D01*
X41663269Y88362627D01*
X41648646Y88466985D01*
X41652147Y88575692D01*
X41673772Y88674576D01*
X41713521Y88749463D01*
X41746886Y88777424D01*
X41837092Y88800756D01*
X41934177Y88788539D01*
X42000629Y88753990D01*
X42030308Y88725136D01*
X42048064Y88689386D01*
X42056890Y88633949D01*
X42059778Y88546039D01*
X42059941Y88500534D01*
X42260930Y88500534D01*
X42259444Y88620200D01*
X42253638Y88701947D01*
X42241485Y88758047D01*
X42220960Y88800774D01*
X42208372Y88819018D01*
X42106067Y88921594D01*
X41987204Y88983864D01*
X41860915Y89006011D01*
X41736334Y88988219D01*
G36*
X35123111Y87416155D02*
G01*
X35094103Y87399339D01*
X35088130Y87368146D01*
X35088130Y87316076D01*
X35021933Y87368146D01*
X34952196Y87401112D01*
X34858793Y87418716D01*
X34761861Y87419826D01*
X34681535Y87403307D01*
X34654828Y87388813D01*
X34632550Y87365109D01*
X34636720Y87337056D01*
X34670998Y87290325D01*
X34683939Y87274944D01*
X34731705Y87224054D01*
X34768499Y87206515D01*
X34812902Y87215037D01*
X34825179Y87219550D01*
X34915924Y87230731D01*
X34998453Y87200295D01*
X35056870Y87134418D01*
X35059748Y87128415D01*
X35071399Y87077465D01*
X35080563Y86987368D01*
X35086404Y86869200D01*
X35088130Y86753259D01*
X35088130Y86440395D01*
X35289120Y86440395D01*
X35289120Y87420217D01*
X35188625Y87420217D01*
X35123111Y87416155D01*
G37*
X35123111Y87416155D02*
X35094103Y87399339D01*
X35088130Y87368146D01*
X35088130Y87316076D01*
X35021933Y87368146D01*
X34952196Y87401112D01*
X34858793Y87418716D01*
X34761861Y87419826D01*
X34681535Y87403307D01*
X34654828Y87388813D01*
X34632550Y87365109D01*
X34636720Y87337056D01*
X34670998Y87290325D01*
X34683939Y87274944D01*
X34731705Y87224054D01*
X34768499Y87206515D01*
X34812902Y87215037D01*
X34825179Y87219550D01*
X34915924Y87230731D01*
X34998453Y87200295D01*
X35056870Y87134418D01*
X35059748Y87128415D01*
X35071399Y87077465D01*
X35080563Y86987368D01*
X35086404Y86869200D01*
X35088130Y86753259D01*
X35088130Y86440395D01*
X35289120Y86440395D01*
X35289120Y87420217D01*
X35188625Y87420217D01*
X35123111Y87416155D01*
G36*
X37561543Y87416172D02*
G01*
X37538277Y87401500D01*
X37517481Y87369850D01*
X37495956Y87314810D01*
X37470501Y87229972D01*
X37437918Y87108925D01*
X37399244Y86961409D01*
X37373007Y86865982D01*
X37350796Y86793587D01*
X37335875Y86754472D01*
X37332129Y86750633D01*
X37321173Y86776611D01*
X37297663Y86841302D01*
X37264774Y86935697D01*
X37225685Y87050788D01*
X37214620Y87083824D01*
X37170732Y87213757D01*
X37138158Y87303561D01*
X37112687Y87360894D01*
X37090109Y87393416D01*
X37066212Y87408784D01*
X37036787Y87414659D01*
X37032497Y87415109D01*
X37003085Y87416805D01*
X36980069Y87410292D01*
X36959472Y87388428D01*
X36937317Y87344069D01*
X36909629Y87270073D01*
X36872430Y87159297D01*
X36847153Y87082171D01*
X36806035Y86962016D01*
X36769471Y86865496D01*
X36740463Y86799809D01*
X36722012Y86772151D01*
X36718322Y86773234D01*
X36705486Y86808518D01*
X36683115Y86882003D01*
X36654262Y86983246D01*
X36621981Y87101804D01*
X36619148Y87112453D01*
X36537434Y87420217D01*
X36325347Y87420217D01*
X36480532Y86936587D01*
X36635718Y86452957D01*
X36818624Y86437543D01*
X36894047Y86683925D01*
X36927886Y86795851D01*
X36957600Y86896654D01*
X36979055Y86972181D01*
X36986282Y86999634D01*
X37004678Y87054112D01*
X37022163Y87080746D01*
X37035851Y87062517D01*
X37060149Y87004343D01*
X37091940Y86914617D01*
X37128110Y86801732D01*
X37138717Y86766719D01*
X37236202Y86440907D01*
X37327902Y86440651D01*
X37419601Y86440395D01*
X37557814Y86873778D01*
X37603356Y87016798D01*
X37644495Y87146399D01*
X37678417Y87253686D01*
X37702310Y87329765D01*
X37712763Y87363689D01*
X37718783Y87399740D01*
X37700353Y87415967D01*
X37645858Y87420144D01*
X37628284Y87420217D01*
X37590478Y87420274D01*
X37561543Y87416172D01*
G37*
X37561543Y87416172D02*
X37538277Y87401500D01*
X37517481Y87369850D01*
X37495956Y87314810D01*
X37470501Y87229972D01*
X37437918Y87108925D01*
X37399244Y86961409D01*
X37373007Y86865982D01*
X37350796Y86793587D01*
X37335875Y86754472D01*
X37332129Y86750633D01*
X37321173Y86776611D01*
X37297663Y86841302D01*
X37264774Y86935697D01*
X37225685Y87050788D01*
X37214620Y87083824D01*
X37170732Y87213757D01*
X37138158Y87303561D01*
X37112687Y87360894D01*
X37090109Y87393416D01*
X37066212Y87408784D01*
X37036787Y87414659D01*
X37032497Y87415109D01*
X37003085Y87416805D01*
X36980069Y87410292D01*
X36959472Y87388428D01*
X36937317Y87344069D01*
X36909629Y87270073D01*
X36872430Y87159297D01*
X36847153Y87082171D01*
X36806035Y86962016D01*
X36769471Y86865496D01*
X36740463Y86799809D01*
X36722012Y86772151D01*
X36718322Y86773234D01*
X36705486Y86808518D01*
X36683115Y86882003D01*
X36654262Y86983246D01*
X36621981Y87101804D01*
X36619148Y87112453D01*
X36537434Y87420217D01*
X36325347Y87420217D01*
X36480532Y86936587D01*
X36635718Y86452957D01*
X36818624Y86437543D01*
X36894047Y86683925D01*
X36927886Y86795851D01*
X36957600Y86896654D01*
X36979055Y86972181D01*
X36986282Y86999634D01*
X37004678Y87054112D01*
X37022163Y87080746D01*
X37035851Y87062517D01*
X37060149Y87004343D01*
X37091940Y86914617D01*
X37128110Y86801732D01*
X37138717Y86766719D01*
X37236202Y86440907D01*
X37327902Y86440651D01*
X37419601Y86440395D01*
X37557814Y86873778D01*
X37603356Y87016798D01*
X37644495Y87146399D01*
X37678417Y87253686D01*
X37702310Y87329765D01*
X37712763Y87363689D01*
X37718783Y87399740D01*
X37700353Y87415967D01*
X37645858Y87420144D01*
X37628284Y87420217D01*
X37590478Y87420274D01*
X37561543Y87416172D01*
G36*
X39138954Y87414176D02*
G01*
X39110038Y87393894D01*
X39107913Y87381886D01*
X39102873Y87358413D01*
X39078938Y87360303D01*
X39033790Y87381886D01*
X38951256Y87408812D01*
X38853635Y87418936D01*
X38761602Y87411923D01*
X38695834Y87387438D01*
X38695731Y87387363D01*
X38669759Y87363487D01*
X38670577Y87337767D01*
X38701146Y87294869D01*
X38717349Y87275421D01*
X38764819Y87225695D01*
X38802730Y87210167D01*
X38848729Y87220982D01*
X38944621Y87232297D01*
X39037497Y87195261D01*
X39063946Y87174677D01*
X39081818Y87152815D01*
X39094170Y87118357D01*
X39101971Y87062800D01*
X39106188Y86977641D01*
X39107788Y86854374D01*
X39107913Y86788232D01*
X39107913Y86440395D01*
X39308902Y86440395D01*
X39308902Y87420217D01*
X39208407Y87420217D01*
X39138954Y87414176D01*
G37*
X39138954Y87414176D02*
X39110038Y87393894D01*
X39107913Y87381886D01*
X39102873Y87358413D01*
X39078938Y87360303D01*
X39033790Y87381886D01*
X38951256Y87408812D01*
X38853635Y87418936D01*
X38761602Y87411923D01*
X38695834Y87387438D01*
X38695731Y87387363D01*
X38669759Y87363487D01*
X38670577Y87337767D01*
X38701146Y87294869D01*
X38717349Y87275421D01*
X38764819Y87225695D01*
X38802730Y87210167D01*
X38848729Y87220982D01*
X38944621Y87232297D01*
X39037497Y87195261D01*
X39063946Y87174677D01*
X39081818Y87152815D01*
X39094170Y87118357D01*
X39101971Y87062800D01*
X39106188Y86977641D01*
X39107788Y86854374D01*
X39107913Y86788232D01*
X39107913Y86440395D01*
X39308902Y86440395D01*
X39308902Y87420217D01*
X39208407Y87420217D01*
X39138954Y87414176D01*
G36*
X41112433Y88995653D02*
G01*
X41080749Y88968789D01*
X41074574Y88951755D01*
X41061157Y88916849D01*
X41038889Y88921870D01*
X41015136Y88942164D01*
X40941933Y88980446D01*
X40843685Y88997140D01*
X40741401Y88990745D01*
X40668631Y88966899D01*
X40594458Y88918044D01*
X40542986Y88855124D01*
X40510719Y88769125D01*
X40494164Y88651033D01*
X40489807Y88505567D01*
X40493865Y88352751D01*
X40508369Y88240106D01*
X40536619Y88158065D01*
X40581918Y88097061D01*
X40647566Y88047529D01*
X40647956Y88047291D01*
X40763400Y88004652D01*
X40885286Y88007826D01*
X40985905Y88048033D01*
X41067557Y88097817D01*
X41067557Y87343556D01*
X40993434Y87381886D01*
X40920682Y87406096D01*
X40830397Y87419360D01*
X40804637Y87420217D01*
X40723849Y87413481D01*
X40660666Y87386439D01*
X40596120Y87334277D01*
X40502275Y87248337D01*
X40486255Y86440395D01*
X40690702Y86440395D01*
X40690702Y86776781D01*
X40691552Y86916981D01*
X40694842Y87016260D01*
X40701681Y87083927D01*
X40713178Y87129291D01*
X40730443Y87161661D01*
X40737713Y87171222D01*
X40803385Y87216379D01*
X40888633Y87229714D01*
X40973489Y87210406D01*
X41016060Y87182673D01*
X41036718Y87160114D01*
X41050997Y87130369D01*
X41060059Y87084547D01*
X41065064Y87013754D01*
X41067173Y86909097D01*
X41067557Y86788232D01*
X41067557Y86440395D01*
X41268546Y86440395D01*
X41268546Y88500534D01*
X41067557Y88500534D01*
X41061050Y88369193D01*
X41038778Y88280131D01*
X40996614Y88226745D01*
X40930431Y88202432D01*
X40879129Y88199050D01*
X40789658Y88217149D01*
X40740949Y88249297D01*
X40714805Y88283851D01*
X40699443Y88331335D01*
X40692279Y88404681D01*
X40690702Y88500534D01*
X40697209Y88631874D01*
X40719481Y88720936D01*
X40761645Y88774322D01*
X40827828Y88798635D01*
X40879129Y88802017D01*
X40961217Y88791606D01*
X41016881Y88755971D01*
X41050247Y88688508D01*
X41065443Y88582617D01*
X41067557Y88500534D01*
X41268546Y88500534D01*
X41268546Y89003006D01*
X41178261Y89003006D01*
X41112433Y88995653D01*
G37*
X41112433Y88995653D02*
X41080749Y88968789D01*
X41074574Y88951755D01*
X41061157Y88916849D01*
X41038889Y88921870D01*
X41015136Y88942164D01*
X40941933Y88980446D01*
X40843685Y88997140D01*
X40741401Y88990745D01*
X40668631Y88966899D01*
X40594458Y88918044D01*
X40542986Y88855124D01*
X40510719Y88769125D01*
X40494164Y88651033D01*
X40489807Y88505567D01*
X40493865Y88352751D01*
X40508369Y88240106D01*
X40536619Y88158065D01*
X40581918Y88097061D01*
X40647566Y88047529D01*
X40647956Y88047291D01*
X40763400Y88004652D01*
X40885286Y88007826D01*
X40985905Y88048033D01*
X41067557Y88097817D01*
X41067557Y87343556D01*
X40993434Y87381886D01*
X40920682Y87406096D01*
X40830397Y87419360D01*
X40804637Y87420217D01*
X40723849Y87413481D01*
X40660666Y87386439D01*
X40596120Y87334277D01*
X40502275Y87248337D01*
X40486255Y86440395D01*
X40690702Y86440395D01*
X40690702Y86776781D01*
X40691552Y86916981D01*
X40694842Y87016260D01*
X40701681Y87083927D01*
X40713178Y87129291D01*
X40730443Y87161661D01*
X40737713Y87171222D01*
X40803385Y87216379D01*
X40888633Y87229714D01*
X40973489Y87210406D01*
X41016060Y87182673D01*
X41036718Y87160114D01*
X41050997Y87130369D01*
X41060059Y87084547D01*
X41065064Y87013754D01*
X41067173Y86909097D01*
X41067557Y86788232D01*
X41067557Y86440395D01*
X41268546Y86440395D01*
X41268546Y88500534D01*
X41067557Y88500534D01*
X41061050Y88369193D01*
X41038778Y88280131D01*
X40996614Y88226745D01*
X40930431Y88202432D01*
X40879129Y88199050D01*
X40789658Y88217149D01*
X40740949Y88249297D01*
X40714805Y88283851D01*
X40699443Y88331335D01*
X40692279Y88404681D01*
X40690702Y88500534D01*
X40697209Y88631874D01*
X40719481Y88720936D01*
X40761645Y88774322D01*
X40827828Y88798635D01*
X40879129Y88802017D01*
X40961217Y88791606D01*
X41016881Y88755971D01*
X41050247Y88688508D01*
X41065443Y88582617D01*
X41067557Y88500534D01*
X41268546Y88500534D01*
X41268546Y89003006D01*
X41178261Y89003006D01*
X41112433Y88995653D01*
G36*
X34095747Y87414144D02*
G01*
X33973035Y87363496D01*
X33877766Y87273859D01*
X33813443Y87150417D01*
X33783564Y86998355D01*
X33781841Y86949149D01*
X33781701Y86842373D01*
X34095747Y86842373D01*
X34241168Y86840304D01*
X34343162Y86834237D01*
X34399204Y86824385D01*
X34409792Y86816002D01*
X34395004Y86762092D01*
X34359815Y86698454D01*
X34317987Y86647284D01*
X34295610Y86631867D01*
X34214837Y86616954D01*
X34120537Y86621063D01*
X34038224Y86642058D01*
X34013202Y86655513D01*
X33972111Y86678731D01*
X33936359Y86675337D01*
X33884291Y86642871D01*
X33880952Y86640499D01*
X33832904Y86601199D01*
X33822424Y86572354D01*
X33837188Y86547018D01*
X33918916Y86482933D01*
X34031663Y86440234D01*
X34159495Y86422421D01*
X34286477Y86432992D01*
X34318862Y86441260D01*
X34436366Y86500731D01*
X34522340Y86598490D01*
X34575886Y86732992D01*
X34596105Y86902695D01*
X34596256Y86917744D01*
X34583663Y87049020D01*
X34403195Y87049020D01*
X34377484Y87028938D01*
X34315668Y87020241D01*
X34211066Y87018250D01*
X34196241Y87018239D01*
X34085688Y87021210D01*
X34012640Y87029633D01*
X33983040Y87042775D01*
X33982690Y87044610D01*
X33997479Y87098520D01*
X34032668Y87162158D01*
X34074496Y87213329D01*
X34096872Y87228745D01*
X34201498Y87247635D01*
X34293343Y87223882D01*
X34362129Y87160712D01*
X34373036Y87142060D01*
X34399485Y87085167D01*
X34403195Y87049020D01*
X34583663Y87049020D01*
X34579601Y87091355D01*
X34530488Y87231858D01*
X34451734Y87336456D01*
X34346158Y87402355D01*
X34216578Y87426759D01*
X34095747Y87414144D01*
G37*
X34095747Y87414144D02*
X33973035Y87363496D01*
X33877766Y87273859D01*
X33813443Y87150417D01*
X33783564Y86998355D01*
X33781841Y86949149D01*
X33781701Y86842373D01*
X34095747Y86842373D01*
X34241168Y86840304D01*
X34343162Y86834237D01*
X34399204Y86824385D01*
X34409792Y86816002D01*
X34395004Y86762092D01*
X34359815Y86698454D01*
X34317987Y86647284D01*
X34295610Y86631867D01*
X34214837Y86616954D01*
X34120537Y86621063D01*
X34038224Y86642058D01*
X34013202Y86655513D01*
X33972111Y86678731D01*
X33936359Y86675337D01*
X33884291Y86642871D01*
X33880952Y86640499D01*
X33832904Y86601199D01*
X33822424Y86572354D01*
X33837188Y86547018D01*
X33918916Y86482933D01*
X34031663Y86440234D01*
X34159495Y86422421D01*
X34286477Y86432992D01*
X34318862Y86441260D01*
X34436366Y86500731D01*
X34522340Y86598490D01*
X34575886Y86732992D01*
X34596105Y86902695D01*
X34596256Y86917744D01*
X34583663Y87049020D01*
X34403195Y87049020D01*
X34377484Y87028938D01*
X34315668Y87020241D01*
X34211066Y87018250D01*
X34196241Y87018239D01*
X34085688Y87021210D01*
X34012640Y87029633D01*
X33983040Y87042775D01*
X33982690Y87044610D01*
X33997479Y87098520D01*
X34032668Y87162158D01*
X34074496Y87213329D01*
X34096872Y87228745D01*
X34201498Y87247635D01*
X34293343Y87223882D01*
X34362129Y87160712D01*
X34373036Y87142060D01*
X34399485Y87085167D01*
X34403195Y87049020D01*
X34583663Y87049020D01*
X34579601Y87091355D01*
X34530488Y87231858D01*
X34451734Y87336456D01*
X34346158Y87402355D01*
X34216578Y87426759D01*
X34095747Y87414144D01*
G36*
X35731453Y87405196D02*
G01*
X35666252Y87382675D01*
X35612875Y87351755D01*
X35573755Y87317041D01*
X35546699Y87270606D01*
X35529513Y87204520D01*
X35520005Y87110857D01*
X35515980Y86981686D01*
X35515232Y86836783D01*
X35515232Y86440395D01*
X35615727Y86440395D01*
X35678661Y86445638D01*
X35713662Y86458734D01*
X35716221Y86464029D01*
X35735099Y86470374D01*
X35780976Y86453837D01*
X35785311Y86451622D01*
X35881402Y86424009D01*
X36005897Y86421869D01*
X36086582Y86432974D01*
X36139866Y86457311D01*
X36202534Y86504357D01*
X36218481Y86519418D01*
X36267622Y86578445D01*
X36289578Y86640285D01*
X36294065Y86715300D01*
X36288342Y86756463D01*
X36115224Y86756463D01*
X36110883Y86692629D01*
X36077026Y86645118D01*
X36074233Y86643397D01*
X36017950Y86626126D01*
X35937614Y86618327D01*
X35852344Y86619825D01*
X35781259Y86630443D01*
X35746370Y86646409D01*
X35725301Y86691223D01*
X35716229Y86757606D01*
X35716221Y86759465D01*
X35716221Y86842373D01*
X35887062Y86842373D01*
X35984646Y86837966D01*
X36057035Y86826112D01*
X36088051Y86812225D01*
X36115224Y86756463D01*
X36288342Y86756463D01*
X36277978Y86830990D01*
X36227804Y86917106D01*
X36140677Y86975650D01*
X36013732Y87008624D01*
X35860682Y87018099D01*
X35716221Y87018239D01*
X35716221Y87105288D01*
X35729417Y87181073D01*
X35764817Y87218344D01*
X35842050Y87239832D01*
X35939455Y87241833D01*
X36030959Y87224506D01*
X36051100Y87216612D01*
X36107189Y87202599D01*
X36162617Y87222500D01*
X36177900Y87232063D01*
X36229341Y87273238D01*
X36236985Y87307821D01*
X36199691Y87345818D01*
X36162166Y87370245D01*
X36077309Y87401986D01*
X35964081Y87418721D01*
X35842217Y87419956D01*
X35731453Y87405196D01*
G37*
X35731453Y87405196D02*
X35666252Y87382675D01*
X35612875Y87351755D01*
X35573755Y87317041D01*
X35546699Y87270606D01*
X35529513Y87204520D01*
X35520005Y87110857D01*
X35515980Y86981686D01*
X35515232Y86836783D01*
X35515232Y86440395D01*
X35615727Y86440395D01*
X35678661Y86445638D01*
X35713662Y86458734D01*
X35716221Y86464029D01*
X35735099Y86470374D01*
X35780976Y86453837D01*
X35785311Y86451622D01*
X35881402Y86424009D01*
X36005897Y86421869D01*
X36086582Y86432974D01*
X36139866Y86457311D01*
X36202534Y86504357D01*
X36218481Y86519418D01*
X36267622Y86578445D01*
X36289578Y86640285D01*
X36294065Y86715300D01*
X36288342Y86756463D01*
X36115224Y86756463D01*
X36110883Y86692629D01*
X36077026Y86645118D01*
X36074233Y86643397D01*
X36017950Y86626126D01*
X35937614Y86618327D01*
X35852344Y86619825D01*
X35781259Y86630443D01*
X35746370Y86646409D01*
X35725301Y86691223D01*
X35716229Y86757606D01*
X35716221Y86759465D01*
X35716221Y86842373D01*
X35887062Y86842373D01*
X35984646Y86837966D01*
X36057035Y86826112D01*
X36088051Y86812225D01*
X36115224Y86756463D01*
X36288342Y86756463D01*
X36277978Y86830990D01*
X36227804Y86917106D01*
X36140677Y86975650D01*
X36013732Y87008624D01*
X35860682Y87018099D01*
X35716221Y87018239D01*
X35716221Y87105288D01*
X35729417Y87181073D01*
X35764817Y87218344D01*
X35842050Y87239832D01*
X35939455Y87241833D01*
X36030959Y87224506D01*
X36051100Y87216612D01*
X36107189Y87202599D01*
X36162617Y87222500D01*
X36177900Y87232063D01*
X36229341Y87273238D01*
X36236985Y87307821D01*
X36199691Y87345818D01*
X36162166Y87370245D01*
X36077309Y87401986D01*
X35964081Y87418721D01*
X35842217Y87419956D01*
X35731453Y87405196D01*
G36*
X37851731Y86440395D02*
G01*
X37952225Y86440395D01*
X38024447Y86447595D01*
X38052163Y86470067D01*
X38052720Y86475372D01*
X38061983Y86493239D01*
X38096245Y86486168D01*
X38145965Y86462810D01*
X38259476Y86422353D01*
X38367343Y86425419D01*
X38447923Y86452519D01*
X38521289Y86495267D01*
X38573142Y86554819D01*
X38606563Y86639194D01*
X38624636Y86756410D01*
X38630443Y86914486D01*
X38630452Y86918886D01*
X38429575Y86918886D01*
X38427501Y86811940D01*
X38419570Y86742253D01*
X38403218Y86696943D01*
X38379327Y86666508D01*
X38303425Y86622395D01*
X38216327Y86617863D01*
X38136183Y86651855D01*
X38104791Y86682458D01*
X38075672Y86730555D01*
X38059547Y86791743D01*
X38053222Y86881265D01*
X38052720Y86930911D01*
X38060095Y87058834D01*
X38085154Y87146253D01*
X38132296Y87201121D01*
X38205920Y87231393D01*
X38220639Y87234522D01*
X38286262Y87237253D01*
X38340087Y87208662D01*
X38365100Y87185492D01*
X38397650Y87148231D01*
X38416967Y87107716D01*
X38426433Y87049961D01*
X38429429Y86960982D01*
X38429575Y86918886D01*
X38630452Y86918886D01*
X38630470Y86927341D01*
X38629078Y87055642D01*
X38623682Y87145551D01*
X38612608Y87208868D01*
X38594181Y87257395D01*
X38580094Y87282397D01*
X38503924Y87362416D01*
X38401818Y87412129D01*
X38289145Y87427945D01*
X38181273Y87406275D01*
X38140894Y87385000D01*
X38092634Y87356090D01*
X38066166Y87344846D01*
X38060388Y87368149D01*
X38055854Y87430784D01*
X38053178Y87521839D01*
X38052720Y87583521D01*
X38052720Y87822195D01*
X37851731Y87822195D01*
X37851731Y86440395D01*
G37*
X37851731Y86440395D02*
X37952225Y86440395D01*
X38024447Y86447595D01*
X38052163Y86470067D01*
X38052720Y86475372D01*
X38061983Y86493239D01*
X38096245Y86486168D01*
X38145965Y86462810D01*
X38259476Y86422353D01*
X38367343Y86425419D01*
X38447923Y86452519D01*
X38521289Y86495267D01*
X38573142Y86554819D01*
X38606563Y86639194D01*
X38624636Y86756410D01*
X38630443Y86914486D01*
X38630452Y86918886D01*
X38429575Y86918886D01*
X38427501Y86811940D01*
X38419570Y86742253D01*
X38403218Y86696943D01*
X38379327Y86666508D01*
X38303425Y86622395D01*
X38216327Y86617863D01*
X38136183Y86651855D01*
X38104791Y86682458D01*
X38075672Y86730555D01*
X38059547Y86791743D01*
X38053222Y86881265D01*
X38052720Y86930911D01*
X38060095Y87058834D01*
X38085154Y87146253D01*
X38132296Y87201121D01*
X38205920Y87231393D01*
X38220639Y87234522D01*
X38286262Y87237253D01*
X38340087Y87208662D01*
X38365100Y87185492D01*
X38397650Y87148231D01*
X38416967Y87107716D01*
X38426433Y87049961D01*
X38429429Y86960982D01*
X38429575Y86918886D01*
X38630452Y86918886D01*
X38630470Y86927341D01*
X38629078Y87055642D01*
X38623682Y87145551D01*
X38612608Y87208868D01*
X38594181Y87257395D01*
X38580094Y87282397D01*
X38503924Y87362416D01*
X38401818Y87412129D01*
X38289145Y87427945D01*
X38181273Y87406275D01*
X38140894Y87385000D01*
X38092634Y87356090D01*
X38066166Y87344846D01*
X38060388Y87368149D01*
X38055854Y87430784D01*
X38053178Y87521839D01*
X38052720Y87583521D01*
X38052720Y87822195D01*
X37851731Y87822195D01*
X37851731Y86440395D01*
G36*
X39858367Y87422360D02*
G01*
X39747993Y87400885D01*
X39708500Y87385679D01*
X39652518Y87355775D01*
X39611127Y87321664D01*
X39581917Y87275527D01*
X39562479Y87209545D01*
X39550405Y87115898D01*
X39543284Y86986767D01*
X39539171Y86836092D01*
X39530600Y86440395D01*
X39633302Y86440395D01*
X39701986Y86445482D01*
X39732022Y86463669D01*
X39736004Y86481974D01*
X39740172Y86508243D01*
X39760610Y86500247D01*
X39785997Y86478311D01*
X39853507Y86443577D01*
X39948683Y86425351D01*
X40051198Y86425260D01*
X40140724Y86444933D01*
X40150544Y86449117D01*
X40248247Y86517085D01*
X40311946Y86609199D01*
X40337482Y86714109D01*
X40334569Y86732573D01*
X40149133Y86732573D01*
X40135431Y86689405D01*
X40123663Y86671624D01*
X40092744Y86639403D01*
X40047841Y86622568D01*
X39973712Y86616611D01*
X39936452Y86616261D01*
X39848011Y86619407D01*
X39796147Y86631338D01*
X39767442Y86655790D01*
X39762011Y86664856D01*
X39741490Y86728605D01*
X39736004Y86779013D01*
X39737941Y86812912D01*
X39750982Y86831955D01*
X39785976Y86839664D01*
X39853769Y86839560D01*
X39915195Y86837193D01*
X40014242Y86830629D01*
X40075739Y86818664D01*
X40112346Y86797806D01*
X40128414Y86778399D01*
X40149133Y86732573D01*
X40334569Y86732573D01*
X40320698Y86820466D01*
X40301318Y86860677D01*
X40254021Y86925301D01*
X40195460Y86968436D01*
X40114180Y86994968D01*
X39998724Y87009783D01*
X39943274Y87013369D01*
X39736004Y87024540D01*
X39736004Y87094966D01*
X39749674Y87161819D01*
X39775484Y87204872D01*
X39830424Y87231648D01*
X39914109Y87243343D01*
X40007159Y87239337D01*
X40090197Y87219009D01*
X40099012Y87215242D01*
X40154136Y87199603D01*
X40198703Y87219271D01*
X40213251Y87231697D01*
X40255607Y87282497D01*
X40253229Y87325000D01*
X40204370Y87368505D01*
X40185318Y87380255D01*
X40096961Y87411819D01*
X39981333Y87425929D01*
X39858367Y87422360D01*
G37*
X39858367Y87422360D02*
X39747993Y87400885D01*
X39708500Y87385679D01*
X39652518Y87355775D01*
X39611127Y87321664D01*
X39581917Y87275527D01*
X39562479Y87209545D01*
X39550405Y87115898D01*
X39543284Y86986767D01*
X39539171Y86836092D01*
X39530600Y86440395D01*
X39633302Y86440395D01*
X39701986Y86445482D01*
X39732022Y86463669D01*
X39736004Y86481974D01*
X39740172Y86508243D01*
X39760610Y86500247D01*
X39785997Y86478311D01*
X39853507Y86443577D01*
X39948683Y86425351D01*
X40051198Y86425260D01*
X40140724Y86444933D01*
X40150544Y86449117D01*
X40248247Y86517085D01*
X40311946Y86609199D01*
X40337482Y86714109D01*
X40334569Y86732573D01*
X40149133Y86732573D01*
X40135431Y86689405D01*
X40123663Y86671624D01*
X40092744Y86639403D01*
X40047841Y86622568D01*
X39973712Y86616611D01*
X39936452Y86616261D01*
X39848011Y86619407D01*
X39796147Y86631338D01*
X39767442Y86655790D01*
X39762011Y86664856D01*
X39741490Y86728605D01*
X39736004Y86779013D01*
X39737941Y86812912D01*
X39750982Y86831955D01*
X39785976Y86839664D01*
X39853769Y86839560D01*
X39915195Y86837193D01*
X40014242Y86830629D01*
X40075739Y86818664D01*
X40112346Y86797806D01*
X40128414Y86778399D01*
X40149133Y86732573D01*
X40334569Y86732573D01*
X40320698Y86820466D01*
X40301318Y86860677D01*
X40254021Y86925301D01*
X40195460Y86968436D01*
X40114180Y86994968D01*
X39998724Y87009783D01*
X39943274Y87013369D01*
X39736004Y87024540D01*
X39736004Y87094966D01*
X39749674Y87161819D01*
X39775484Y87204872D01*
X39830424Y87231648D01*
X39914109Y87243343D01*
X40007159Y87239337D01*
X40090197Y87219009D01*
X40099012Y87215242D01*
X40154136Y87199603D01*
X40198703Y87219271D01*
X40213251Y87231697D01*
X40255607Y87282497D01*
X40253229Y87325000D01*
X40204370Y87368505D01*
X40185318Y87380255D01*
X40096961Y87411819D01*
X39981333Y87425929D01*
X39858367Y87422360D01*
G36*
X35433773Y74817354D02*
G01*
X33985214Y74542110D01*
X32558847Y74122827D01*
X31349385Y73643443D01*
X30060173Y72987115D01*
X28839220Y72202849D01*
X27697380Y71301131D01*
X26645508Y70292448D01*
X25694461Y69187283D01*
X24855093Y67996123D01*
X24138261Y66729454D01*
X24089383Y66630973D01*
X23499062Y65266892D01*
X23051972Y63877724D01*
X22745428Y62472506D01*
X22576745Y61060278D01*
X22543238Y59650076D01*
X22642222Y58250938D01*
X22871012Y56871902D01*
X23226924Y55522006D01*
X23707273Y54210288D01*
X24309374Y52945785D01*
X25030542Y51737535D01*
X25868092Y50594576D01*
X26819340Y49525946D01*
X27881601Y48540682D01*
X29052189Y47647822D01*
X29888323Y47110246D01*
X31130681Y46451746D01*
X32449302Y45913248D01*
X33825365Y45498934D01*
X35240047Y45212985D01*
X36674526Y45059581D01*
X38109980Y45042905D01*
X38944795Y45098414D01*
X40399638Y45312202D01*
X41811428Y45665196D01*
X43171886Y46150841D01*
X44472732Y46762583D01*
X45705687Y47493864D01*
X46862472Y48338131D01*
X47934808Y49288827D01*
X48914414Y50339398D01*
X49793013Y51483287D01*
X49871136Y51608259D01*
X45997079Y51608259D01*
X45700899Y51301441D01*
X45241489Y50879303D01*
X44669096Y50438436D01*
X44015696Y49998105D01*
X43313263Y49577575D01*
X42593771Y49196109D01*
X41889194Y48872972D01*
X41299785Y48649783D01*
X40059895Y48310465D01*
X38786524Y48104207D01*
X37507447Y48034154D01*
X36365313Y48091080D01*
X35365823Y48227793D01*
X34439834Y48432268D01*
X33539379Y48718544D01*
X32616491Y49100659D01*
X32141088Y49327365D01*
X31572461Y49633240D01*
X30984005Y49992938D01*
X30411381Y50381690D01*
X29890249Y50774724D01*
X29456269Y51147272D01*
X29299100Y51301441D01*
X29002921Y51608259D01*
X45997079Y51608259D01*
X49871136Y51608259D01*
X50562325Y52713940D01*
X51214070Y54024801D01*
X51658352Y55164811D01*
X52067348Y56581529D01*
X52071479Y56603979D01*
X48963717Y56603979D01*
X48936380Y56487977D01*
X48862934Y56267729D01*
X48756221Y55976757D01*
X48629085Y55648583D01*
X48494371Y55316731D01*
X48364923Y55014721D01*
X48300979Y54874240D01*
X47999396Y54230678D01*
X40689226Y54230678D01*
X39656581Y54231101D01*
X38667392Y54232331D01*
X37731815Y54234310D01*
X36860006Y54236978D01*
X36062119Y54240277D01*
X35348311Y54244148D01*
X34728737Y54248533D01*
X34213552Y54253373D01*
X33812913Y54258610D01*
X33536975Y54264184D01*
X33395893Y54270037D01*
X33379056Y54272907D01*
X33415316Y54347965D01*
X33516000Y54530487D01*
X33668962Y54799121D01*
X33862060Y55132518D01*
X34060966Y55471727D01*
X34742877Y56628318D01*
X41853297Y56628318D01*
X42871459Y56628068D01*
X43846025Y56627339D01*
X44766695Y56626169D01*
X45623172Y56624591D01*
X46405160Y56622641D01*
X47102362Y56620354D01*
X47704479Y56617766D01*
X48201215Y56614912D01*
X48582272Y56611826D01*
X48837353Y56608545D01*
X48956161Y56605104D01*
X48963717Y56603979D01*
X52071479Y56603979D01*
X52331436Y58016437D01*
X52452865Y59459444D01*
X52450147Y59665839D01*
X49460290Y59665839D01*
X49425833Y59072883D01*
X49377451Y58616385D01*
X49318614Y58169185D01*
X49253562Y57753669D01*
X49186537Y57392221D01*
X49121783Y57107227D01*
X49063540Y56921072D01*
X49016051Y56856143D01*
X49006707Y56861105D01*
X48966271Y56928590D01*
X48855757Y57117656D01*
X48679932Y57420059D01*
X48443564Y57827559D01*
X48151421Y58331913D01*
X47808269Y58924879D01*
X47571457Y59334374D01*
X44568773Y59334374D01*
X44550647Y59300956D01*
X44478259Y59278439D01*
X44333049Y59265287D01*
X44096455Y59259966D01*
X43749916Y59260940D01*
X43274871Y59266675D01*
X43192257Y59267839D01*
X41759504Y59288200D01*
X41751480Y59302092D01*
X38698820Y59302092D01*
X38628076Y59284753D01*
X38432563Y59269914D01*
X38137357Y59258650D01*
X37767534Y59252035D01*
X37500000Y59250737D01*
X37095229Y59253768D01*
X36748834Y59262143D01*
X36485890Y59274789D01*
X36331474Y59290632D01*
X36301180Y59302092D01*
X36336888Y59390404D01*
X36433464Y59576156D01*
X36575085Y59832334D01*
X36745925Y60131926D01*
X36930163Y60447918D01*
X37111974Y60753296D01*
X37275535Y61021047D01*
X37405022Y61224158D01*
X37484612Y61335615D01*
X37500000Y61348672D01*
X37551730Y61287712D01*
X37660537Y61122841D01*
X37810598Y60881072D01*
X37986089Y60589420D01*
X38171187Y60274896D01*
X38350068Y59964515D01*
X38506908Y59685290D01*
X38625883Y59464234D01*
X38691171Y59328362D01*
X38698820Y59302092D01*
X41751480Y59302092D01*
X39009100Y64049750D01*
X35926548Y64049750D01*
X35890079Y63975744D01*
X35784770Y63782726D01*
X35616768Y63481423D01*
X35392221Y63082564D01*
X35117277Y62596876D01*
X34798083Y62035089D01*
X34440786Y61407930D01*
X34051534Y60726127D01*
X33636475Y60000409D01*
X33201756Y59241503D01*
X32753525Y58460138D01*
X32297928Y57667042D01*
X31841115Y56872942D01*
X31389231Y56088568D01*
X30948425Y55324647D01*
X30524845Y54591907D01*
X30124637Y53901077D01*
X29753949Y53262884D01*
X29418929Y52688057D01*
X29271775Y52436399D01*
X28857342Y51728551D01*
X28490832Y52136694D01*
X28276839Y52391521D01*
X28025806Y52715091D01*
X27781718Y53050093D01*
X27707175Y53157809D01*
X27524420Y53443248D01*
X27394860Y53679793D01*
X27333155Y53839134D01*
X27332467Y53881372D01*
X27377524Y53966632D01*
X27491174Y54170021D01*
X27667086Y54480577D01*
X27898928Y54887337D01*
X28180369Y55379338D01*
X28505078Y55945616D01*
X28866724Y56575210D01*
X29258975Y57257157D01*
X29675499Y57980493D01*
X30109965Y58734257D01*
X30556043Y59507484D01*
X31007400Y60289213D01*
X31457705Y61068481D01*
X31900628Y61834324D01*
X32329835Y62575781D01*
X32738997Y63281887D01*
X33121782Y63941681D01*
X33471859Y64544200D01*
X33782895Y65078481D01*
X34048560Y65533561D01*
X34262523Y65898477D01*
X34418451Y66162266D01*
X34510015Y66313967D01*
X34531767Y66347014D01*
X34582081Y66348574D01*
X34666229Y66266980D01*
X34792440Y66090451D01*
X34968939Y65807201D01*
X35203955Y65405450D01*
X35270944Y65288398D01*
X35483581Y64910787D01*
X35667438Y64575020D01*
X35810453Y64303884D01*
X35900562Y64120171D01*
X35926548Y64049750D01*
X39009100Y64049750D01*
X38210585Y65432153D01*
X37702261Y66313659D01*
X37216794Y67158421D01*
X36759271Y67957428D01*
X36334775Y68701668D01*
X35948391Y69382131D01*
X35605203Y69989804D01*
X35310296Y70515676D01*
X35068756Y70950735D01*
X34885665Y71285969D01*
X34766109Y71512368D01*
X34749182Y71548443D01*
X34489654Y71548443D01*
X34437855Y71447891D01*
X34317638Y71230971D01*
X34134790Y70907605D01*
X33895098Y70487718D01*
X33604350Y69981231D01*
X33268332Y69398068D01*
X32892832Y68748153D01*
X32483637Y68041408D01*
X32046534Y67287756D01*
X31587310Y66497121D01*
X31111752Y65679425D01*
X30625648Y64844592D01*
X30134784Y64002544D01*
X29644948Y63163205D01*
X29161927Y62336498D01*
X28691508Y61532346D01*
X28239479Y60760672D01*
X27811625Y60031399D01*
X27413736Y59354450D01*
X27051597Y58739749D01*
X26730996Y58197217D01*
X26457720Y57736779D01*
X26237556Y57368358D01*
X26076291Y57101876D01*
X25979713Y56947257D01*
X25952930Y56910752D01*
X25912791Y57006567D01*
X25854685Y57207134D01*
X25790708Y57470396D01*
X25786348Y57489970D01*
X25592625Y58690424D01*
X25528011Y59936125D01*
X25591444Y61198084D01*
X25781861Y62447311D01*
X26000633Y63335226D01*
X26428297Y64553967D01*
X26986213Y65716443D01*
X27664303Y66811451D01*
X28452488Y67827789D01*
X29340692Y68754254D01*
X30318836Y69579645D01*
X31376842Y70292758D01*
X32504632Y70882391D01*
X32966961Y71078750D01*
X33407098Y71248187D01*
X33797001Y71387585D01*
X34117612Y71491067D01*
X34349875Y71552754D01*
X34474731Y71566766D01*
X34489654Y71548443D01*
X34749182Y71548443D01*
X34715173Y71620919D01*
X34714057Y71629182D01*
X34821182Y71673541D01*
X35044115Y71726080D01*
X35349403Y71781698D01*
X35703591Y71835291D01*
X36073225Y71881757D01*
X36424852Y71915993D01*
X36700853Y71932214D01*
X37287841Y71950737D01*
X40882613Y65731858D01*
X41396740Y64842378D01*
X41890401Y63988205D01*
X42358326Y63178463D01*
X42795245Y62422275D01*
X43195890Y61728765D01*
X43554991Y61107056D01*
X43867278Y60566271D01*
X44127481Y60115534D01*
X44330332Y59763968D01*
X44470561Y59520696D01*
X44542898Y59394842D01*
X44551198Y59380228D01*
X44568773Y59334374D01*
X47571457Y59334374D01*
X47418877Y59598214D01*
X46988011Y60343676D01*
X46520440Y61153024D01*
X46020931Y62018015D01*
X45494251Y62930407D01*
X44945168Y63881957D01*
X44770403Y64184893D01*
X44216089Y65146715D01*
X43683799Y66072129D01*
X43178221Y66952889D01*
X42704042Y67780752D01*
X42265948Y68547473D01*
X41868628Y69244808D01*
X41516768Y69864511D01*
X41215056Y70398340D01*
X40968177Y70838049D01*
X40780821Y71175394D01*
X40657672Y71402130D01*
X40603420Y71510014D01*
X40601351Y71518067D01*
X40695040Y71518915D01*
X40899587Y71468703D01*
X41188726Y71376820D01*
X41536196Y71252652D01*
X41915732Y71105588D01*
X42301070Y70945015D01*
X42665948Y70780320D01*
X42667809Y70779439D01*
X43794286Y70164597D01*
X44846124Y69426696D01*
X45813928Y68577579D01*
X46688304Y67629092D01*
X47459856Y66593079D01*
X48119188Y65481383D01*
X48656906Y64305850D01*
X49063615Y63078325D01*
X49192209Y62554184D01*
X49355309Y61613503D01*
X49446079Y60629717D01*
X49460290Y59665839D01*
X52450147Y59665839D01*
X52433887Y60900456D01*
X52276751Y62329384D01*
X51983709Y63736133D01*
X51557010Y65110612D01*
X50998906Y66442730D01*
X50311647Y67722394D01*
X49497484Y68939512D01*
X48558666Y70083992D01*
X48259846Y70404584D01*
X47476731Y71150476D01*
X46587701Y71875234D01*
X45636327Y72547269D01*
X44666183Y73134995D01*
X44056047Y73452072D01*
X42675004Y74038036D01*
X41258819Y74480826D01*
X39817047Y74780296D01*
X38359246Y74936303D01*
X36894969Y74948704D01*
X35433773Y74817354D01*
G37*
X35433773Y74817354D02*
X33985214Y74542110D01*
X32558847Y74122827D01*
X31349385Y73643443D01*
X30060173Y72987115D01*
X28839220Y72202849D01*
X27697380Y71301131D01*
X26645508Y70292448D01*
X25694461Y69187283D01*
X24855093Y67996123D01*
X24138261Y66729454D01*
X24089383Y66630973D01*
X23499062Y65266892D01*
X23051972Y63877724D01*
X22745428Y62472506D01*
X22576745Y61060278D01*
X22543238Y59650076D01*
X22642222Y58250938D01*
X22871012Y56871902D01*
X23226924Y55522006D01*
X23707273Y54210288D01*
X24309374Y52945785D01*
X25030542Y51737535D01*
X25868092Y50594576D01*
X26819340Y49525946D01*
X27881601Y48540682D01*
X29052189Y47647822D01*
X29888323Y47110246D01*
X31130681Y46451746D01*
X32449302Y45913248D01*
X33825365Y45498934D01*
X35240047Y45212985D01*
X36674526Y45059581D01*
X38109980Y45042905D01*
X38944795Y45098414D01*
X40399638Y45312202D01*
X41811428Y45665196D01*
X43171886Y46150841D01*
X44472732Y46762583D01*
X45705687Y47493864D01*
X46862472Y48338131D01*
X47934808Y49288827D01*
X48914414Y50339398D01*
X49793013Y51483287D01*
X49871136Y51608259D01*
X45997079Y51608259D01*
X45700899Y51301441D01*
X45241489Y50879303D01*
X44669096Y50438436D01*
X44015696Y49998105D01*
X43313263Y49577575D01*
X42593771Y49196109D01*
X41889194Y48872972D01*
X41299785Y48649783D01*
X40059895Y48310465D01*
X38786524Y48104207D01*
X37507447Y48034154D01*
X36365313Y48091080D01*
X35365823Y48227793D01*
X34439834Y48432268D01*
X33539379Y48718544D01*
X32616491Y49100659D01*
X32141088Y49327365D01*
X31572461Y49633240D01*
X30984005Y49992938D01*
X30411381Y50381690D01*
X29890249Y50774724D01*
X29456269Y51147272D01*
X29299100Y51301441D01*
X29002921Y51608259D01*
X45997079Y51608259D01*
X49871136Y51608259D01*
X50562325Y52713940D01*
X51214070Y54024801D01*
X51658352Y55164811D01*
X52067348Y56581529D01*
X52071479Y56603979D01*
X48963717Y56603979D01*
X48936380Y56487977D01*
X48862934Y56267729D01*
X48756221Y55976757D01*
X48629085Y55648583D01*
X48494371Y55316731D01*
X48364923Y55014721D01*
X48300979Y54874240D01*
X47999396Y54230678D01*
X40689226Y54230678D01*
X39656581Y54231101D01*
X38667392Y54232331D01*
X37731815Y54234310D01*
X36860006Y54236978D01*
X36062119Y54240277D01*
X35348311Y54244148D01*
X34728737Y54248533D01*
X34213552Y54253373D01*
X33812913Y54258610D01*
X33536975Y54264184D01*
X33395893Y54270037D01*
X33379056Y54272907D01*
X33415316Y54347965D01*
X33516000Y54530487D01*
X33668962Y54799121D01*
X33862060Y55132518D01*
X34060966Y55471727D01*
X34742877Y56628318D01*
X41853297Y56628318D01*
X42871459Y56628068D01*
X43846025Y56627339D01*
X44766695Y56626169D01*
X45623172Y56624591D01*
X46405160Y56622641D01*
X47102362Y56620354D01*
X47704479Y56617766D01*
X48201215Y56614912D01*
X48582272Y56611826D01*
X48837353Y56608545D01*
X48956161Y56605104D01*
X48963717Y56603979D01*
X52071479Y56603979D01*
X52331436Y58016437D01*
X52452865Y59459444D01*
X52450147Y59665839D01*
X49460290Y59665839D01*
X49425833Y59072883D01*
X49377451Y58616385D01*
X49318614Y58169185D01*
X49253562Y57753669D01*
X49186537Y57392221D01*
X49121783Y57107227D01*
X49063540Y56921072D01*
X49016051Y56856143D01*
X49006707Y56861105D01*
X48966271Y56928590D01*
X48855757Y57117656D01*
X48679932Y57420059D01*
X48443564Y57827559D01*
X48151421Y58331913D01*
X47808269Y58924879D01*
X47571457Y59334374D01*
X44568773Y59334374D01*
X44550647Y59300956D01*
X44478259Y59278439D01*
X44333049Y59265287D01*
X44096455Y59259966D01*
X43749916Y59260940D01*
X43274871Y59266675D01*
X43192257Y59267839D01*
X41759504Y59288200D01*
X41751480Y59302092D01*
X38698820Y59302092D01*
X38628076Y59284753D01*
X38432563Y59269914D01*
X38137357Y59258650D01*
X37767534Y59252035D01*
X37500000Y59250737D01*
X37095229Y59253768D01*
X36748834Y59262143D01*
X36485890Y59274789D01*
X36331474Y59290632D01*
X36301180Y59302092D01*
X36336888Y59390404D01*
X36433464Y59576156D01*
X36575085Y59832334D01*
X36745925Y60131926D01*
X36930163Y60447918D01*
X37111974Y60753296D01*
X37275535Y61021047D01*
X37405022Y61224158D01*
X37484612Y61335615D01*
X37500000Y61348672D01*
X37551730Y61287712D01*
X37660537Y61122841D01*
X37810598Y60881072D01*
X37986089Y60589420D01*
X38171187Y60274896D01*
X38350068Y59964515D01*
X38506908Y59685290D01*
X38625883Y59464234D01*
X38691171Y59328362D01*
X38698820Y59302092D01*
X41751480Y59302092D01*
X39009100Y64049750D01*
X35926548Y64049750D01*
X35890079Y63975744D01*
X35784770Y63782726D01*
X35616768Y63481423D01*
X35392221Y63082564D01*
X35117277Y62596876D01*
X34798083Y62035089D01*
X34440786Y61407930D01*
X34051534Y60726127D01*
X33636475Y60000409D01*
X33201756Y59241503D01*
X32753525Y58460138D01*
X32297928Y57667042D01*
X31841115Y56872942D01*
X31389231Y56088568D01*
X30948425Y55324647D01*
X30524845Y54591907D01*
X30124637Y53901077D01*
X29753949Y53262884D01*
X29418929Y52688057D01*
X29271775Y52436399D01*
X28857342Y51728551D01*
X28490832Y52136694D01*
X28276839Y52391521D01*
X28025806Y52715091D01*
X27781718Y53050093D01*
X27707175Y53157809D01*
X27524420Y53443248D01*
X27394860Y53679793D01*
X27333155Y53839134D01*
X27332467Y53881372D01*
X27377524Y53966632D01*
X27491174Y54170021D01*
X27667086Y54480577D01*
X27898928Y54887337D01*
X28180369Y55379338D01*
X28505078Y55945616D01*
X28866724Y56575210D01*
X29258975Y57257157D01*
X29675499Y57980493D01*
X30109965Y58734257D01*
X30556043Y59507484D01*
X31007400Y60289213D01*
X31457705Y61068481D01*
X31900628Y61834324D01*
X32329835Y62575781D01*
X32738997Y63281887D01*
X33121782Y63941681D01*
X33471859Y64544200D01*
X33782895Y65078481D01*
X34048560Y65533561D01*
X34262523Y65898477D01*
X34418451Y66162266D01*
X34510015Y66313967D01*
X34531767Y66347014D01*
X34582081Y66348574D01*
X34666229Y66266980D01*
X34792440Y66090451D01*
X34968939Y65807201D01*
X35203955Y65405450D01*
X35270944Y65288398D01*
X35483581Y64910787D01*
X35667438Y64575020D01*
X35810453Y64303884D01*
X35900562Y64120171D01*
X35926548Y64049750D01*
X39009100Y64049750D01*
X38210585Y65432153D01*
X37702261Y66313659D01*
X37216794Y67158421D01*
X36759271Y67957428D01*
X36334775Y68701668D01*
X35948391Y69382131D01*
X35605203Y69989804D01*
X35310296Y70515676D01*
X35068756Y70950735D01*
X34885665Y71285969D01*
X34766109Y71512368D01*
X34749182Y71548443D01*
X34489654Y71548443D01*
X34437855Y71447891D01*
X34317638Y71230971D01*
X34134790Y70907605D01*
X33895098Y70487718D01*
X33604350Y69981231D01*
X33268332Y69398068D01*
X32892832Y68748153D01*
X32483637Y68041408D01*
X32046534Y67287756D01*
X31587310Y66497121D01*
X31111752Y65679425D01*
X30625648Y64844592D01*
X30134784Y64002544D01*
X29644948Y63163205D01*
X29161927Y62336498D01*
X28691508Y61532346D01*
X28239479Y60760672D01*
X27811625Y60031399D01*
X27413736Y59354450D01*
X27051597Y58739749D01*
X26730996Y58197217D01*
X26457720Y57736779D01*
X26237556Y57368358D01*
X26076291Y57101876D01*
X25979713Y56947257D01*
X25952930Y56910752D01*
X25912791Y57006567D01*
X25854685Y57207134D01*
X25790708Y57470396D01*
X25786348Y57489970D01*
X25592625Y58690424D01*
X25528011Y59936125D01*
X25591444Y61198084D01*
X25781861Y62447311D01*
X26000633Y63335226D01*
X26428297Y64553967D01*
X26986213Y65716443D01*
X27664303Y66811451D01*
X28452488Y67827789D01*
X29340692Y68754254D01*
X30318836Y69579645D01*
X31376842Y70292758D01*
X32504632Y70882391D01*
X32966961Y71078750D01*
X33407098Y71248187D01*
X33797001Y71387585D01*
X34117612Y71491067D01*
X34349875Y71552754D01*
X34474731Y71566766D01*
X34489654Y71548443D01*
X34749182Y71548443D01*
X34715173Y71620919D01*
X34714057Y71629182D01*
X34821182Y71673541D01*
X35044115Y71726080D01*
X35349403Y71781698D01*
X35703591Y71835291D01*
X36073225Y71881757D01*
X36424852Y71915993D01*
X36700853Y71932214D01*
X37287841Y71950737D01*
X40882613Y65731858D01*
X41396740Y64842378D01*
X41890401Y63988205D01*
X42358326Y63178463D01*
X42795245Y62422275D01*
X43195890Y61728765D01*
X43554991Y61107056D01*
X43867278Y60566271D01*
X44127481Y60115534D01*
X44330332Y59763968D01*
X44470561Y59520696D01*
X44542898Y59394842D01*
X44551198Y59380228D01*
X44568773Y59334374D01*
X47571457Y59334374D01*
X47418877Y59598214D01*
X46988011Y60343676D01*
X46520440Y61153024D01*
X46020931Y62018015D01*
X45494251Y62930407D01*
X44945168Y63881957D01*
X44770403Y64184893D01*
X44216089Y65146715D01*
X43683799Y66072129D01*
X43178221Y66952889D01*
X42704042Y67780752D01*
X42265948Y68547473D01*
X41868628Y69244808D01*
X41516768Y69864511D01*
X41215056Y70398340D01*
X40968177Y70838049D01*
X40780821Y71175394D01*
X40657672Y71402130D01*
X40603420Y71510014D01*
X40601351Y71518067D01*
X40695040Y71518915D01*
X40899587Y71468703D01*
X41188726Y71376820D01*
X41536196Y71252652D01*
X41915732Y71105588D01*
X42301070Y70945015D01*
X42665948Y70780320D01*
X42667809Y70779439D01*
X43794286Y70164597D01*
X44846124Y69426696D01*
X45813928Y68577579D01*
X46688304Y67629092D01*
X47459856Y66593079D01*
X48119188Y65481383D01*
X48656906Y64305850D01*
X49063615Y63078325D01*
X49192209Y62554184D01*
X49355309Y61613503D01*
X49446079Y60629717D01*
X49460290Y59665839D01*
X52450147Y59665839D01*
X52433887Y60900456D01*
X52276751Y62329384D01*
X51983709Y63736133D01*
X51557010Y65110612D01*
X50998906Y66442730D01*
X50311647Y67722394D01*
X49497484Y68939512D01*
X48558666Y70083992D01*
X48259846Y70404584D01*
X47476731Y71150476D01*
X46587701Y71875234D01*
X45636327Y72547269D01*
X44666183Y73134995D01*
X44056047Y73452072D01*
X42675004Y74038036D01*
X41258819Y74480826D01*
X39817047Y74780296D01*
X38359246Y74936303D01*
X36894969Y74948704D01*
X35433773Y74817354D01*
D13*
X63440000Y52010000D02*
X64770000Y52010000D01*
X63440000Y53340000D02*
X63440000Y52010000D01*
X63440000Y54610000D02*
X66100000Y54610000D01*
X66100000Y54610000D02*
X66100000Y67370000D01*
X63440000Y54610000D02*
X63440000Y67370000D01*
X63440000Y67370000D02*
X66100000Y67370000D01*
X59690000Y36830000D02*
X58420000Y36830000D01*
X59690000Y31750000D02*
X59690000Y36830000D01*
X46990000Y36830000D02*
X48260000Y36830000D01*
X46990000Y31750000D02*
X46990000Y36830000D01*
X64770000Y16510000D02*
X63500000Y16510000D01*
X64770000Y21590000D02*
X64770000Y16510000D01*
X41910000Y16510000D02*
X43180000Y16510000D01*
X41910000Y21590000D02*
X41910000Y16510000D01*
D14*
G36*
X59690000Y31750000D02*
G01*
X46990000Y31750000D01*
X46990000Y29210000D01*
X59690000Y29210000D01*
X59690000Y31750000D01*
G37*
X59690000Y31750000D02*
X46990000Y31750000D01*
X46990000Y29210000D01*
X59690000Y29210000D01*
X59690000Y31750000D01*
G36*
X64770000Y24130000D02*
G01*
X41910000Y24130000D01*
X41910000Y21590000D01*
X64770000Y21590000D01*
X64770000Y24130000D01*
G37*
X64770000Y24130000D02*
X41910000Y24130000D01*
X41910000Y21590000D01*
X64770000Y21590000D01*
X64770000Y24130000D01*
D13*
X41910000Y27940000D02*
X64770000Y27940000D01*
X41910000Y25400000D02*
X64770000Y25400000D01*
X37490000Y13320000D02*
X37490000Y40020000D01*
X69190000Y13320000D02*
X37490000Y13320000D01*
X69190000Y13320000D02*
X69190000Y40020000D01*
X37490000Y40020000D02*
X69190000Y40020000D01*
X19280000Y13090000D02*
X19280000Y18090000D01*
X16280000Y13090000D02*
X19280000Y13090000D01*
X16280000Y18090000D02*
X16280000Y13090000D01*
X19280000Y18090000D02*
X16280000Y18090000D01*
X19280000Y13090000D02*
X16280000Y18090000D01*
X19280000Y15590000D02*
X23780000Y15590000D01*
X11780000Y15590000D02*
X16280000Y15590000D01*
X17780000Y18990000D02*
X21480000Y18990000D01*
X17780000Y12090000D02*
X21480000Y12090000D01*
X21480000Y12090000D02*
X21480000Y18990000D01*
X17780000Y10590000D02*
X15080000Y6090000D01*
X17780000Y12090000D02*
X17780000Y10590000D01*
X11780000Y15590000D02*
X11780000Y17890000D01*
X17780000Y18990000D02*
X17780000Y19890000D01*
X23780000Y17890000D02*
X23780000Y15590000D01*
X13480000Y7390000D02*
X15780000Y7390000D01*
X22080000Y7390000D02*
X19780000Y7390000D01*
X25480000Y3890000D02*
X25480000Y23090000D01*
X10080000Y3890000D02*
X25480000Y3890000D01*
X10080000Y23090000D02*
X10080000Y3890000D01*
X10080000Y23090000D02*
X16580000Y23090000D01*
X18980000Y23090000D02*
X25480000Y23090000D01*
X33470436Y105050000D02*
X34674564Y105050000D01*
X33470436Y103230000D02*
X34674564Y103230000D01*
X33470436Y101240000D02*
X34674564Y101240000D01*
X33470436Y99420000D02*
X34674564Y99420000D01*
X57150000Y3810000D02*
X57150000Y8890000D01*
X67310000Y3810000D02*
X57150000Y3810000D01*
X67310000Y8890000D02*
X67310000Y3810000D01*
X57150000Y8890000D02*
X67310000Y8890000D01*
X43180000Y3810000D02*
X43180000Y8890000D01*
X53340000Y3810000D02*
X43180000Y3810000D01*
X53340000Y8890000D02*
X53340000Y3810000D01*
X43180000Y8890000D02*
X53340000Y8890000D01*
X29210000Y8890000D02*
X39370000Y8890000D01*
X39370000Y8890000D02*
X39370000Y3810000D01*
X39370000Y3810000D02*
X29210000Y3810000D01*
X29210000Y3810000D02*
X29210000Y8890000D01*
X15085000Y67830000D02*
X12545000Y67830000D01*
X15085000Y67830000D02*
X15085000Y65290000D01*
X14835000Y67580000D02*
X5485000Y67580000D01*
X14835000Y51800000D02*
X14835000Y67580000D01*
X5485000Y51800000D02*
X14835000Y51800000D01*
X5485000Y67580000D02*
X5485000Y51800000D01*
X13125563Y31970000D02*
X14190000Y30905563D01*
X9734437Y31970000D02*
X8670000Y30905563D01*
X9734437Y31970000D02*
X10370000Y31970000D01*
X13125563Y31970000D02*
X12490000Y31970000D01*
X14190000Y30905563D02*
X14190000Y26450000D01*
X8670000Y30905563D02*
X8670000Y26450000D01*
X8670000Y26450000D02*
X10370000Y26450000D01*
X14190000Y26450000D02*
X12490000Y26450000D01*
X33470000Y32364437D02*
X32405563Y31300000D01*
X33470000Y38755563D02*
X32405563Y39820000D01*
X33470000Y38755563D02*
X33470000Y36870000D01*
X33470000Y32364437D02*
X33470000Y34250000D01*
X32405563Y31300000D02*
X24950000Y31300000D01*
X32405563Y39820000D02*
X24950000Y39820000D01*
X24950000Y39820000D02*
X24950000Y36870000D01*
X24950000Y31300000D02*
X24950000Y34250000D01*
D15*
X67079523Y67965238D02*
X66936666Y67917619D01*
X66698571Y67917619D01*
X66603333Y67965238D01*
X66555714Y68012857D01*
X66508095Y68108095D01*
X66508095Y68203333D01*
X66555714Y68298571D01*
X66603333Y68346190D01*
X66698571Y68393809D01*
X66889047Y68441428D01*
X66984285Y68489047D01*
X67031904Y68536666D01*
X67079523Y68631904D01*
X67079523Y68727142D01*
X67031904Y68822380D01*
X66984285Y68870000D01*
X66889047Y68917619D01*
X66650952Y68917619D01*
X66508095Y68870000D01*
X66079523Y68441428D02*
X65746190Y68441428D01*
X65603333Y67917619D02*
X66079523Y67917619D01*
X66079523Y68917619D01*
X65603333Y68917619D01*
X64603333Y67917619D02*
X64936666Y68393809D01*
X65174761Y67917619D02*
X65174761Y68917619D01*
X64793809Y68917619D01*
X64698571Y68870000D01*
X64650952Y68822380D01*
X64603333Y68727142D01*
X64603333Y68584285D01*
X64650952Y68489047D01*
X64698571Y68441428D01*
X64793809Y68393809D01*
X65174761Y68393809D01*
X64174761Y67917619D02*
X64174761Y68917619D01*
X63746190Y68203333D02*
X63270000Y68203333D01*
X63841428Y67917619D02*
X63508095Y68917619D01*
X63174761Y67917619D01*
X62365238Y67917619D02*
X62841428Y67917619D01*
X62841428Y68917619D01*
X54506666Y41457619D02*
X55078095Y41457619D01*
X54792380Y41457619D02*
X54792380Y42457619D01*
X54887619Y42314761D01*
X54982857Y42219523D01*
X55078095Y42171904D01*
X54078095Y41457619D02*
X54078095Y42457619D01*
X53697142Y42457619D01*
X53601904Y42410000D01*
X53554285Y42362380D01*
X53506666Y42267142D01*
X53506666Y42124285D01*
X53554285Y42029047D01*
X53601904Y41981428D01*
X53697142Y41933809D01*
X54078095Y41933809D01*
X52554285Y41457619D02*
X53125714Y41457619D01*
X52840000Y41457619D02*
X52840000Y42457619D01*
X52935238Y42314761D01*
X53030476Y42219523D01*
X53125714Y42171904D01*
X52173333Y41505238D02*
X52030476Y41457619D01*
X51792380Y41457619D01*
X51697142Y41505238D01*
X51649523Y41552857D01*
X51601904Y41648095D01*
X51601904Y41743333D01*
X51649523Y41838571D01*
X51697142Y41886190D01*
X51792380Y41933809D01*
X51982857Y41981428D01*
X52078095Y42029047D01*
X52125714Y42076666D01*
X52173333Y42171904D01*
X52173333Y42267142D01*
X52125714Y42362380D01*
X52078095Y42410000D01*
X51982857Y42457619D01*
X51744761Y42457619D01*
X51601904Y42410000D01*
X53625714Y32615238D02*
X53482857Y32567619D01*
X53244761Y32567619D01*
X53149523Y32615238D01*
X53101904Y32662857D01*
X53054285Y32758095D01*
X53054285Y32853333D01*
X53101904Y32948571D01*
X53149523Y32996190D01*
X53244761Y33043809D01*
X53435238Y33091428D01*
X53530476Y33139047D01*
X53578095Y33186666D01*
X53625714Y33281904D01*
X53625714Y33377142D01*
X53578095Y33472380D01*
X53530476Y33520000D01*
X53435238Y33567619D01*
X53197142Y33567619D01*
X53054285Y33520000D01*
X53601904Y19867619D02*
X53601904Y20867619D01*
X53220952Y20867619D01*
X53125714Y20820000D01*
X53078095Y20772380D01*
X53030476Y20677142D01*
X53030476Y20534285D01*
X53078095Y20439047D01*
X53125714Y20391428D01*
X53220952Y20343809D01*
X53601904Y20343809D01*
X18994285Y2087619D02*
X19327619Y2563809D01*
X19565714Y2087619D02*
X19565714Y3087619D01*
X19184761Y3087619D01*
X19089523Y3040000D01*
X19041904Y2992380D01*
X18994285Y2897142D01*
X18994285Y2754285D01*
X19041904Y2659047D01*
X19089523Y2611428D01*
X19184761Y2563809D01*
X19565714Y2563809D01*
X18184761Y2135238D02*
X18280000Y2087619D01*
X18470476Y2087619D01*
X18565714Y2135238D01*
X18613333Y2230476D01*
X18613333Y2611428D01*
X18565714Y2706666D01*
X18470476Y2754285D01*
X18280000Y2754285D01*
X18184761Y2706666D01*
X18137142Y2611428D01*
X18137142Y2516190D01*
X18613333Y2420952D01*
X17565714Y2087619D02*
X17660952Y2135238D01*
X17708571Y2230476D01*
X17708571Y3087619D01*
X16756190Y2087619D02*
X16756190Y2611428D01*
X16803809Y2706666D01*
X16899047Y2754285D01*
X17089523Y2754285D01*
X17184761Y2706666D01*
X16756190Y2135238D02*
X16851428Y2087619D01*
X17089523Y2087619D01*
X17184761Y2135238D01*
X17232380Y2230476D01*
X17232380Y2325714D01*
X17184761Y2420952D01*
X17089523Y2468571D01*
X16851428Y2468571D01*
X16756190Y2516190D01*
X16375238Y2754285D02*
X16137142Y2087619D01*
X15899047Y2754285D02*
X16137142Y2087619D01*
X16232380Y1849523D01*
X16280000Y1801904D01*
X16375238Y1754285D01*
X31075238Y103687619D02*
X31646666Y103687619D01*
X31360952Y103687619D02*
X31360952Y104687619D01*
X31456190Y104544761D01*
X31551428Y104449523D01*
X31646666Y104401904D01*
X30456190Y104687619D02*
X30360952Y104687619D01*
X30265714Y104640000D01*
X30218095Y104592380D01*
X30170476Y104497142D01*
X30122857Y104306666D01*
X30122857Y104068571D01*
X30170476Y103878095D01*
X30218095Y103782857D01*
X30265714Y103735238D01*
X30360952Y103687619D01*
X30456190Y103687619D01*
X30551428Y103735238D01*
X30599047Y103782857D01*
X30646666Y103878095D01*
X30694285Y104068571D01*
X30694285Y104306666D01*
X30646666Y104497142D01*
X30599047Y104592380D01*
X30551428Y104640000D01*
X30456190Y104687619D01*
X29694285Y103687619D02*
X29694285Y104687619D01*
X29599047Y104068571D02*
X29313333Y103687619D01*
X29313333Y104354285D02*
X29694285Y103973333D01*
X31075238Y99877619D02*
X31646666Y99877619D01*
X31360952Y99877619D02*
X31360952Y100877619D01*
X31456190Y100734761D01*
X31551428Y100639523D01*
X31646666Y100591904D01*
X30456190Y100877619D02*
X30360952Y100877619D01*
X30265714Y100830000D01*
X30218095Y100782380D01*
X30170476Y100687142D01*
X30122857Y100496666D01*
X30122857Y100258571D01*
X30170476Y100068095D01*
X30218095Y99972857D01*
X30265714Y99925238D01*
X30360952Y99877619D01*
X30456190Y99877619D01*
X30551428Y99925238D01*
X30599047Y99972857D01*
X30646666Y100068095D01*
X30694285Y100258571D01*
X30694285Y100496666D01*
X30646666Y100687142D01*
X30599047Y100782380D01*
X30551428Y100830000D01*
X30456190Y100877619D01*
X29694285Y99877619D02*
X29694285Y100877619D01*
X29599047Y100258571D02*
X29313333Y99877619D01*
X29313333Y100544285D02*
X29694285Y100163333D01*
X65206190Y2087619D02*
X65206190Y3087619D01*
X64634761Y2087619D01*
X64634761Y3087619D01*
X64158571Y2611428D02*
X63825238Y2611428D01*
X63682380Y2087619D02*
X64158571Y2087619D01*
X64158571Y3087619D01*
X63682380Y3087619D01*
X63253809Y3087619D02*
X63253809Y2278095D01*
X63206190Y2182857D01*
X63158571Y2135238D01*
X63063333Y2087619D01*
X62872857Y2087619D01*
X62777619Y2135238D01*
X62730000Y2182857D01*
X62682380Y2278095D01*
X62682380Y3087619D01*
X62349047Y3087619D02*
X61777619Y3087619D01*
X62063333Y2087619D02*
X62063333Y3087619D01*
X60872857Y2087619D02*
X61206190Y2563809D01*
X61444285Y2087619D02*
X61444285Y3087619D01*
X61063333Y3087619D01*
X60968095Y3040000D01*
X60920476Y2992380D01*
X60872857Y2897142D01*
X60872857Y2754285D01*
X60920476Y2659047D01*
X60968095Y2611428D01*
X61063333Y2563809D01*
X61444285Y2563809D01*
X60491904Y2373333D02*
X60015714Y2373333D01*
X60587142Y2087619D02*
X60253809Y3087619D01*
X59920476Y2087619D01*
X59110952Y2087619D02*
X59587142Y2087619D01*
X59587142Y3087619D01*
X50498095Y2373333D02*
X50021904Y2373333D01*
X50593333Y2087619D02*
X50260000Y3087619D01*
X49926666Y2087619D01*
X49021904Y2182857D02*
X49069523Y2135238D01*
X49212380Y2087619D01*
X49307619Y2087619D01*
X49450476Y2135238D01*
X49545714Y2230476D01*
X49593333Y2325714D01*
X49640952Y2516190D01*
X49640952Y2659047D01*
X49593333Y2849523D01*
X49545714Y2944761D01*
X49450476Y3040000D01*
X49307619Y3087619D01*
X49212380Y3087619D01*
X49069523Y3040000D01*
X49021904Y2992380D01*
X48736190Y3087619D02*
X48164761Y3087619D01*
X48450476Y2087619D02*
X48450476Y3087619D01*
X47831428Y2087619D02*
X47831428Y3087619D01*
X47498095Y3087619D02*
X47164761Y2087619D01*
X46831428Y3087619D01*
X46498095Y2611428D02*
X46164761Y2611428D01*
X46021904Y2087619D02*
X46498095Y2087619D01*
X46498095Y3087619D01*
X46021904Y3087619D01*
X36551904Y2087619D02*
X36551904Y3087619D01*
X36218571Y2373333D01*
X35885238Y3087619D01*
X35885238Y2087619D01*
X35218571Y3087619D02*
X35028095Y3087619D01*
X34932857Y3040000D01*
X34837619Y2944761D01*
X34790000Y2754285D01*
X34790000Y2420952D01*
X34837619Y2230476D01*
X34932857Y2135238D01*
X35028095Y2087619D01*
X35218571Y2087619D01*
X35313809Y2135238D01*
X35409047Y2230476D01*
X35456666Y2420952D01*
X35456666Y2754285D01*
X35409047Y2944761D01*
X35313809Y3040000D01*
X35218571Y3087619D01*
X34504285Y3087619D02*
X33932857Y3087619D01*
X34218571Y2087619D02*
X34218571Y3087619D01*
X33409047Y3087619D02*
X33218571Y3087619D01*
X33123333Y3040000D01*
X33028095Y2944761D01*
X32980476Y2754285D01*
X32980476Y2420952D01*
X33028095Y2230476D01*
X33123333Y2135238D01*
X33218571Y2087619D01*
X33409047Y2087619D01*
X33504285Y2135238D01*
X33599523Y2230476D01*
X33647142Y2420952D01*
X33647142Y2754285D01*
X33599523Y2944761D01*
X33504285Y3040000D01*
X33409047Y3087619D01*
X31980476Y2087619D02*
X32313809Y2563809D01*
X32551904Y2087619D02*
X32551904Y3087619D01*
X32170952Y3087619D01*
X32075714Y3040000D01*
X32028095Y2992380D01*
X31980476Y2897142D01*
X31980476Y2754285D01*
X32028095Y2659047D01*
X32075714Y2611428D01*
X32170952Y2563809D01*
X32551904Y2563809D01*
X14255238Y50379333D02*
X13779047Y50379333D01*
X14350476Y50093619D02*
X14017142Y51093619D01*
X13683809Y50093619D01*
X13493333Y51093619D02*
X13160000Y50093619D01*
X12826666Y51093619D01*
X11921904Y50093619D02*
X12255238Y50569809D01*
X12493333Y50093619D02*
X12493333Y51093619D01*
X12112380Y51093619D01*
X12017142Y51046000D01*
X11969523Y50998380D01*
X11921904Y50903142D01*
X11921904Y50760285D01*
X11969523Y50665047D01*
X12017142Y50617428D01*
X12112380Y50569809D01*
X12493333Y50569809D01*
X11493333Y50474571D02*
X10731428Y50474571D01*
X10255238Y50093619D02*
X10255238Y51093619D01*
X9826666Y50141238D02*
X9683809Y50093619D01*
X9445714Y50093619D01*
X9350476Y50141238D01*
X9302857Y50188857D01*
X9255238Y50284095D01*
X9255238Y50379333D01*
X9302857Y50474571D01*
X9350476Y50522190D01*
X9445714Y50569809D01*
X9636190Y50617428D01*
X9731428Y50665047D01*
X9779047Y50712666D01*
X9826666Y50807904D01*
X9826666Y50903142D01*
X9779047Y50998380D01*
X9731428Y51046000D01*
X9636190Y51093619D01*
X9398095Y51093619D01*
X9255238Y51046000D01*
X8826666Y50093619D02*
X8826666Y51093619D01*
X8445714Y51093619D01*
X8350476Y51046000D01*
X8302857Y50998380D01*
X8255238Y50903142D01*
X8255238Y50760285D01*
X8302857Y50665047D01*
X8350476Y50617428D01*
X8445714Y50569809D01*
X8826666Y50569809D01*
X7826666Y50474571D02*
X7064761Y50474571D01*
X6160000Y51093619D02*
X6350476Y51093619D01*
X6445714Y51046000D01*
X6493333Y50998380D01*
X6588571Y50855523D01*
X6636190Y50665047D01*
X6636190Y50284095D01*
X6588571Y50188857D01*
X6540952Y50141238D01*
X6445714Y50093619D01*
X6255238Y50093619D01*
X6160000Y50141238D01*
X6112380Y50188857D01*
X6064761Y50284095D01*
X6064761Y50522190D01*
X6112380Y50617428D01*
X6160000Y50665047D01*
X6255238Y50712666D01*
X6445714Y50712666D01*
X6540952Y50665047D01*
X6588571Y50617428D01*
X6636190Y50522190D01*
X7421428Y28757619D02*
X7992857Y28757619D01*
X7707142Y28757619D02*
X7707142Y29757619D01*
X7802380Y29614761D01*
X7897619Y29519523D01*
X7992857Y29471904D01*
X6802380Y29757619D02*
X6707142Y29757619D01*
X6611904Y29710000D01*
X6564285Y29662380D01*
X6516666Y29567142D01*
X6469047Y29376666D01*
X6469047Y29138571D01*
X6516666Y28948095D01*
X6564285Y28852857D01*
X6611904Y28805238D01*
X6707142Y28757619D01*
X6802380Y28757619D01*
X6897619Y28805238D01*
X6945238Y28852857D01*
X6992857Y28948095D01*
X7040476Y29138571D01*
X7040476Y29376666D01*
X6992857Y29567142D01*
X6945238Y29662380D01*
X6897619Y29710000D01*
X6802380Y29757619D01*
X5611904Y29424285D02*
X5611904Y28757619D01*
X6040476Y29424285D02*
X6040476Y28900476D01*
X5992857Y28805238D01*
X5897619Y28757619D01*
X5754761Y28757619D01*
X5659523Y28805238D01*
X5611904Y28852857D01*
X4802380Y29281428D02*
X5135714Y29281428D01*
X5135714Y28757619D02*
X5135714Y29757619D01*
X4659523Y29757619D01*
X30852857Y30574285D02*
X30852857Y29907619D01*
X31090952Y30955238D02*
X31329047Y30240952D01*
X30710000Y30240952D01*
X30424285Y30907619D02*
X29757619Y30907619D01*
X30186190Y29907619D01*
X29186190Y30907619D02*
X29090952Y30907619D01*
X28995714Y30860000D01*
X28948095Y30812380D01*
X28900476Y30717142D01*
X28852857Y30526666D01*
X28852857Y30288571D01*
X28900476Y30098095D01*
X28948095Y30002857D01*
X28995714Y29955238D01*
X29090952Y29907619D01*
X29186190Y29907619D01*
X29281428Y29955238D01*
X29329047Y30002857D01*
X29376666Y30098095D01*
X29424285Y30288571D01*
X29424285Y30526666D01*
X29376666Y30717142D01*
X29329047Y30812380D01*
X29281428Y30860000D01*
X29186190Y30907619D01*
X27995714Y30574285D02*
X27995714Y29907619D01*
X28424285Y30574285D02*
X28424285Y30050476D01*
X28376666Y29955238D01*
X28281428Y29907619D01*
X28138571Y29907619D01*
X28043333Y29955238D01*
X27995714Y30002857D01*
X27186190Y30431428D02*
X27519523Y30431428D01*
X27519523Y29907619D02*
X27519523Y30907619D01*
X27043333Y30907619D01*
M02*
